<svg width="794" height="599" viewBox="0 0 794 599" fill="none" xmlns="http://www.w3.org/2000/svg">
<path d="M282.943 532.573C323.177 532.573 355.793 528.192 355.793 522.787C355.793 517.383 323.177 513.001 282.943 513.001C242.71 513.001 210.094 517.383 210.094 522.787C210.094 528.192 242.71 532.573 282.943 532.573Z" fill="#E6E7E8"/>
<path d="M599.333 532.573C639.567 532.573 672.182 528.192 672.182 522.787C672.182 517.383 639.567 513.001 599.333 513.001C559.099 513.001 526.483 517.383 526.483 522.787C526.483 528.192 559.099 532.573 599.333 532.573Z" fill="#E6E7E8"/>
<path d="M278.834 489.658C278.834 489.658 291.498 528.405 293.741 527.67C295.984 526.936 341.064 500.833 339.575 496.367C338.086 491.901 306.783 501.21 306.783 501.21L299.736 480.348" fill="white"/>
<path d="M293.781 528.663C293.574 528.667 293.369 528.619 293.185 528.524C290.386 527.115 281.633 501.091 278 489.975C277.957 489.85 277.939 489.718 277.947 489.586C277.956 489.454 277.991 489.325 278.05 489.206C278.109 489.088 278.192 488.983 278.292 488.896C278.393 488.81 278.509 488.745 278.635 488.705C278.888 488.63 279.16 488.656 279.394 488.778C279.627 488.901 279.804 489.109 279.886 489.36C285.285 505.875 291.895 524.078 293.92 526.559C300.053 523.939 338.443 500.476 338.701 496.585C338.165 494.997 324.548 496.982 307.16 502.163C306.912 502.229 306.649 502.2 306.422 502.083C306.195 501.965 306.019 501.768 305.929 501.528L298.862 480.666C298.779 480.415 298.797 480.143 298.912 479.905C299.027 479.668 299.23 479.485 299.478 479.395C299.731 479.318 300.003 479.341 300.24 479.46C300.476 479.578 300.658 479.782 300.748 480.03L307.517 499.88C335.764 491.563 340.071 494.342 340.607 495.91C341.004 497.082 341.818 499.503 318.772 514.113C307.418 521.279 295.528 528.008 294.257 528.464C294.114 528.563 293.952 528.631 293.781 528.663Z" fill="#231F20"/>
<path d="M225.18 424.828C225.18 424.828 199.097 425.205 198.363 427.428C197.628 429.651 189.788 471.098 196.874 467.684C203.961 464.269 215.493 440.846 215.493 440.846L228.535 438.861L225.18 424.828Z" fill="white"/>
<path d="M196.099 468.855C195.558 468.853 195.036 468.655 194.63 468.299C189.767 463.972 196.932 428.599 197.409 427.11C197.647 426.396 198.381 424.212 225.199 423.835C225.421 423.844 225.636 423.922 225.813 424.057C225.991 424.191 226.123 424.377 226.191 424.589L229.546 438.584C229.601 438.85 229.552 439.127 229.407 439.358C229.332 439.474 229.233 439.574 229.117 439.649C229 439.724 228.869 439.774 228.732 439.795L216.187 441.78C214.48 445.214 204.158 465.381 197.329 468.617C196.942 468.786 196.522 468.868 196.099 468.855ZM199.255 427.904C198.203 431.537 192.565 463.813 195.96 466.81C195.96 466.81 196.099 466.949 196.436 466.81C201.994 464.19 211.423 446.96 214.599 440.45C214.665 440.305 214.768 440.18 214.896 440.086C215.025 439.992 215.175 439.933 215.333 439.914L227.243 437.929L224.325 425.78C213.09 426.019 200.922 426.832 199.255 427.904Z" fill="#231F20"/>
<path d="M373.598 119.574L384.753 113.183C384.753 113.183 387.89 103.138 391.046 100.717C394.202 98.2951 398.549 101.59 398.549 101.59C398.549 101.59 410.082 91.9629 412.861 92.2805C415.64 92.5981 411.968 97.5209 409.129 100.002L403.174 105.223C403.174 105.223 408.395 115.862 405.377 120.051C402.36 124.239 378.064 137.181 378.064 137.181L373.598 119.574Z" fill="white"/>
<path d="M378.024 138.154C377.886 138.173 377.745 138.173 377.607 138.154C377.471 138.088 377.352 137.993 377.256 137.877C377.16 137.76 377.09 137.625 377.051 137.479L372.644 119.892C372.59 119.685 372.605 119.466 372.688 119.269C372.77 119.071 372.915 118.907 373.101 118.8L383.919 112.627C384.594 110.642 387.373 102.384 390.371 100.002C393.368 97.6202 396.941 99.5059 398.43 100.419C401.725 97.6996 410.121 91.0697 412.9 91.3674C413.299 91.3865 413.683 91.5255 414.002 91.7664C414.321 92.0072 414.559 92.3386 414.687 92.7172C415.441 95.1191 411.253 99.4861 409.744 100.836L404.345 105.56C405.556 108.18 409.049 116.676 406.131 120.726C403.213 124.775 380.981 136.804 378.48 138.134C378.332 138.179 378.175 138.186 378.024 138.154ZM374.749 120.071L378.719 135.692C386.083 131.722 402.32 122.572 404.524 119.455C406.727 116.339 403.61 108.458 402.241 105.56C402.146 105.363 402.119 105.14 402.161 104.925C402.204 104.71 402.316 104.515 402.479 104.369L408.434 99.1685C411.114 96.8063 413 93.8288 412.801 93.2135C411.273 93.0745 404.524 97.8584 399.144 102.344C398.969 102.483 398.752 102.558 398.529 102.558C398.306 102.558 398.089 102.483 397.914 102.344C397.914 102.344 394.082 99.5059 391.621 101.451C389.16 103.397 386.559 110.741 385.666 113.361C385.585 113.6 385.424 113.803 385.21 113.937L374.749 120.071Z" fill="#231F20"/>
<path d="M238.479 184.96C247.213 189.843 373.181 116.299 373.181 116.299L391.939 135.712L264.403 228.094L238.479 184.96Z" fill="#0D9488"/>
<path d="M280.917 183.729C280.917 183.729 205.984 183.729 186.67 199.113C172.358 210.507 169.658 289.947 169.658 289.947L312.737 278.791C312.737 278.791 320.955 195.044 280.917 183.729Z" fill="#0D9488"/>
<path d="M291.796 230.119C291.554 230.119 291.322 230.023 291.15 229.851C290.979 229.68 290.883 229.448 290.883 229.206V190.24C290.883 189.998 290.979 189.766 291.15 189.595C291.322 189.423 291.554 189.327 291.796 189.327C292.038 189.327 292.27 189.423 292.442 189.595C292.613 189.766 292.709 189.998 292.709 190.24V229.206C292.709 229.448 292.613 229.68 292.442 229.851C292.27 230.023 292.038 230.119 291.796 230.119Z" fill="#231F20"/>
<path d="M454.03 393.663C452.799 392.69 408.375 388.145 405.615 388.998C402.856 389.852 391.72 426.574 391.939 429.711C392.296 435.983 416.831 410.853 416.831 410.853L454.03 418.317" fill="white"/>
<path d="M392.733 431.676C392.536 431.717 392.333 431.717 392.137 431.676C391.774 431.538 391.463 431.29 391.249 430.965C391.035 430.641 390.929 430.258 390.946 429.869C390.807 427.527 401.486 389.356 405.337 388.185C408.235 387.291 452.977 391.678 454.645 393.028C454.849 393.192 454.981 393.43 455.01 393.69C455.04 393.95 454.966 394.212 454.804 394.417C454.654 394.607 454.441 394.736 454.203 394.78C453.966 394.824 453.72 394.78 453.513 394.656C450.397 393.484 408.414 389.435 405.873 390.09C403.491 391.916 392.693 426.713 392.891 429.79C394.876 430.405 406.508 420.083 416.076 410.297C416.192 410.177 416.336 410.087 416.496 410.039C416.656 409.99 416.826 409.983 416.989 410.02L454.168 417.424C454.427 417.476 454.656 417.629 454.804 417.847C454.952 418.066 455.009 418.334 454.962 418.595C454.936 418.722 454.885 418.844 454.812 418.952C454.739 419.06 454.646 419.152 454.537 419.224C454.428 419.296 454.306 419.346 454.179 419.371C454.051 419.396 453.919 419.395 453.791 419.369L417.128 412.064C410.895 418.317 397.278 431.676 392.733 431.676Z" fill="#231F20"/>
<path d="M618.605 482.075C618.605 483.365 630.694 522.152 634.227 522.767C637.761 523.383 687.544 507.681 683.436 504.902C679.327 502.123 656.797 504.168 656.797 504.168L644.788 471.912" fill="white"/>
<path d="M634.248 523.76H634.049C629.365 522.926 617.633 482.531 617.614 482.075C617.592 481.812 617.677 481.551 617.848 481.35C618.019 481.149 618.263 481.024 618.527 481.003C618.79 480.982 619.051 481.066 619.252 481.238C619.453 481.409 619.577 481.653 619.599 481.916C620.154 485.43 631.508 520.207 634.506 521.755C635.836 521.934 646.257 519.135 659.14 514.867C673.035 510.242 680.677 506.927 682.404 505.438C678.692 503.87 665.373 504.366 656.897 505.121C656.681 505.143 656.465 505.092 656.281 504.977C656.098 504.862 655.958 504.689 655.884 504.486L643.974 472.269C643.911 472.145 643.874 472.008 643.867 471.869C643.86 471.729 643.882 471.59 643.932 471.459C643.983 471.329 644.06 471.211 644.16 471.112C644.259 471.014 644.378 470.938 644.508 470.888C644.639 470.839 644.779 470.818 644.918 470.827C645.058 470.835 645.194 470.873 645.318 470.938C645.442 471.003 645.55 471.093 645.637 471.202C645.724 471.312 645.786 471.439 645.82 471.574L657.552 503.076C661.978 502.719 680.121 501.389 684.091 504.049C684.382 504.227 684.598 504.503 684.7 504.828C684.802 505.153 684.783 505.504 684.647 505.816C682.602 510.718 638.476 523.76 634.248 523.76Z" fill="#231F20"/>
<path d="M566.221 296.656C566.221 296.656 546.61 443.764 526.521 439.278C506.433 434.792 426.061 417.701 426.061 417.701L433.326 385.941C433.326 385.941 490.513 392.016 498.136 392.571C505.758 393.127 500.399 289.967 500.399 289.967L566.221 296.656Z" fill="#231F20"/>
<path d="M527.395 440.37C527.015 440.37 526.636 440.33 526.264 440.251C506.414 435.844 426.617 418.833 425.823 418.674C425.563 418.616 425.335 418.46 425.188 418.237C425.044 418.014 424.994 417.743 425.049 417.483L432.314 385.723C432.374 385.489 432.514 385.283 432.71 385.142C432.905 385 433.145 384.932 433.386 384.949C433.961 384.949 490.653 391.043 498.176 391.579C502.146 389.594 501.888 338.401 499.387 290.006C499.375 289.866 499.396 289.725 499.448 289.594C499.499 289.464 499.58 289.346 499.685 289.252C499.789 289.15 499.914 289.073 500.051 289.025C500.188 288.977 500.334 288.96 500.479 288.974L566.321 295.683C566.457 295.694 566.589 295.733 566.709 295.798C566.828 295.863 566.933 295.953 567.016 296.061C567.097 296.163 567.156 296.281 567.19 296.408C567.224 296.534 567.232 296.666 567.215 296.795C566.52 302.075 549.786 426.019 530.968 439.159C529.929 439.918 528.682 440.34 527.395 440.37ZM427.212 416.947C436.482 418.932 508.022 434.157 526.701 438.326C527.251 438.418 527.815 438.393 528.356 438.253C528.896 438.113 529.401 437.86 529.837 437.512C547.067 425.463 563.443 309.658 565.11 297.53L501.412 291.058C502.126 305.132 505.957 386.676 499.566 392.929C499.368 393.137 499.127 393.3 498.859 393.407C498.592 393.513 498.305 393.56 498.017 393.544C490.991 393.028 441.306 387.768 434.061 386.993L427.212 416.947Z" fill="#231F20"/>
<path d="M548.356 308.189L617.355 503.374L656.142 482.571L596.691 296.656L548.356 308.189Z" fill="#231F20"/>
<path d="M617.338 504.367C617.22 504.389 617.098 504.389 616.98 504.367C616.843 504.317 616.719 504.238 616.616 504.135C616.513 504.032 616.434 503.908 616.385 503.771L547.406 308.586C547.352 308.457 547.324 308.319 547.324 308.179C547.324 308.039 547.352 307.901 547.406 307.772C547.553 307.529 547.787 307.352 548.061 307.276L596.376 295.743C596.621 295.682 596.88 295.718 597.098 295.844C597.316 295.97 597.478 296.176 597.547 296.418L657.097 482.333C657.166 482.553 657.157 482.791 657.07 483.004C656.983 483.218 656.824 483.395 656.621 483.504L617.814 504.307C617.663 504.369 617.499 504.39 617.338 504.367ZM549.649 308.904L617.874 501.965L654.934 482.115L596.019 297.827L549.649 308.904Z" fill="#231F20"/>
<path d="M605.07 218.983L629.227 211.043C628.116 209.415 615.928 171.978 601.437 164.852C588.793 156.475 565.429 158.063 538.989 159.909C530.506 160.327 522.141 162.069 514.196 165.07C484.421 176.98 480.134 216.184 480.134 216.184L507.626 225.772C507.626 225.772 503.18 279.109 498.991 306.998C498.991 306.998 532.498 319.702 607.392 307.296C607.412 307.157 605.209 226.863 605.07 218.983Z" fill="#0D9488"/>
<path d="M573.687 174.976L546.869 236.173L540.299 177.139L573.687 174.976Z" fill="#231F20"/>
<path d="M546.869 237.166H546.73C546.515 237.132 546.316 237.028 546.165 236.87C546.015 236.712 545.92 236.509 545.897 236.292L539.326 177.239C539.306 176.975 539.384 176.714 539.545 176.504C539.63 176.401 539.736 176.316 539.855 176.254C539.975 176.193 540.106 176.156 540.239 176.147L573.667 173.983C573.835 173.976 574.003 174.01 574.155 174.083C574.308 174.155 574.44 174.264 574.54 174.4C574.639 174.54 574.701 174.703 574.718 174.873C574.735 175.044 574.708 175.216 574.639 175.373L547.862 236.57C547.777 236.759 547.637 236.917 547.459 237.024C547.282 237.13 547.076 237.18 546.869 237.166ZM541.411 178.132L547.366 232.481L572.138 176.147L541.411 178.132Z" fill="#231F20"/>
<path d="M587.7 97.9774C584.373 94.1957 580.012 91.4702 575.155 90.1369C570.298 88.8036 565.157 88.9209 560.366 90.4741C551.87 93.2134 544.129 97.9576 535.613 100.677C527.098 103.396 517.054 103.754 510.007 98.2752C510.05 100.323 510.531 102.337 511.417 104.184C512.303 106.031 513.573 107.667 515.142 108.983C516.712 110.298 518.544 111.263 520.517 111.813C522.49 112.363 524.558 112.485 526.582 112.17C526.264 114.155 523.564 114.453 521.639 114.036C519.714 113.619 517.252 113.143 516.061 114.731C515.747 115.26 515.561 115.854 515.516 116.467C515.471 117.08 515.57 117.695 515.803 118.264C517.252 123.048 521.619 126.204 525.728 129.102C531.683 133.211 537.638 134.065 543.712 136.903C550.144 139.94 554.947 144.149 562.331 145.181C569.047 146.085 575.856 144.411 581.387 140.496C584.861 138.035 591.928 134.68 590.538 129.4C589.863 126.899 594.27 122.135 594.508 118.463C594.853 114.763 594.427 111.032 593.255 107.505C592.083 103.979 590.191 100.735 587.7 97.9774Z" fill="white"/>
<path d="M565.725 146.372C564.516 146.375 563.309 146.289 562.113 146.114C557.36 145.233 552.831 143.411 548.793 140.754C547.027 139.722 545.18 138.769 543.195 137.737C541.011 136.741 538.771 135.873 536.486 135.137C532.451 133.926 528.608 132.148 525.072 129.857C520.487 126.681 516.259 123.425 514.77 118.502C514.486 117.784 514.376 117.008 514.448 116.239C514.521 115.47 514.774 114.729 515.187 114.076C515.759 113.427 516.499 112.948 517.326 112.693C518.152 112.437 519.033 112.414 519.872 112.627C517.913 111.983 516.094 110.972 514.512 109.649C512.789 108.271 511.4 106.522 510.448 104.532C509.496 102.542 509.006 100.362 509.014 98.1561C509.015 97.973 509.067 97.7938 509.166 97.6393C509.264 97.4848 509.404 97.3612 509.57 97.2827C509.736 97.2074 509.92 97.1788 510.102 97.1997C510.284 97.2207 510.457 97.2905 510.602 97.4018C518.959 103.893 530.67 101.134 535.315 99.6448C539.52 98.2716 543.637 96.6408 547.642 94.7617C551.676 92.8037 555.826 91.0934 560.068 89.6404C565.037 88.0227 570.372 87.8956 575.413 89.2749C580.453 90.6542 584.98 93.4794 588.434 97.4018C591.012 100.252 592.971 103.605 594.188 107.251C595.404 110.896 595.851 114.755 595.5 118.582C595.112 120.7 594.317 122.722 593.158 124.537C592.225 126.244 591.173 128.189 591.431 129.122C592.781 134.243 587.58 137.598 583.789 140.04C583.114 140.476 582.459 140.893 581.903 141.29C577.157 144.599 571.511 146.372 565.725 146.372ZM518.72 114.612C518.377 114.573 518.029 114.616 517.705 114.736C517.38 114.857 517.089 115.052 516.855 115.306C516.653 115.718 516.54 116.168 516.523 116.626C516.505 117.084 516.585 117.541 516.755 117.966C518.046 122.274 521.996 125.291 526.283 128.269C529.669 130.459 533.353 132.151 537.221 133.291C539.568 134.071 541.874 134.972 544.128 135.99C546.113 136.943 548.098 137.975 549.865 139.067C553.681 141.601 557.968 143.343 562.47 144.188C568.932 145.03 575.475 143.423 580.811 139.682C581.387 139.265 582.062 138.829 582.796 138.372C586.27 136.129 590.577 133.35 589.585 129.638C589.148 127.931 590.22 125.926 591.57 123.683C592.53 122.04 593.189 120.238 593.515 118.363C593.837 114.816 593.422 111.241 592.294 107.862C591.167 104.483 589.352 101.375 586.965 98.7317C583.765 95.0972 579.572 92.4784 574.902 91.198C570.232 89.9177 565.289 90.0317 560.683 91.5262C556.513 92.9512 552.436 94.6351 548.476 96.5681C544.398 98.5311 540.209 100.254 535.93 101.729C526.363 104.786 517.45 104.25 511.118 100.34C511.657 103.465 513.315 106.287 515.783 108.28C517.211 109.543 518.906 110.467 520.741 110.983C522.577 111.498 524.506 111.592 526.383 111.257C526.538 111.227 526.699 111.235 526.851 111.28C527.003 111.325 527.142 111.406 527.256 111.515C527.379 111.621 527.471 111.758 527.523 111.911C527.576 112.065 527.586 112.23 527.554 112.389C527.486 112.792 527.334 113.178 527.108 113.52C526.883 113.861 526.588 114.152 526.244 114.374C524.777 115.197 523.05 115.424 521.42 115.009C520.535 114.791 519.631 114.658 518.72 114.612Z" fill="#231F20"/>
<path d="M545.121 158.282L540.317 177.139C540.317 177.139 545.657 189.446 558.401 187.064C571.144 184.682 573.685 175.154 573.705 175.154L575.849 154.848L577.179 142.362C577.513 141.08 577.667 139.757 577.635 138.432C576.841 135.593 573.288 134.045 572.256 131.107C570.191 125.222 570.468 118.769 573.03 113.083C567.71 117.371 561.597 121.738 554.768 121.281C556.146 119.837 557.389 118.269 558.48 116.597L545.121 121.361C543.386 121.932 541.607 122.357 539.801 122.631C537.816 123.008 538.59 121.758 537.082 124.179C533.35 130.134 532.834 140.417 533.588 147.265C534.66 156.991 545.121 158.282 545.121 158.282Z" fill="white"/>
<path d="M555.126 188.295C544.228 188.295 539.444 177.635 539.404 177.536C539.325 177.325 539.325 177.092 539.404 176.881L543.95 159.016C541.112 158.321 533.588 155.701 532.655 147.106C531.881 140.139 532.397 129.737 536.308 123.385L536.407 123.207C537.34 121.718 537.638 121.222 538.749 121.4C539.056 121.475 539.376 121.475 539.682 121.4C541.434 121.134 543.16 120.722 544.843 120.17L558.202 115.386C558.4 115.318 558.613 115.314 558.813 115.375C559.012 115.436 559.188 115.557 559.314 115.723C559.431 115.893 559.494 116.093 559.494 116.299C559.494 116.505 559.431 116.705 559.314 116.875C558.598 117.962 557.823 119.009 556.992 120.011C562.669 119.495 567.869 115.684 572.355 112.071C572.531 111.933 572.747 111.857 572.971 111.857C573.194 111.857 573.411 111.933 573.586 112.071C573.768 112.203 573.898 112.394 573.952 112.612C574.007 112.83 573.983 113.06 573.884 113.262C571.434 118.725 571.171 124.92 573.149 130.571C573.717 131.871 574.572 133.025 575.651 133.946C576.963 135.047 577.969 136.469 578.568 138.074C578.718 139.137 578.644 140.219 578.35 141.25C578.35 141.647 578.211 142.005 578.171 142.283L574.698 175.075C574.698 175.075 572.117 185.337 558.619 187.957C557.468 188.182 556.298 188.295 555.126 188.295ZM541.35 177.04C542.263 178.886 547.305 188.116 558.202 186.012C570.212 183.69 572.713 174.817 572.733 174.718L576.186 142.084C576.186 141.747 576.306 141.33 576.385 140.873C576.592 140.138 576.679 139.374 576.643 138.61C576.124 137.338 575.291 136.218 574.221 135.355C572.953 134.268 571.942 132.912 571.264 131.385C569.53 126.404 569.385 121.009 570.847 115.942C566.123 119.495 560.703 122.611 554.669 122.214C554.48 122.203 554.299 122.137 554.148 122.024C553.996 121.911 553.881 121.756 553.816 121.579C553.747 121.403 553.729 121.211 553.764 121.025C553.799 120.839 553.886 120.666 554.014 120.527C554.629 119.892 555.225 119.237 555.781 118.542L545.439 122.234C543.707 122.821 541.927 123.253 540.119 123.524C539.606 123.606 539.084 123.606 538.571 123.524L538.035 124.378L537.936 124.537C534.521 130.095 533.787 139.821 534.561 147.007C535.534 155.92 544.843 157.269 545.24 157.309C545.38 157.329 545.514 157.379 545.634 157.454C545.754 157.529 545.856 157.629 545.935 157.746C546.015 157.86 546.069 157.99 546.093 158.127C546.117 158.265 546.11 158.405 546.074 158.54L541.35 177.04Z" fill="#231F20"/>
<path d="M542.581 168.207C544.73 168.73 546.973 168.722 549.118 168.182C551.263 167.643 553.243 166.588 554.888 165.11C560.684 160.009 560.466 155.503 560.466 155.503C555.897 158.364 550.404 159.359 545.122 158.282L542.581 168.207Z" fill="#231F20"/>
<path d="M545.875 169.616C544.702 169.633 543.533 169.486 542.401 169.179C542.157 169.105 541.951 168.941 541.825 168.719C541.7 168.497 541.664 168.236 541.726 167.988L544.247 158.063C544.279 157.937 544.336 157.818 544.415 157.713C544.493 157.609 544.592 157.521 544.704 157.455C544.817 157.388 544.941 157.345 545.07 157.327C545.2 157.308 545.331 157.316 545.458 157.349C550.475 158.317 555.672 157.353 560.008 154.649C560.152 154.549 560.321 154.489 560.496 154.477C560.671 154.465 560.847 154.5 561.003 154.579C561.16 154.659 561.293 154.779 561.386 154.928C561.48 155.076 561.532 155.248 561.536 155.423C561.536 155.622 561.715 160.465 555.581 165.825C552.925 168.244 549.467 169.594 545.875 169.616ZM543.89 167.492C545.751 167.782 547.653 167.655 549.459 167.119C551.265 166.584 552.929 165.653 554.331 164.396C556.588 162.572 558.286 160.151 559.234 157.408C555.148 159.539 550.48 160.284 545.934 159.532L543.89 167.492Z" fill="#231F20"/>
<path d="M553.022 128.626C553.022 128.626 545.638 137.916 547.067 139.762C548.497 141.608 553.022 140.814 553.022 140.814" fill="white"/>
<path d="M550.898 141.985C550.06 142.065 549.215 141.967 548.418 141.697C547.62 141.426 546.89 140.99 546.273 140.417C544.705 138.432 548.655 132.477 552.228 128.05C552.308 127.947 552.407 127.86 552.521 127.796C552.634 127.732 552.76 127.691 552.889 127.676C553.019 127.661 553.15 127.673 553.275 127.71C553.401 127.747 553.517 127.808 553.618 127.891C553.822 128.055 553.954 128.293 553.984 128.553C554.013 128.814 553.939 129.075 553.777 129.281C550.343 133.608 547.564 138.273 547.822 139.206C548.576 140.179 551.474 140.059 552.725 139.841C552.985 139.8 553.25 139.863 553.465 140.015C553.68 140.167 553.827 140.396 553.876 140.655C553.899 140.784 553.896 140.916 553.867 141.044C553.838 141.172 553.785 141.293 553.709 141.4C553.633 141.507 553.537 141.598 553.426 141.668C553.315 141.738 553.191 141.785 553.062 141.806C552.346 141.914 551.623 141.974 550.898 141.985Z" fill="#231F20"/>
<path d="M561.002 130.88C561.901 130.876 562.626 129.842 562.621 128.571C562.615 127.299 561.882 126.271 560.983 126.275C560.084 126.279 559.36 127.313 559.365 128.584C559.37 129.856 560.104 130.884 561.002 130.88Z" fill="#231F20"/>
<path d="M547.153 127.889C547.523 126.673 547.125 125.474 546.265 125.213C545.404 124.952 544.408 125.727 544.038 126.944C543.669 128.16 544.066 129.359 544.927 129.62C545.787 129.881 546.784 129.106 547.153 127.889Z" fill="#231F20"/>
<path d="M551.613 149.349C546.683 149.132 541.927 147.468 537.936 144.565C537.824 144.489 537.729 144.391 537.656 144.277C537.583 144.163 537.535 144.035 537.513 143.901C537.492 143.767 537.498 143.63 537.532 143.499C537.565 143.368 537.625 143.245 537.708 143.137C537.791 143.03 537.895 142.941 538.013 142.875C538.132 142.81 538.262 142.769 538.397 142.756C538.532 142.743 538.668 142.758 538.797 142.799C538.926 142.841 539.045 142.908 539.147 142.997C539.604 143.355 550.442 151.572 559.811 144.625C559.914 144.53 560.035 144.459 560.167 144.414C560.299 144.37 560.439 144.353 560.578 144.367C560.717 144.38 560.852 144.422 560.973 144.491C561.094 144.56 561.2 144.653 561.283 144.766C561.365 144.878 561.424 145.006 561.453 145.143C561.483 145.279 561.484 145.42 561.456 145.556C561.427 145.693 561.371 145.822 561.289 145.935C561.207 146.048 561.103 146.143 560.982 146.213C558.288 148.257 554.996 149.359 551.613 149.349Z" fill="#231F20"/>
<path d="M572.158 136.725C572.913 135.986 573.807 135.406 574.789 135.017C575.77 134.629 576.82 134.44 577.875 134.462C578.934 134.51 579.957 134.861 580.823 135.473C581.689 136.085 582.36 136.933 582.758 137.916C583.037 139.076 583.015 140.288 582.696 141.437C582.376 142.587 581.769 143.636 580.932 144.486C579.736 145.854 578.266 146.956 576.619 147.722C574.971 148.487 573.181 148.9 571.364 148.932" fill="white"/>
<path d="M571.364 149.965C571.101 149.965 570.848 149.86 570.662 149.674C570.476 149.488 570.371 149.235 570.371 148.972C570.369 148.843 570.392 148.714 570.44 148.594C570.487 148.473 570.558 148.364 570.649 148.271C570.74 148.179 570.848 148.106 570.967 148.055C571.086 148.005 571.215 147.98 571.344 147.98C573.023 147.956 574.678 147.578 576.2 146.87C577.722 146.161 579.078 145.139 580.177 143.871C580.898 143.15 581.425 142.259 581.709 141.281C581.994 140.302 582.027 139.268 581.805 138.273C581.477 137.48 580.929 136.797 580.225 136.304C579.522 135.812 578.693 135.531 577.835 135.494C576.913 135.471 575.997 135.636 575.141 135.977C574.284 136.318 573.506 136.829 572.853 137.479C572.664 137.662 572.411 137.764 572.148 137.764C571.885 137.764 571.632 137.662 571.443 137.479C571.35 137.387 571.276 137.277 571.226 137.156C571.176 137.035 571.15 136.905 571.15 136.774C571.15 136.643 571.176 136.514 571.226 136.393C571.276 136.272 571.35 136.162 571.443 136.07C572.3 135.243 573.315 134.597 574.426 134.171C575.538 133.745 576.724 133.547 577.914 133.588C579.163 133.654 580.367 134.076 581.383 134.804C582.4 135.532 583.187 136.536 583.651 137.697C584.001 139.022 584.002 140.415 583.654 141.74C583.306 143.065 582.621 144.278 581.666 145.26C580.376 146.735 578.79 147.923 577.012 148.747C575.234 149.571 573.303 150.013 571.344 150.044L571.364 149.965Z" fill="#231F20"/>
<path d="M309.9 331.533C309.9 331.533 332.43 424.034 317.562 430.465C302.694 436.896 218.094 449.263 218.094 449.263L214.263 422.584C214.263 422.584 279.351 408.332 282.904 405.097C286.457 401.861 261.069 323.255 260.473 322.62C259.878 321.985 309.9 331.533 309.9 331.533Z" fill="#231F20"/>
<path d="M218.093 450.255C217.886 450.25 217.685 450.181 217.518 450.057C217.411 449.979 217.322 449.882 217.254 449.769C217.185 449.657 217.14 449.532 217.121 449.402L213.27 422.723C213.234 422.475 213.294 422.221 213.438 422.015C213.582 421.809 213.798 421.665 214.044 421.612C239.115 416.133 279.787 406.585 282.229 404.362C284.214 400.055 261.823 327.721 259.639 323.136C259.547 322.984 259.497 322.808 259.497 322.63C259.497 322.451 259.547 322.276 259.639 322.124C260.096 321.25 260.215 321.012 310.118 330.56C310.305 330.594 310.477 330.681 310.615 330.811C310.752 330.942 310.849 331.11 310.892 331.294C313.234 340.842 333.204 424.788 317.998 431.378C303.171 437.809 221.746 449.739 218.292 450.236L218.093 450.255ZM215.374 423.359L218.947 448.092C228.435 446.682 303.448 435.467 317.165 429.512C320.38 428.123 324.787 419.686 318.336 378.716C314.942 357.258 309.999 336.197 309.086 332.346C292.313 329.151 268.235 324.645 262.002 323.712C266.329 334.986 284.452 394.04 284.234 403.707C284.271 404.082 284.23 404.461 284.114 404.82C283.997 405.178 283.809 405.509 283.559 405.791C280.045 409.047 225.239 421.195 215.374 423.359Z" fill="#231F20"/>
<path d="M205.985 328.357L276.433 494.759L306.784 488.903L260.672 313.251L205.985 328.357Z" fill="#231F20"/>
<path d="M276.432 495.732C276.239 495.73 276.05 495.673 275.889 495.567C275.727 495.462 275.599 495.312 275.519 495.136L205.071 328.714C205.019 328.583 204.994 328.442 204.999 328.301C205.004 328.16 205.038 328.021 205.1 327.894C205.161 327.767 205.249 327.654 205.357 327.563C205.465 327.471 205.591 327.404 205.726 327.364L260.393 312.278C260.515 312.225 260.647 312.198 260.78 312.198C260.914 312.198 261.045 312.225 261.167 312.278C261.389 312.412 261.552 312.625 261.624 312.874L307.676 488.665C307.716 488.795 307.726 488.932 307.706 489.066C307.685 489.2 307.634 489.328 307.557 489.439C307.486 489.557 307.391 489.659 307.278 489.738C307.165 489.817 307.037 489.87 306.902 489.896L276.631 495.732H276.432ZM207.354 328.992L277.028 493.608L305.552 488.109L259.897 314.462L207.354 328.992Z" fill="#231F20"/>
<path d="M230.877 110.185C225.804 106.611 219.719 104.759 213.516 104.902C207.313 105.045 201.319 107.175 196.417 110.979C192.692 113.894 189.863 117.799 188.255 122.247C186.647 126.695 186.325 131.506 187.326 136.129C188.602 140.668 191.279 144.688 194.976 147.615C198.673 150.542 203.199 152.225 207.91 152.426C217.021 152.883 226.609 145.081 231.452 137.935C237.308 129.301 241.238 117.331 230.877 110.185Z" fill="white"/>
<path d="M208.683 153.438H207.85C202.93 153.243 198.199 151.493 194.337 148.44C190.474 145.387 187.679 141.188 186.352 136.447C185.325 131.636 185.666 126.633 187.336 122.006C189.005 117.378 191.938 113.311 195.801 110.265C200.874 106.299 207.093 104.077 213.531 103.93C219.969 103.784 226.282 105.72 231.531 109.451C244.155 118.085 236.215 132.636 232.245 138.432C227.342 145.796 217.933 153.438 208.683 153.438ZM213.983 105.798C207.822 105.809 201.846 107.908 197.031 111.753C193.467 114.561 190.759 118.309 189.212 122.574C187.665 126.839 187.342 131.452 188.277 135.891C189.486 140.232 192.043 144.077 195.578 146.87C199.114 149.664 203.446 151.262 207.949 151.434C216.286 151.811 225.695 144.685 230.637 137.38C234.27 132 241.515 118.701 230.32 111.019C225.52 107.691 219.824 105.898 213.983 105.878V105.798Z" fill="#231F20"/>
<path d="M212.556 125.311C209.271 128.196 206.78 131.874 205.32 135.996C203.861 140.117 203.482 144.544 204.219 148.853C204.493 151.242 205.605 153.457 207.355 155.106C210.869 157.964 216.189 156.297 219.96 153.796C226.051 149.529 231.072 143.911 234.629 137.38C237.269 132.775 241.259 122.393 234.113 119.832C226.967 117.272 217.797 120.785 212.556 125.311Z" fill="#231F20"/>
<path d="M211.839 157.587C209.985 157.634 208.173 157.03 206.718 155.88C204.76 154.091 203.524 151.649 203.244 149.012C202.468 144.533 202.856 139.929 204.372 135.643C205.887 131.357 208.479 127.532 211.898 124.537C217.357 119.832 227.123 116.259 234.448 118.88C235.397 119.185 236.264 119.701 236.986 120.388C237.707 121.076 238.265 121.917 238.617 122.85C240.602 128.487 236.036 136.864 235.48 137.797C231.86 144.467 226.736 150.203 220.513 154.55C217.966 156.361 214.959 157.414 211.839 157.587ZM229.029 120.011C223.209 120.206 217.621 122.336 213.149 126.065C210.004 128.842 207.624 132.378 206.234 136.335C204.844 140.293 204.491 144.541 205.209 148.674C205.435 150.83 206.42 152.835 207.988 154.332C211.104 156.853 215.928 155.265 219.441 152.962C225.409 148.79 230.323 143.285 233.793 136.883C235.56 133.787 238.2 127.514 236.771 123.624C236.531 122.951 236.137 122.343 235.62 121.85C235.102 121.357 234.477 120.992 233.793 120.785C232.262 120.251 230.65 119.989 229.029 120.011Z" fill="#231F20"/>
<path d="M249.277 181.645C247.712 183.161 246.062 184.586 244.334 185.913C240.912 187.917 237.038 189.02 233.074 189.121C229.11 189.222 225.185 188.316 221.666 186.489C204.892 177.854 205.289 158.242 208.763 142.283C210.172 135.792 214.917 122.254 223.67 129.023C221.11 127.038 231.61 120.467 233.218 119.852C244.374 115.306 256.224 121.837 262.755 130.909C266.618 136.095 269.893 141.694 272.521 147.602C275.102 154.113 272.283 163.046 268.551 168.584C265.668 172.876 261.676 176.305 256.999 178.509C254.835 179.521 252.056 179.779 250.051 181.03L249.277 181.645Z" fill="white"/>
<path d="M232.663 190.042C228.686 190.046 224.766 189.1 221.229 187.283C207.334 180.137 202.808 164.912 207.791 142.005C208.466 138.908 211.106 128.626 216.961 126.482C217.879 126.164 218.855 126.049 219.821 126.145C220.788 126.241 221.722 126.546 222.559 127.038C224.167 123.624 232.266 119.098 232.841 118.86C244.89 113.957 257.217 121.321 263.569 130.254C267.507 135.49 270.836 141.157 273.494 147.146C276.214 153.974 273.335 163.284 269.524 168.981C266.561 173.426 262.444 176.981 257.614 179.263C256.575 179.718 255.5 180.084 254.398 180.355C253.142 180.658 251.928 181.118 250.786 181.725C250.528 181.903 250.27 182.082 250.031 182.28C249.335 182.801 248.672 183.365 248.046 183.968C247.097 184.956 246.046 185.841 244.91 186.608C241.226 188.869 236.985 190.058 232.663 190.042ZM219.105 128.09C218.604 128.087 218.106 128.174 217.636 128.348C213.666 129.777 210.947 136.824 209.696 142.422C204.932 164.257 209.101 178.846 222.083 185.516C225.449 187.267 229.204 188.138 232.997 188.048C236.791 187.958 240.5 186.909 243.779 185C244.791 184.304 245.735 183.513 246.597 182.638C247.226 181.988 247.889 181.372 248.582 180.792C248.881 180.556 249.192 180.337 249.515 180.137C250.804 179.398 252.195 178.856 253.644 178.529C254.643 178.279 255.619 177.947 256.562 177.536C261.081 175.41 264.937 172.097 267.718 167.949C271.251 162.609 273.951 154.054 271.509 147.88C268.968 142.078 265.786 136.578 262.021 131.484C256.066 123.167 244.692 116.279 233.655 120.785C231.67 121.579 224.226 126.74 224.326 128.229C224.427 128.307 224.513 128.405 224.577 128.516C224.641 128.627 224.682 128.75 224.699 128.877C224.715 129.004 224.707 129.133 224.673 129.257C224.64 129.381 224.583 129.497 224.504 129.599C224.426 129.7 224.329 129.785 224.218 129.849C224.106 129.913 223.984 129.955 223.857 129.972C223.729 129.988 223.6 129.979 223.476 129.946C223.352 129.913 223.236 129.855 223.135 129.777C222.008 128.807 220.59 128.241 219.105 128.169V128.09Z" fill="#231F20"/>
<path d="M261.762 144.029C261.762 144.029 268.333 158.341 266.745 169.834C266.379 173.02 265.094 176.03 263.046 178.498C260.998 180.965 258.276 182.783 255.212 183.729L256.939 203.579C256.939 203.579 257.931 213.743 245.327 213.266C241.669 213.124 238.108 212.05 234.982 210.147C231.856 208.243 229.267 205.573 227.462 202.388L222.916 165.984C222.916 165.984 236.335 156.634 233.953 143.613C233.953 143.613 251.44 150.342 261.762 144.029Z" fill="white"/>
<path d="M246.141 214.279H245.247C241.419 214.136 237.692 213.011 234.425 211.013C231.157 209.014 228.458 206.208 226.588 202.865C226.58 202.759 226.58 202.653 226.588 202.547L222.003 166.103C221.974 165.923 221.998 165.74 222.072 165.574C222.146 165.408 222.267 165.268 222.42 165.17C222.539 165.17 235.263 156.019 233.04 143.791C233.013 143.617 233.03 143.439 233.089 143.273C233.148 143.106 233.247 142.957 233.377 142.838C233.516 142.731 233.68 142.661 233.853 142.633C234.027 142.605 234.204 142.621 234.37 142.68C234.548 142.68 251.54 149.091 261.306 143.176C261.432 143.122 261.567 143.095 261.703 143.095C261.839 143.095 261.975 143.122 262.1 143.176C262.235 143.215 262.36 143.284 262.467 143.376C262.573 143.469 262.658 143.583 262.715 143.712C262.993 144.307 269.405 158.421 267.797 170.033C267.4 173.269 266.12 176.334 264.096 178.89C262.072 181.446 259.383 183.395 256.324 184.523L257.991 203.619C258.075 204.978 257.89 206.34 257.447 207.628C257.005 208.915 256.313 210.103 255.411 211.122C254.172 212.267 252.707 213.139 251.11 213.683C249.513 214.227 247.821 214.429 246.141 214.279ZM228.434 202.111C230.156 205.101 232.609 207.605 235.564 209.386C238.519 211.167 241.879 212.168 245.327 212.294C246.851 212.497 248.402 212.368 249.871 211.916C251.341 211.464 252.696 210.699 253.842 209.673C255.258 208.025 255.971 205.887 255.827 203.718L254.1 183.868C254.084 183.633 254.15 183.398 254.288 183.206C254.425 183.014 254.626 182.876 254.855 182.816C257.738 181.93 260.297 180.215 262.213 177.886C264.13 175.557 265.319 172.715 265.633 169.715C266.943 160.366 262.576 148.873 261.167 145.478C252.274 150.044 239.471 146.57 235.044 145.141C236.077 156.495 226.231 164.693 223.849 166.5L228.434 202.111Z" fill="#231F20"/>
<path d="M229.586 162.808C229.586 162.808 222.222 149.548 216.068 158.838C209.915 168.127 220.832 176.703 226.906 175.432" fill="white"/>
<path d="M225.557 176.583C223.502 176.441 221.508 175.83 219.725 174.798C217.943 173.766 216.421 172.34 215.275 170.628C213.983 168.825 213.289 166.663 213.289 164.445C213.289 162.227 213.983 160.065 215.275 158.262C215.842 157.162 216.693 156.233 217.74 155.573C218.788 154.914 219.993 154.547 221.23 154.51C226.252 154.709 230.341 161.974 230.52 162.291C230.582 162.406 230.622 162.532 230.635 162.662C230.649 162.792 230.638 162.923 230.601 163.049C230.564 163.174 230.503 163.291 230.421 163.392C230.339 163.494 230.237 163.579 230.123 163.641C230.008 163.704 229.882 163.743 229.752 163.757C229.622 163.771 229.491 163.759 229.365 163.722C229.24 163.685 229.123 163.624 229.022 163.542C228.92 163.46 228.835 163.359 228.773 163.244C227.76 161.418 224.386 156.614 221.15 156.495C220.264 156.565 219.411 156.866 218.676 157.367C217.941 157.869 217.35 158.553 216.962 159.354C215.889 160.827 215.311 162.603 215.311 164.425C215.311 166.248 215.889 168.024 216.962 169.497C219.324 172.911 223.691 175.134 226.748 174.46C227.011 174.402 227.287 174.451 227.514 174.596C227.741 174.741 227.901 174.97 227.959 175.234C228.017 175.497 227.968 175.772 227.823 175.999C227.677 176.226 227.448 176.387 227.185 176.445C226.65 176.555 226.103 176.602 225.557 176.583Z" fill="#231F20"/>
<path d="M255.312 171.561C254.388 171.558 253.465 171.479 252.553 171.323C252.423 171.301 252.298 171.253 252.186 171.183C252.074 171.113 251.977 171.021 251.901 170.913C251.824 170.805 251.77 170.684 251.74 170.555C251.711 170.426 251.707 170.292 251.729 170.162C251.751 170.032 251.799 169.907 251.869 169.795C251.94 169.683 252.032 169.586 252.139 169.51C252.247 169.433 252.369 169.379 252.498 169.349C252.627 169.32 252.76 169.316 252.891 169.338C254.737 169.706 256.649 169.576 258.429 168.961C258.429 167.81 255.471 163.542 251.918 159.592C251.825 159.501 251.752 159.393 251.702 159.274C251.652 159.155 251.626 159.027 251.626 158.897C251.626 158.768 251.652 158.64 251.702 158.52C251.752 158.401 251.825 158.293 251.918 158.202C252.01 158.109 252.12 158.035 252.241 157.985C252.362 157.935 252.492 157.909 252.623 157.909C252.754 157.909 252.883 157.935 253.004 157.985C253.125 158.035 253.235 158.109 253.327 158.202C255.054 160.187 260.672 166.599 260.295 169.259C260.27 169.513 260.187 169.757 260.053 169.974C259.919 170.191 259.737 170.374 259.52 170.509C258.236 171.227 256.783 171.59 255.312 171.561Z" fill="#231F20"/>
<path d="M251.104 178.132C250.44 178.136 249.776 178.09 249.119 177.993C245.553 177.471 242.307 175.647 240.008 172.871C239.879 172.642 239.847 172.372 239.917 172.119C239.988 171.866 240.156 171.651 240.385 171.522C240.615 171.398 240.884 171.369 241.136 171.439C241.387 171.509 241.602 171.674 241.735 171.899C243.804 174.185 246.618 175.662 249.675 176.067C253.645 176.524 257.377 174.936 261.009 171.403C261.099 171.299 261.209 171.216 261.333 171.157C261.456 171.099 261.59 171.066 261.727 171.062C261.864 171.057 262 171.081 262.127 171.132C262.254 171.183 262.369 171.26 262.465 171.357C262.561 171.454 262.636 171.57 262.685 171.698C262.734 171.826 262.756 171.962 262.75 172.099C262.743 172.236 262.709 172.369 262.649 172.492C262.588 172.615 262.503 172.724 262.399 172.812C259.483 176.005 255.423 177.917 251.104 178.132Z" fill="#231F20"/>
<path d="M255.212 183.729C255.212 183.729 244.711 185.992 238.479 184.96C238.479 184.96 246.419 200.046 256.582 199.073L255.212 183.729Z" fill="#231F20"/>
<path d="M255.648 200.106C245.525 200.106 237.922 186.052 237.604 185.437C237.508 185.278 237.457 185.096 237.457 184.911C237.457 184.725 237.508 184.543 237.604 184.384C237.716 184.237 237.865 184.123 238.036 184.053C238.208 183.983 238.394 183.961 238.577 183.987C244.532 184.96 254.834 182.777 254.933 182.757C255.074 182.726 255.22 182.726 255.36 182.757C255.501 182.787 255.633 182.848 255.747 182.935C255.859 183.016 255.952 183.12 256.021 183.24C256.089 183.36 256.131 183.493 256.144 183.63L257.514 198.974C257.528 199.105 257.515 199.237 257.478 199.362C257.44 199.488 257.378 199.605 257.295 199.706C257.212 199.808 257.11 199.892 256.994 199.954C256.878 200.015 256.751 200.054 256.621 200.066L255.648 200.106ZM240.344 186.211C242.626 189.823 248.562 198.121 255.509 198.121L254.318 184.92C249.72 185.849 245.034 186.269 240.344 186.171V186.211Z" fill="#231F20"/>
<path d="M245.915 160.189C246.773 160.067 247.295 158.753 247.081 157.256C246.868 155.758 246 154.643 245.142 154.765C244.285 154.887 243.763 156.2 243.976 157.698C244.19 159.196 245.058 160.311 245.915 160.189Z" fill="#231F20"/>
<path d="M260.231 158.131C261.088 158.008 261.61 156.695 261.397 155.197C261.183 153.7 260.315 152.585 259.458 152.707C258.6 152.829 258.078 154.142 258.292 155.64C258.505 157.138 259.373 158.253 260.231 158.131Z" fill="#231F20"/>
<path d="M594.331 218.348L431.878 133.35C430.333 132.54 428.59 132.181 426.85 132.313C425.11 132.446 423.442 133.065 422.037 134.1C420.632 135.135 419.546 136.543 418.903 138.166C418.26 139.788 418.086 141.559 418.4 143.275L424.732 179.005L152.589 227.241C151.843 227.372 151.13 227.65 150.491 228.058C149.853 228.466 149.301 228.995 148.868 229.617C148.434 230.238 148.128 230.939 147.966 231.679C147.804 232.42 147.79 233.184 147.924 233.93L172.399 371.828C172.665 373.331 173.518 374.667 174.768 375.541C176.019 376.416 177.566 376.758 179.069 376.493L451.232 328.198L457.564 363.928C457.872 365.637 458.652 367.225 459.815 368.514C460.978 369.803 462.479 370.741 464.147 371.222C465.815 371.704 467.585 371.709 469.256 371.237C470.927 370.765 472.433 369.835 473.603 368.553L596.911 232.838C597.861 231.783 598.557 230.525 598.946 229.161C599.336 227.796 599.41 226.36 599.161 224.963C598.912 223.565 598.347 222.243 597.51 221.097C596.674 219.951 595.586 219.01 594.331 218.348Z" fill="white"/>
<path d="M178.055 377.585C176.676 377.576 175.333 377.147 174.205 376.354C173.476 375.85 172.855 375.206 172.378 374.46C171.9 373.713 171.577 372.88 171.426 372.007L146.891 234.089C146.737 233.216 146.756 232.32 146.948 231.455C147.14 230.589 147.501 229.769 148.009 229.043C148.518 228.317 149.165 227.698 149.913 227.222C150.661 226.745 151.496 226.421 152.37 226.268L423.58 178.132L417.427 143.374C417.099 141.482 417.306 139.536 418.025 137.756C418.745 135.975 419.947 134.431 421.498 133.298C423.048 132.165 424.884 131.488 426.799 131.342C428.713 131.197 430.631 131.59 432.334 132.477L594.806 217.494C596.201 218.223 597.409 219.262 598.339 220.531C599.269 221.801 599.895 223.266 600.169 224.816C600.444 226.365 600.359 227.957 599.921 229.468C599.483 230.979 598.704 232.37 597.645 233.533L474.416 369.248C473.119 370.666 471.451 371.694 469.601 372.214C467.75 372.735 465.791 372.727 463.945 372.192C462.099 371.657 460.439 370.616 459.154 369.188C457.868 367.759 457.008 365.999 456.67 364.106L450.497 329.349L179.246 377.465C178.854 377.544 178.455 377.584 178.055 377.585ZM427.53 133.251C425.772 133.265 424.062 133.835 422.647 134.879C421.381 135.785 420.4 137.035 419.82 138.48C419.24 139.925 419.084 141.506 419.372 143.037L425.724 178.767C425.764 179.027 425.702 179.293 425.55 179.508C425.398 179.722 425.169 179.87 424.91 179.918L152.846 228.213C151.601 228.449 150.497 229.161 149.769 230.198C149.02 231.206 148.699 232.469 148.876 233.712L173.351 371.61C173.574 372.857 174.282 373.964 175.32 374.69C176.358 375.416 177.642 375.7 178.889 375.48L451.033 327.185C451.29 327.144 451.553 327.204 451.767 327.352C451.982 327.499 452.131 327.724 452.184 327.979L458.516 363.709C458.784 365.241 459.477 366.666 460.516 367.823C461.555 368.979 462.898 369.821 464.392 370.251C465.886 370.682 467.471 370.684 468.966 370.257C470.461 369.83 471.806 368.992 472.848 367.838L596.156 232.124C597.007 231.183 597.631 230.06 597.981 228.84C598.331 227.621 598.398 226.338 598.176 225.088C597.953 223.839 597.448 222.658 596.699 221.634C595.95 220.61 594.977 219.771 593.853 219.182L431.401 134.224C430.21 133.587 428.881 133.253 427.53 133.251Z" fill="#231F20"/>
<path d="M424.236 167.254C422.052 166.519 419.829 165.864 417.606 165.269C416.226 164.782 414.731 164.726 413.318 165.11C411.333 165.884 410.321 168.246 409.607 170.331C408.554 173.527 407.463 176.941 408.376 180.256C409.706 184.98 414.748 187.58 419.472 188.871C421.785 189.604 424.231 189.821 426.638 189.506C440.672 186.965 433.565 170.39 424.236 167.254Z" fill="white"/>
<path d="M424.672 190.637C422.823 190.593 420.988 190.306 419.213 189.784C415.501 188.791 409.03 186.25 407.422 180.494C406.39 176.842 407.66 173.09 408.673 170.053C409.447 167.73 410.499 165.15 412.96 164.217C414.562 163.749 416.271 163.798 417.843 164.356C420.106 164.912 422.369 165.587 424.553 166.341C430.726 168.326 435.927 175.928 435.47 182.102C435.292 184.682 433.902 189.188 426.816 190.478C426.107 190.59 425.39 190.643 424.672 190.637ZM414.866 165.884C414.447 165.877 414.031 165.945 413.635 166.083C411.968 166.698 411.154 168.782 410.519 170.688C409.368 174.082 408.534 177.119 409.288 179.958C410.638 184.762 416.394 186.985 419.69 187.898C421.861 188.59 424.156 188.807 426.419 188.533C430.766 187.759 433.188 185.476 433.446 181.963C433.843 176.703 429.178 170.053 423.878 168.227C421.734 167.512 419.531 166.877 417.327 166.242C416.525 166.018 415.698 165.898 414.866 165.884Z" fill="#231F20"/>
<path d="M177.836 239.925C178.364 239.924 178.886 239.809 179.365 239.587C184.427 237.384 183.712 228.035 184.149 223.469C184.387 220.909 184.327 217.812 182.164 216.482C177.281 213.524 170.492 214.815 166.065 218.07C161.639 221.325 160.666 227.479 161.162 232.759C161.341 234.863 161.5 239.528 163.405 240.838C165.946 242.624 168.944 237.702 168.884 235.518V237.285C168.855 238.099 168.969 238.912 169.222 239.687C169.346 240.079 169.564 240.434 169.859 240.722C170.153 241.009 170.514 241.219 170.909 241.334C172.179 241.592 173.33 240.481 173.847 239.349C174.212 238.114 174.649 236.901 175.157 235.717C174.772 236.258 174.605 236.924 174.69 237.582C174.775 238.241 175.104 238.843 175.613 239.27C176.247 239.757 177.04 239.99 177.836 239.925Z" fill="white"/>
<path d="M171.308 242.366C171.11 242.386 170.91 242.386 170.712 242.366C170.151 242.222 169.635 241.94 169.212 241.544C168.789 241.149 168.472 240.653 168.29 240.103C168.29 240.103 168.29 239.965 168.29 239.885C167.776 240.679 167.1 241.356 166.305 241.87C165.766 242.202 165.137 242.359 164.504 242.32C163.872 242.281 163.267 242.048 162.772 241.652C160.688 240.203 160.37 236.213 160.172 233.573V232.858C159.715 227.876 160.172 221.127 165.492 217.276C169.799 214.08 177.024 212.214 182.682 215.628C185.441 217.296 185.421 220.948 185.183 223.568C185.183 224.402 185.064 225.375 185.004 226.427C184.806 231.508 184.508 238.456 179.804 240.52C179.179 240.798 178.502 240.94 177.819 240.937C176.773 240.979 175.746 240.648 174.92 240.004L174.682 239.667C174.426 240.386 173.975 241.019 173.379 241.496C172.782 241.973 172.065 242.274 171.308 242.366ZM169.839 235.498V237.245C169.816 237.957 169.91 238.668 170.117 239.349C170.185 239.584 170.309 239.799 170.478 239.975C170.648 240.152 170.857 240.284 171.089 240.361C171.764 240.5 172.538 239.726 172.896 238.893C173.087 238.428 173.246 237.95 173.372 237.463L173.67 236.471C173.778 235.938 174.016 235.44 174.365 235.022C174.528 234.847 174.749 234.737 174.988 234.712C175.226 234.688 175.465 234.75 175.661 234.888C175.857 235.026 175.996 235.23 176.054 235.462C176.111 235.695 176.082 235.94 175.972 236.153C175.83 236.414 175.71 236.686 175.615 236.967C175.595 237.065 175.595 237.167 175.615 237.265C175.651 237.724 175.864 238.152 176.211 238.456C176.652 238.812 177.214 238.983 177.779 238.932C178.174 238.924 178.564 238.844 178.93 238.694C182.503 237.126 182.761 230.893 182.9 226.328C182.9 225.236 182.9 224.223 183.059 223.37C183.377 220.075 182.88 218.169 181.53 217.415C176.866 214.596 170.454 216.045 166.524 218.943C162.058 222.258 161.601 228.273 161.998 232.838V233.573C162.157 235.419 162.455 239.27 163.765 240.183C163.948 240.311 164.166 240.38 164.39 240.38C164.614 240.38 164.832 240.311 165.015 240.183C165.748 239.657 166.364 238.985 166.826 238.21C167.287 237.434 167.583 236.572 167.695 235.677C167.69 235.417 167.786 235.165 167.965 234.976C168.143 234.787 168.388 234.675 168.648 234.665C168.912 234.664 169.165 234.765 169.357 234.946C169.549 235.126 169.665 235.374 169.68 235.637L169.839 235.498Z" fill="#231F20"/>
<path d="M625.277 211.698C625.277 211.698 637.465 270.275 623.034 274.087C603.442 279.367 522.057 259.398 522.057 259.398C522.057 259.398 500.817 264.618 497.106 259.02C493.394 253.423 497.106 245.602 498.971 245.125C500.837 244.649 516.836 243.537 516.836 243.537C516.836 243.537 503.815 233.95 507.904 233.215C511.993 232.481 526.543 237.305 526.543 237.305C526.543 237.305 606.261 243.26 605.526 239.131C604.792 235.002 601.1 219.479 601.1 219.479" fill="white"/>
<path d="M613.962 275.953C586.47 275.953 527.198 261.641 522.136 260.41C519 261.164 500.301 265.392 496.331 259.576C495.31 257.838 494.718 255.882 494.604 253.869C494.49 251.857 494.858 249.846 495.676 248.004C495.994 247.21 497.204 244.59 498.832 244.252C500.46 243.915 509.571 243.22 514.216 242.843C510.345 239.845 505.74 235.756 506.276 233.652C506.367 233.297 506.567 232.979 506.848 232.744C507.13 232.509 507.478 232.368 507.844 232.342C511.973 231.588 524.855 235.776 526.84 236.431C554.789 238.416 599.71 240.957 604.573 238.972C603.7 234.367 600.305 219.956 600.266 219.797C600.205 219.534 600.252 219.257 600.395 219.028C600.538 218.799 600.767 218.637 601.03 218.576C601.293 218.516 601.57 218.562 601.799 218.705C602.027 218.849 602.19 219.077 602.251 219.34C602.409 219.976 605.943 234.982 606.677 239.051C606.717 239.253 606.707 239.462 606.648 239.659C606.589 239.856 606.483 240.036 606.34 240.183C603.124 243.776 544.527 239.726 526.642 238.396H526.404C522.434 237.066 511.596 233.791 508.34 234.307C508.836 235.657 512.906 239.409 517.61 242.882C517.773 243.003 517.896 243.169 517.963 243.36C518.031 243.552 518.039 243.758 517.987 243.954C517.926 244.148 517.808 244.32 517.649 244.447C517.49 244.574 517.297 244.651 517.094 244.669C512.668 245.006 500.817 245.959 499.328 246.237C498.346 247.123 497.654 248.286 497.343 249.572C496.794 251.023 496.576 252.578 496.707 254.124C496.837 255.67 497.313 257.166 498.098 258.504C500.539 262.157 513.978 260.489 521.918 258.504C522.074 258.465 522.238 258.465 522.394 258.504C523.208 258.703 603.64 278.354 622.875 273.213C633.971 270.275 627.738 228.015 624.403 211.976C624.351 211.713 624.405 211.439 624.554 211.216C624.702 210.993 624.934 210.838 625.197 210.785C625.46 210.732 625.734 210.786 625.957 210.935C626.18 211.084 626.336 211.316 626.388 211.579C627.659 217.673 638.298 271.129 623.431 275.099C620.322 275.777 617.141 276.064 613.962 275.953Z" fill="#231F20"/>
<path d="M601.178 220.571C600.956 220.568 600.741 220.489 600.568 220.349C600.395 220.209 600.274 220.014 600.225 219.797L591.233 181.744C591.201 181.618 591.195 181.486 591.214 181.357C591.234 181.228 591.279 181.104 591.348 180.993C591.416 180.882 591.507 180.786 591.613 180.71C591.72 180.635 591.84 180.581 591.968 180.553C592.223 180.499 592.489 180.545 592.711 180.682C592.933 180.819 593.093 181.036 593.159 181.288L602.151 219.34C602.211 219.596 602.167 219.864 602.029 220.087C601.892 220.31 601.671 220.47 601.416 220.531L601.178 220.571Z" fill="#231F20"/>
<path d="M394.044 118.84C393.896 118.838 393.75 118.802 393.619 118.732C393.488 118.663 393.375 118.564 393.29 118.443C393.222 118.344 393.174 118.232 393.15 118.115C393.125 117.997 393.123 117.876 393.146 117.758C393.168 117.64 393.213 117.528 393.278 117.427C393.344 117.327 393.429 117.24 393.528 117.172C394.237 116.7 394.798 116.039 395.149 115.263C395.5 114.488 395.626 113.629 395.513 112.786C394.902 111.526 394.461 110.191 394.203 108.816C394.172 108.609 394.212 108.399 394.317 108.219C394.423 108.039 394.586 107.901 394.781 107.826C394.976 107.752 395.19 107.747 395.388 107.811C395.586 107.876 395.756 108.006 395.87 108.18C396.6 109.397 397.079 110.746 397.28 112.15C397.513 112.66 397.893 113.089 398.371 113.381C398.527 113.451 398.699 113.476 398.868 113.451C399.037 113.426 399.195 113.354 399.324 113.242C401.131 112.17 399.324 105.798 397.617 101.848C397.568 101.74 397.54 101.623 397.537 101.505C397.533 101.386 397.553 101.268 397.595 101.157C397.638 101.046 397.702 100.945 397.784 100.859C397.866 100.773 397.965 100.704 398.074 100.657C398.295 100.562 398.545 100.556 398.771 100.641C398.997 100.727 399.181 100.896 399.285 101.114C400.118 102.999 404.088 112.508 400.257 114.79C399.88 115.058 399.439 115.22 398.979 115.262C398.519 115.304 398.056 115.223 397.637 115.029C397.474 114.963 397.321 114.876 397.18 114.771C396.823 116.344 395.87 117.717 394.521 118.602C394.386 118.723 394.222 118.805 394.044 118.84Z" fill="#231F20"/>
<path d="M291.796 432.748C291.596 432.749 291.401 432.684 291.243 432.561C291.084 432.439 290.971 432.267 290.923 432.073L273.216 365.913C273.174 365.788 273.16 365.655 273.174 365.524C273.189 365.392 273.231 365.266 273.299 365.152C273.367 365.039 273.459 364.942 273.568 364.868C273.677 364.793 273.801 364.744 273.931 364.722C274.165 364.661 274.414 364.696 274.622 364.819C274.831 364.942 274.982 365.143 275.043 365.377L292.749 431.537C292.81 431.768 292.777 432.015 292.659 432.223C292.54 432.431 292.344 432.583 292.114 432.648L291.796 432.748Z" fill="white"/>
</svg>
