<svg width="540" height="407" viewBox="0 0 540 407" fill="none" xmlns="http://www.w3.org/2000/svg">
<path d="M285.782 370.547L375.233 361.542C375.387 361.52 375.527 361.442 375.629 361.325C375.731 361.207 375.787 361.056 375.787 360.901C375.787 360.745 375.731 360.595 375.629 360.477C375.527 360.359 375.387 360.282 375.233 360.26L256.109 351.093L205.943 366.848L285.782 370.547Z" fill="#D1D3D4"/>
<path d="M315.805 317.073C315.805 317.073 325.255 347.948 325.498 352.403C326.065 362.865 288.184 370.803 285.781 370.547C283.378 370.29 216.472 368.643 209.128 369.021C201.784 369.399 188.352 368.778 186.448 368.144C184.545 367.509 184.68 365.093 184.68 365.093L277.83 354.833C277.83 354.833 313.429 355.089 314.064 347.988C314.698 340.887 307.098 316.196 307.098 316.196L315.805 317.073Z" fill="#231F20"/>
<path d="M285.876 371.222C288.994 371.222 315.225 365.646 323.514 357.722C324.333 357.075 325 356.256 325.466 355.323C325.933 354.389 326.188 353.365 326.214 352.322C325.971 347.826 316.885 318.086 316.494 316.83C316.453 316.704 316.377 316.592 316.274 316.508C316.171 316.424 316.046 316.372 315.913 316.358L307.179 315.467C307.068 315.457 306.956 315.474 306.853 315.516C306.749 315.558 306.658 315.625 306.585 315.71C306.513 315.794 306.465 315.895 306.443 316.004C306.422 316.113 306.429 316.225 306.463 316.331C306.544 316.587 314.023 340.995 313.402 347.88C312.984 352.592 291.37 354.198 277.843 354.104L184.693 364.377C184.535 364.393 184.387 364.466 184.278 364.583C184.168 364.7 184.105 364.852 184.099 365.012C184.036 365.786 184.216 366.56 184.616 367.226C185.016 367.892 185.614 368.416 186.327 368.724C188.311 369.386 201.893 370.074 209.277 369.642C216.932 369.251 283.527 370.925 285.822 371.168L285.876 371.222ZM315.292 317.708C316.44 321.447 324.607 348.393 324.823 352.443C324.791 353.287 324.573 354.114 324.186 354.865C323.798 355.616 323.251 356.273 322.582 356.79C314.374 364.593 287.483 370.047 285.849 369.872C283.581 369.642 216.77 367.955 209.088 368.346C201.407 368.738 188.338 368.063 186.664 367.496C186.302 367.35 185.989 367.103 185.761 366.785C185.534 366.467 185.403 366.09 185.382 365.7L277.87 355.508C281.502 355.508 314.037 355.508 314.712 348.056C315.279 341.63 309.433 321.677 307.962 317.006L315.292 317.708Z" fill="#231F20"/>
<path d="M313.2 317.073C313.2 317.073 320.612 345.018 320.801 351.093C320.99 357.168 290.399 366.497 285.836 367.293C281.273 368.09 194.994 366.915 189.864 366.348C184.734 365.781 184.923 365.39 185.814 364.823C186.705 364.256 233.132 358.167 240.746 354.752C248.36 351.336 249.669 345.059 248.724 337.647C247.779 330.236 246.632 321.366 246.632 321.366L313.2 317.073Z" fill="white"/>
<path d="M270.837 368.198C278.937 368.198 284.674 368.117 285.889 367.914C289.278 367.347 321.583 358.1 321.367 351.134C321.178 345.045 314.05 318.113 313.74 316.979C313.711 316.837 313.629 316.711 313.512 316.626C313.394 316.541 313.249 316.503 313.105 316.52L246.591 320.772C246.507 320.772 246.424 320.792 246.349 320.829C246.274 320.867 246.209 320.921 246.159 320.988C246.104 321.053 246.064 321.128 246.04 321.21C246.017 321.291 246.011 321.377 246.024 321.461L248.116 337.742C249.196 346.26 246.847 351.336 240.489 354.198C235.264 356.547 211.14 360.233 196.722 362.42C187.272 363.851 185.841 364.107 185.49 364.31C185.139 364.512 184.545 364.877 184.68 365.498C184.815 366.119 185.341 366.483 189.742 366.969C193.05 367.293 244.512 368.198 270.837 368.198ZM312.687 317.775C313.672 321.542 319.963 345.666 320.139 351.174C320.314 356.682 290.898 365.835 285.687 366.699C281.016 367.469 193.887 366.2 189.837 365.741C188.122 365.552 187.137 365.39 186.516 365.268C187.866 365.012 192.091 364.364 196.87 363.648C211.342 361.434 235.575 357.749 240.948 355.332C249.952 351.282 250.02 343.263 249.291 337.58L247.279 321.96L312.687 317.775Z" fill="#231F20"/>
<path d="M89.1 320.853C90.499 321.551 91.9529 322.134 93.447 322.595C94.797 322.878 361.462 321.636 418.797 321.38C421.673 321.366 424.431 320.229 426.481 318.212C428.532 316.194 429.713 313.455 429.772 310.58L434.997 51.1905C435.091 46.3845 432.297 39.918 426.897 37.6905L89.1 320.853Z" fill="#231F20"/>
<path d="M102.762 323.297C144.166 323.297 312.997 322.541 418.891 322.055C421.948 322.02 424.871 320.8 427.044 318.652C429.218 316.503 430.472 313.594 430.542 310.539L435.672 51.204C435.78 46.101 432.796 39.3915 427.086 37.029C426.972 36.9827 426.848 36.9683 426.727 36.9873C426.605 37.0063 426.492 37.0581 426.397 37.137L88.7355 320.327C88.6501 320.4 88.584 320.494 88.5432 320.599C88.5023 320.704 88.488 320.817 88.5013 320.929C88.5146 321.041 88.5552 321.148 88.6196 321.241C88.684 321.334 88.7701 321.409 88.8704 321.461C90.3173 322.181 91.8209 322.782 93.366 323.256C93.528 323.283 96.849 323.297 102.762 323.297ZM426.951 38.4465C431.865 40.701 434.416 46.6275 434.322 51.177L429.192 310.526C429.129 313.226 428.02 315.797 426.098 317.696C424.177 319.595 421.593 320.674 418.891 320.705C263.25 321.42 96.066 322.122 93.5415 321.92C92.4462 321.602 91.3802 321.191 90.3555 320.691L426.951 38.4465Z" fill="#231F20"/>
<path d="M92.2184 321.326L413.599 319.422C416.392 319.402 419.069 318.302 421.067 316.351C423.066 314.4 424.231 311.751 424.318 308.96L424.885 280.61L429.678 43.2525C429.708 42.255 429.513 41.2635 429.108 40.3511C428.704 39.4388 428.1 38.6288 427.341 37.9811C426.581 37.3333 425.687 36.8641 424.722 36.6082C423.757 36.3524 422.747 36.3162 421.767 36.5025L109.917 86.979C107.717 87.3911 105.709 88.4993 104.187 90.14C102.665 91.7808 101.711 93.8673 101.466 96.0915L84.9149 289.412L82.62 310.593C82.4679 311.944 82.6028 313.311 83.0158 314.606C83.4289 315.901 84.1109 317.095 85.017 318.108C85.9231 319.121 87.033 319.931 88.274 320.486C89.5151 321.04 90.8592 321.326 92.2184 321.326Z" fill="white"/>
<path d="M92.1645 321.947L413.6 320.043C416.56 320.044 419.402 318.886 421.519 316.817C423.636 314.748 424.859 311.932 424.926 308.973L430.326 43.266C430.349 42.1815 430.129 41.1055 429.683 40.1165C429.238 39.1276 428.577 38.2506 427.749 37.5495C426.921 36.8485 425.947 36.341 424.898 36.0641C423.849 35.7872 422.752 35.7479 421.686 35.949L109.836 86.4255C107.497 86.8506 105.36 88.0224 103.744 89.7651C102.127 91.5079 101.12 93.7277 100.872 96.0915L84.3075 289.412L82.0125 310.58C81.8592 312.012 82.0088 313.461 82.4517 314.831C82.8946 316.202 83.6208 317.465 84.5833 318.537C85.5458 319.609 86.7229 320.466 88.0383 321.054C89.3537 321.641 90.7779 321.945 92.2185 321.947H92.1645ZM92.1645 320.705C90.8904 320.726 89.6267 320.471 88.4612 319.956C87.2956 319.44 86.256 318.678 85.4145 317.721C84.5662 316.778 83.9259 315.666 83.5351 314.459C83.1444 313.252 83.012 311.976 83.1465 310.715L85.4415 289.533L102.033 96.1995C102.26 94.1069 103.157 92.1434 104.589 90.6013C106.022 89.0592 107.914 88.0208 109.985 87.6405L421.835 37.164C422.721 36.995 423.634 37.0261 424.507 37.2549C425.38 37.4838 426.191 37.9046 426.88 38.4867C427.57 39.0689 428.12 39.7976 428.492 40.6198C428.864 41.442 429.048 42.3368 429.03 43.239L423.63 308.946C423.57 311.585 422.477 314.096 420.587 315.938C418.696 317.781 416.158 318.809 413.519 318.801L92.1645 320.705Z" fill="#231F20"/>
<path d="M84.8745 289.466L424.885 280.61L429.678 43.2525C429.708 42.255 429.513 41.2635 429.108 40.3511C428.704 39.4388 428.1 38.6288 427.341 37.9811C426.581 37.3333 425.687 36.8641 424.722 36.6082C423.757 36.3524 422.747 36.3162 421.767 36.5025L109.917 86.979C107.717 87.3911 105.709 88.4993 104.187 90.14C102.665 91.7808 101.711 93.8673 101.466 96.0915L84.8745 289.466Z" fill="#231F20"/>
<path d="M84.8745 290.141L424.899 281.285C425.073 281.281 425.24 281.21 425.363 281.087C425.486 280.964 425.557 280.797 425.561 280.623L430.353 43.266C430.374 42.1725 430.151 41.088 429.7 40.0915C429.249 39.095 428.582 38.2116 427.746 37.5056C426.911 36.7995 425.929 36.2886 424.871 36.01C423.813 35.7314 422.707 35.6921 421.632 35.895L109.782 86.3715C107.433 86.8005 105.286 87.9774 103.661 89.7267C102.035 91.476 101.019 93.7039 100.764 96.078L84.213 289.412C84.2035 289.505 84.2143 289.599 84.2446 289.687C84.2748 289.776 84.324 289.857 84.3885 289.925C84.516 290.058 84.6905 290.135 84.8745 290.141ZM424.224 279.948L85.6035 288.777L102.101 96.213C102.323 94.133 103.212 92.1808 104.636 90.6479C106.059 89.115 107.94 88.0837 109.998 87.708L421.848 37.218C422.726 37.0511 423.631 37.0823 424.496 37.3094C425.36 37.5364 426.163 37.9536 426.846 38.5306C427.529 39.1075 428.075 39.8295 428.443 40.6441C428.812 41.4587 428.994 42.3452 428.976 43.239L424.224 279.948Z" fill="#231F20"/>
<path d="M316.183 351.849C316.29 351.863 316.399 351.855 316.502 351.824C316.605 351.793 316.701 351.74 316.782 351.669C316.863 351.598 316.928 351.51 316.973 351.412C317.017 351.314 317.04 351.208 317.04 351.1C317.04 350.992 317.017 350.885 316.973 350.787C316.928 350.689 316.863 350.602 316.782 350.531C316.701 350.46 316.605 350.407 316.502 350.376C316.399 350.345 316.29 350.336 316.183 350.351L249.412 348.785C249.216 348.787 249.028 348.864 248.886 348.999C248.743 349.134 248.656 349.318 248.643 349.514C248.643 349.713 248.72 349.905 248.859 350.048C248.997 350.192 249.186 350.276 249.385 350.283L316.156 351.849H316.183Z" fill="#D1D3D4"/>
<path d="M410.332 262.088L416.407 51.258L112.28 98.0895L98.1315 273.752L410.332 262.088Z" fill="#0D9488"/>
<path d="M425.56 280.623L430.191 51.2715C430.353 43.1715 430.191 41.1195 429.232 39.2295C429.197 39.1439 429.144 39.0664 429.077 39.0022C429.01 38.9379 428.93 38.8881 428.843 38.8559C428.756 38.8237 428.664 38.8098 428.571 38.8151C428.478 38.8204 428.388 38.8448 428.305 38.8866C428.222 38.9285 428.149 38.987 428.089 39.0585C428.03 39.13 427.986 39.213 427.961 39.3022C427.935 39.3914 427.928 39.4849 427.94 39.5769C427.952 39.669 427.983 39.7575 428.031 39.837C428.854 41.457 428.989 43.482 428.841 51.2445L424.21 280.596L425.56 280.623Z" fill="white"/>
<path d="M346.747 238.476C346.859 238.477 346.969 238.451 347.068 238.399C347.167 238.347 347.252 238.272 347.314 238.179C347.413 238.028 347.448 237.845 347.413 237.668C347.378 237.491 347.274 237.336 347.125 237.234L153.495 110.658C153.342 110.561 153.158 110.528 152.981 110.566C152.804 110.603 152.649 110.709 152.55 110.861C152.454 111.011 152.421 111.194 152.459 111.368C152.497 111.543 152.602 111.695 152.753 111.792L346.383 238.368C346.49 238.442 346.618 238.48 346.747 238.476Z" fill="white"/>
<path d="M202.5 222.519C202.644 222.52 202.785 222.475 202.901 222.391C203.018 222.306 203.105 222.186 203.148 222.049C203.192 221.912 203.191 221.764 203.145 221.628C203.098 221.491 203.01 221.373 202.891 221.291L135.229 173.96C135.082 173.861 134.902 173.823 134.728 173.856C134.553 173.889 134.399 173.989 134.298 174.135C134.247 174.206 134.21 174.288 134.19 174.373C134.17 174.459 134.168 174.548 134.183 174.635C134.198 174.722 134.23 174.804 134.278 174.879C134.326 174.953 134.387 175.017 134.46 175.067L202.149 222.398C202.253 222.469 202.374 222.511 202.5 222.519Z" fill="white"/>
<path d="M370.535 157.139C370.681 157.141 370.825 157.096 370.943 157.01C371.062 156.923 371.149 156.801 371.192 156.66C371.235 156.52 371.231 156.369 371.18 156.232C371.13 156.094 371.036 155.976 370.913 155.897C368.645 154.385 272.363 98.211 268.313 95.8215C268.156 95.7323 267.971 95.7077 267.797 95.7532C267.623 95.7986 267.474 95.9103 267.381 96.0645C267.335 96.1404 267.305 96.2247 267.293 96.3124C267.28 96.4 267.286 96.4893 267.308 96.5749C267.331 96.6605 267.371 96.7407 267.425 96.8108C267.479 96.8808 267.547 96.9392 267.624 96.9825C268.623 97.5765 367.983 155.532 370.224 157.017C370.315 157.085 370.422 157.127 370.535 157.139Z" fill="white"/>
<path d="M253.017 230.12C253.162 230.119 253.304 230.072 253.42 229.984C253.537 229.897 253.622 229.774 253.663 229.635C253.704 229.495 253.699 229.346 253.648 229.209C253.597 229.073 253.504 228.957 253.381 228.878C233.806 216.174 204.255 196.829 203.04 195.546C202.912 195.425 202.743 195.358 202.567 195.358C202.392 195.358 202.223 195.425 202.095 195.546C201.965 195.658 201.883 195.817 201.868 195.989C201.853 196.16 201.905 196.331 202.014 196.464C203.364 198.017 247.603 226.772 252.652 230.052C252.766 230.106 252.892 230.129 253.017 230.12Z" fill="white"/>
</svg>
