<svg width="576" height="436" viewBox="0 0 576 436" fill="none" xmlns="http://www.w3.org/2000/svg">
<path d="M520.632 344.547H57.4848C57.2939 344.547 57.1107 344.471 56.9757 344.336C56.8407 344.201 56.7648 344.018 56.7648 343.827C56.7648 343.636 56.8407 343.453 56.9757 343.318C57.1107 343.183 57.2939 343.107 57.4848 343.107H520.632C520.823 343.107 521.006 343.183 521.141 343.318C521.276 343.453 521.352 343.636 521.352 343.827C521.352 344.018 521.276 344.201 521.141 344.336C521.006 344.471 520.823 344.547 520.632 344.547Z" fill="#D1D3D4"/>
<path d="M500.083 311.355V94.8945L191.074 94.8945V311.355H500.083Z" fill="white"/>
<path d="M500.069 312.075H191.074C190.883 312.075 190.7 311.999 190.565 311.864C190.429 311.729 190.354 311.546 190.354 311.355V94.88C190.354 94.6891 190.429 94.5059 190.565 94.3709C190.7 94.2359 190.883 94.16 191.074 94.16H500.069C500.26 94.16 500.443 94.2359 500.578 94.3709C500.713 94.5059 500.789 94.6891 500.789 94.88V311.355C500.789 311.546 500.713 311.729 500.578 311.864C500.443 311.999 500.26 312.075 500.069 312.075ZM191.794 310.635H499.349V95.6H191.794V310.635Z" fill="#231F20"/>
<path d="M191.059 75.44V94.8944L500.069 94.8944V75.44L191.059 75.44Z" fill="white"/>
<path d="M500.069 95.6H191.074C190.883 95.6 190.7 95.5242 190.565 95.3892C190.429 95.2541 190.354 95.071 190.354 94.88V75.44C190.354 75.2491 190.429 75.0659 190.565 74.9309C190.7 74.7959 190.883 74.72 191.074 74.72H500.069C500.26 74.72 500.443 74.7959 500.578 74.9309C500.713 75.0659 500.789 75.2491 500.789 75.44V94.88C500.789 95.071 500.713 95.2541 500.578 95.3892C500.443 95.5242 500.26 95.6 500.069 95.6ZM191.794 94.16H499.349V76.1456H191.794V94.16Z" fill="#231F20"/>
<path d="M468 283.362H232.013C231.822 283.362 231.639 283.286 231.504 283.151C231.369 283.016 231.293 282.833 231.293 282.642V128.907C231.293 128.716 231.369 128.533 231.504 128.398C231.639 128.263 231.822 128.187 232.013 128.187C232.204 128.187 232.387 128.263 232.522 128.398C232.657 128.533 232.733 128.716 232.733 128.907V281.922H468C468.19 281.925 468.371 282.002 468.505 282.137C468.639 282.271 468.716 282.452 468.72 282.642C468.72 282.833 468.644 283.016 468.509 283.151C468.374 283.286 468.191 283.362 468 283.362Z" fill="#D1D3D4"/>
<path d="M278.438 283.362H258.278C258.088 283.362 257.904 283.286 257.769 283.151C257.634 283.016 257.558 282.833 257.558 282.642V197.84C257.558 197.649 257.634 197.466 257.769 197.331C257.904 197.196 258.088 197.12 258.278 197.12H278.438C278.628 197.124 278.809 197.201 278.943 197.335C279.078 197.469 279.155 197.65 279.158 197.84V282.714C279.141 282.892 279.057 283.057 278.924 283.177C278.791 283.297 278.618 283.363 278.438 283.362ZM258.998 281.922H277.718V198.488H258.998V281.922Z" fill="#D1D3D4"/>
<path d="M321.797 283.362H301.637C301.446 283.362 301.263 283.286 301.128 283.151C300.993 283.016 300.917 282.833 300.917 282.642V191.216C300.917 191.025 300.993 190.842 301.128 190.707C301.263 190.572 301.446 190.496 301.637 190.496H321.797C321.988 190.496 322.171 190.572 322.306 190.707C322.441 190.842 322.517 191.025 322.517 191.216V282.642C322.517 282.833 322.441 283.016 322.306 283.151C322.171 283.286 321.988 283.362 321.797 283.362ZM302.371 281.922H321.091V191.936H302.4L302.371 281.922Z" fill="#D1D3D4"/>
<path d="M365.17 283.362H345.01C344.819 283.362 344.636 283.286 344.501 283.151C344.366 283.016 344.29 282.833 344.29 282.642V227.778C344.29 227.587 344.366 227.404 344.501 227.269C344.636 227.133 344.819 227.058 345.01 227.058H365.17C365.361 227.058 365.544 227.133 365.679 227.269C365.814 227.404 365.89 227.587 365.89 227.778V282.642C365.89 282.833 365.814 283.016 365.679 283.151C365.544 283.286 365.361 283.362 365.17 283.362ZM345.73 281.922H364.45V228.498H345.73V281.922Z" fill="#D1D3D4"/>
<path d="M408.542 283.362H388.382C388.191 283.362 388.008 283.286 387.873 283.151C387.738 283.016 387.662 282.833 387.662 282.642V178.846C387.662 178.655 387.738 178.472 387.873 178.337C388.008 178.202 388.191 178.126 388.382 178.126H408.542C408.733 178.126 408.916 178.202 409.052 178.337C409.187 178.472 409.262 178.655 409.262 178.846V282.642C409.262 282.833 409.187 283.016 409.052 283.151C408.916 283.286 408.733 283.362 408.542 283.362ZM389.102 281.922H407.822V179.566H389.102V281.922Z" fill="#D1D3D4"/>
<path d="M451.901 283.362H431.741C431.55 283.362 431.367 283.286 431.232 283.151C431.097 283.016 431.021 282.833 431.021 282.642V151.486C431.021 151.295 431.097 151.112 431.232 150.977C431.367 150.842 431.55 150.766 431.741 150.766H451.901C452.092 150.766 452.275 150.842 452.41 150.977C452.545 151.112 452.621 151.295 452.621 151.486V282.642C452.621 282.833 452.545 283.016 452.41 283.151C452.275 283.286 452.092 283.362 451.901 283.362ZM432.461 281.922H451.181V152.206H432.461V281.922Z" fill="#D1D3D4"/>
<path d="M355.09 185.643C354.201 185.649 353.342 185.32 352.685 184.722L311.501 147.541L265.421 181.741C265.043 182.024 264.612 182.231 264.154 182.348C263.696 182.466 263.22 182.492 262.752 182.425C262.284 182.358 261.834 182.199 261.427 181.959C261.02 181.718 260.665 181.399 260.381 181.021C260.097 180.643 259.891 180.212 259.774 179.754C259.656 179.296 259.63 178.82 259.697 178.352C259.764 177.884 259.922 177.433 260.163 177.027C260.404 176.62 260.723 176.264 261.101 175.981L309.586 139.981C310.252 139.484 311.07 139.234 311.9 139.273C312.73 139.313 313.52 139.639 314.136 140.197L355.291 177.363L439.661 113.787C440.039 113.504 440.469 113.297 440.927 113.18C441.385 113.063 441.862 113.037 442.33 113.103C442.798 113.17 443.248 113.329 443.655 113.57C444.062 113.81 444.417 114.129 444.701 114.507C444.985 114.885 445.191 115.316 445.308 115.774C445.426 116.232 445.452 116.708 445.385 117.176C445.318 117.644 445.159 118.095 444.919 118.501C444.678 118.908 444.359 119.264 443.981 119.547L357.264 184.88C356.643 185.367 355.879 185.635 355.09 185.643Z" fill="#D1D3D4"/>
<path d="M440.453 129.67L429.005 113.946H446.098L440.453 129.67Z" fill="#D1D3D4"/>
<path d="M440.453 130.39C440.339 130.392 440.226 130.366 440.124 130.316C440.021 130.266 439.932 130.193 439.862 130.102L428.414 114.32C428.344 114.208 428.307 114.078 428.307 113.946C428.307 113.813 428.344 113.683 428.414 113.571C428.477 113.454 428.57 113.356 428.685 113.287C428.799 113.219 428.929 113.182 429.062 113.182H446.155C446.271 113.182 446.385 113.21 446.487 113.264C446.59 113.317 446.678 113.394 446.744 113.489C446.811 113.584 446.853 113.693 446.869 113.807C446.884 113.922 446.871 114.039 446.832 114.147L441.187 129.872C441.144 129.996 441.067 130.106 440.966 130.19C440.864 130.274 440.741 130.328 440.611 130.347L440.453 130.39ZM430.373 114.666L440.194 128.144L445.032 114.666H430.373Z" fill="#D1D3D4"/>
<path d="M316.008 124.4H288.36C288.169 124.4 287.986 124.324 287.851 124.189C287.716 124.054 287.64 123.871 287.64 123.68C287.64 123.489 287.716 123.306 287.851 123.171C287.986 123.036 288.169 122.96 288.36 122.96H316.008C316.199 122.96 316.382 123.036 316.517 123.171C316.652 123.306 316.728 123.489 316.728 123.68C316.728 123.871 316.652 124.054 316.517 124.189C316.382 124.324 316.199 124.4 316.008 124.4Z" fill="#D1D3D4"/>
<path d="M302.184 130.39H288.36C288.169 130.39 287.986 130.315 287.851 130.18C287.716 130.045 287.64 129.861 287.64 129.67C287.64 129.479 287.716 129.296 287.851 129.161C287.986 129.026 288.169 128.95 288.36 128.95H302.184C302.374 128.954 302.555 129.031 302.689 129.165C302.823 129.3 302.9 129.481 302.904 129.67C302.904 129.861 302.828 130.045 302.693 130.18C302.558 130.315 302.375 130.39 302.184 130.39Z" fill="#D1D3D4"/>
<path d="M408.542 127.381H380.88C380.69 127.377 380.509 127.3 380.375 127.166C380.241 127.032 380.164 126.851 380.16 126.661C380.16 126.47 380.236 126.287 380.371 126.152C380.506 126.017 380.689 125.941 380.88 125.941H408.542C408.733 125.941 408.917 126.017 409.052 126.152C409.187 126.287 409.262 126.47 409.262 126.661C409.259 126.851 409.182 127.032 409.048 127.166C408.913 127.3 408.732 127.377 408.542 127.381Z" fill="#D1D3D4"/>
<path d="M394.704 133.414H380.88C380.689 133.414 380.506 133.339 380.371 133.204C380.236 133.069 380.16 132.885 380.16 132.694C380.16 132.503 380.236 132.32 380.371 132.185C380.506 132.05 380.689 131.974 380.88 131.974H394.704C394.895 131.974 395.078 132.05 395.213 132.185C395.348 132.32 395.424 132.503 395.424 132.694C395.424 132.885 395.348 133.069 395.213 133.204C395.078 133.339 394.895 133.414 394.704 133.414Z" fill="#D1D3D4"/>
<path d="M406.08 294.594H392.342C392.151 294.594 391.968 294.518 391.833 294.383C391.698 294.248 391.622 294.065 391.622 293.874C391.622 293.683 391.698 293.5 391.833 293.365C391.968 293.229 392.151 293.154 392.342 293.154H406.08C406.271 293.154 406.454 293.229 406.589 293.365C406.724 293.5 406.8 293.683 406.8 293.874C406.8 294.065 406.724 294.248 406.589 294.383C406.454 294.518 406.271 294.594 406.08 294.594Z" fill="#D1D3D4"/>
<path d="M361.958 294.594H348.221C348.03 294.594 347.847 294.518 347.712 294.383C347.577 294.248 347.501 294.065 347.501 293.874C347.501 293.683 347.577 293.5 347.712 293.365C347.847 293.229 348.03 293.154 348.221 293.154H361.958C362.149 293.154 362.333 293.229 362.468 293.365C362.603 293.5 362.678 293.683 362.678 293.874C362.678 294.065 362.603 294.248 362.468 294.383C362.333 294.518 362.149 294.594 361.958 294.594Z" fill="#D1D3D4"/>
<path d="M318.6 294.594H304.848C304.657 294.594 304.474 294.518 304.339 294.383C304.204 294.248 304.128 294.065 304.128 293.874C304.132 293.684 304.209 293.503 304.343 293.369C304.477 293.234 304.658 293.157 304.848 293.154H318.6C318.79 293.157 318.971 293.234 319.105 293.369C319.239 293.503 319.316 293.684 319.32 293.874C319.32 294.065 319.244 294.248 319.109 294.383C318.974 294.518 318.791 294.594 318.6 294.594Z" fill="#D1D3D4"/>
<path d="M278.438 294.594H264.686C264.495 294.594 264.312 294.518 264.177 294.383C264.042 294.248 263.966 294.065 263.966 293.874C263.97 293.684 264.047 293.503 264.181 293.369C264.316 293.234 264.497 293.157 264.686 293.154H278.438C278.628 293.157 278.809 293.234 278.943 293.369C279.078 293.503 279.155 293.684 279.158 293.874C279.158 294.065 279.083 294.248 278.948 294.383C278.813 294.518 278.629 294.594 278.438 294.594Z" fill="#D1D3D4"/>
<path d="M448.69 294.594H434.952C434.761 294.594 434.578 294.518 434.443 294.383C434.308 294.248 434.232 294.065 434.232 293.874C434.232 293.683 434.308 293.5 434.443 293.365C434.578 293.229 434.761 293.154 434.952 293.154H448.69C448.881 293.154 449.064 293.229 449.199 293.365C449.334 293.5 449.41 293.683 449.41 293.874C449.41 294.065 449.334 294.248 449.199 294.383C449.064 294.518 448.881 294.594 448.69 294.594Z" fill="#D1D3D4"/>
<path d="M114.667 128.115C113.625 126.55 113.17 124.666 113.383 122.797C113.597 120.928 114.465 119.196 115.834 117.906C117.497 120.118 118.42 122.799 118.469 125.566C120.211 120.512 126.101 118.222 131.429 117.704C136.757 117.186 142.301 117.819 147.269 115.861C152.237 113.902 156.24 107.926 153.648 103.261C155.483 105.097 156.898 107.31 157.796 109.746C158.693 112.183 159.052 114.785 158.846 117.373C162.566 114.507 165.168 110.433 166.205 105.853C166.061 106.486 173.52 111.008 173.52 126.2C173.678 129.751 173.103 133.296 171.832 136.616C170.561 139.935 168.621 142.958 166.133 145.496C163.238 148.415 160.081 151.062 156.701 153.402L149.702 158.586C142.502 163.885 132.422 169.141 123.12 166.419C111.11 162.906 106.56 140.744 114.221 132.19C110.857 132.544 107.63 133.71 104.818 135.589C105.317 133.383 106.578 131.424 108.38 130.056C110.182 128.689 112.408 128.002 114.667 128.115Z" fill="white"/>
<path d="M128.405 167.845C126.534 167.85 124.672 167.588 122.875 167.067C117.504 165.498 113.026 160.098 110.894 152.667C108.763 145.237 109.454 137.806 112.536 133.141C109.886 133.631 107.363 134.655 105.12 136.15C105 136.227 104.86 136.268 104.717 136.268C104.574 136.268 104.434 136.227 104.314 136.15C104.195 136.073 104.103 135.961 104.049 135.83C103.995 135.699 103.982 135.555 104.011 135.416C104.512 133.259 105.686 131.318 107.364 129.874C109.041 128.429 111.135 127.556 113.342 127.381C112.57 125.708 112.344 123.834 112.695 122.025C113.047 120.216 113.958 118.563 115.301 117.301C115.375 117.236 115.462 117.187 115.556 117.158C115.651 117.128 115.75 117.118 115.848 117.128C115.948 117.138 116.044 117.168 116.131 117.218C116.218 117.267 116.293 117.335 116.352 117.416C117.593 119.076 118.454 120.988 118.872 123.018C121.133 119.691 125.568 117.474 131.285 116.941C132.912 116.782 134.582 116.725 136.21 116.682C139.838 116.789 143.458 116.268 146.909 115.141C148.336 114.565 149.631 113.703 150.713 112.609C151.795 111.514 152.642 110.21 153.202 108.776C153.538 107.939 153.687 107.038 153.637 106.138C153.587 105.237 153.34 104.358 152.914 103.563C152.831 103.411 152.805 103.234 152.842 103.065C152.88 102.896 152.976 102.745 153.115 102.642C153.244 102.527 153.411 102.464 153.583 102.464C153.756 102.464 153.922 102.527 154.051 102.642C157.501 106.079 159.466 110.732 159.523 115.602C162.462 112.918 164.512 109.402 165.398 105.522C165.419 105.429 165.457 105.341 165.512 105.263C165.567 105.185 165.636 105.119 165.716 105.068C165.797 105.017 165.886 104.983 165.98 104.967C166.074 104.951 166.17 104.953 166.262 104.974C166.392 105.007 166.511 105.074 166.607 105.167C166.704 105.261 166.773 105.378 166.81 105.507C166.943 105.675 167.087 105.834 167.242 105.982C168.941 107.811 174.139 113.355 174.139 126.027C174.328 129.694 173.758 133.361 172.464 136.798C171.171 140.235 169.182 143.367 166.622 146C163.687 148.94 160.497 151.614 157.09 153.992L150.091 159.162C144.374 163.352 136.426 167.845 128.405 167.845ZM114.178 131.427C114.312 131.429 114.444 131.467 114.558 131.538C114.672 131.609 114.765 131.71 114.826 131.83C114.888 131.96 114.912 132.105 114.894 132.249C114.876 132.392 114.817 132.526 114.725 132.637C111.082 136.698 110.102 144.56 112.32 152.25C114.322 159.234 118.426 164.245 123.322 165.685C132.523 168.378 142.502 162.978 149.242 157.966L156.24 152.782C159.588 150.461 162.72 147.844 165.6 144.963C170.698 139.52 172.8 134.062 172.8 126.157C172.8 114.637 168.48 109.467 166.536 107.437C165.291 111.618 162.774 115.307 159.336 117.992C159.221 118.068 159.085 118.109 158.947 118.109C158.809 118.109 158.674 118.068 158.558 117.992C158.433 117.925 158.331 117.821 158.264 117.696C158.198 117.57 158.17 117.428 158.184 117.286C158.527 113.374 157.51 109.463 155.304 106.213C155.32 107.269 155.14 108.319 154.771 109.309C154.138 110.93 153.18 112.405 151.957 113.643C150.734 114.881 149.271 115.856 147.658 116.509C144.051 117.698 140.265 118.253 136.469 118.15C134.87 118.15 133.229 118.251 131.63 118.395C129.254 118.626 121.363 119.835 119.318 125.768C119.263 125.928 119.153 126.063 119.009 126.149C118.864 126.236 118.693 126.269 118.526 126.243C118.357 126.216 118.202 126.131 118.089 126.002C117.976 125.873 117.912 125.709 117.907 125.538C117.865 123.207 117.166 120.936 115.891 118.986C114.886 120.18 114.297 121.668 114.211 123.226C114.125 124.785 114.548 126.329 115.416 127.626C115.489 127.739 115.528 127.872 115.528 128.007C115.528 128.143 115.489 128.275 115.416 128.389C115.354 128.514 115.253 128.617 115.129 128.681C115.005 128.746 114.863 128.77 114.725 128.749C112.955 128.659 111.199 129.097 109.678 130.007C108.158 130.917 106.942 132.259 106.186 133.861C108.676 132.501 111.413 131.654 114.235 131.37L114.178 131.427Z" fill="#231F20"/>
<path d="M94.104 258.968L69.7104 252.79C70.632 251.034 85.4641 206.552 99.0576 197.912C110.722 188.206 134.165 187.242 160.704 186.219C169.201 185.723 177.723 186.559 185.962 188.696C216.936 197.25 248.227 231.234 248.227 231.234L209.347 258.104C209.347 258.104 213.077 292.534 217.325 347.816C217.325 347.816 168.725 358.746 92.7937 354.498C92.7505 354.498 94.824 266.83 94.104 258.968Z" fill="#0D9488"/>
<path d="M167.702 201.152L167.112 261.099L166.781 293.6L154.598 260.523L132.322 200.014L167.702 201.152Z" fill="#231F20"/>
<path d="M132.322 200.014L167.702 201.152L167.112 261.099L166.781 293.6L154.598 260.48L132.322 200V200.014ZM132.322 198.56C132.094 198.559 131.87 198.613 131.668 198.715C131.465 198.818 131.289 198.967 131.155 199.15C131.017 199.341 130.927 199.563 130.895 199.797C130.862 200.03 130.887 200.268 130.968 200.49L153.245 260.97L165.442 294.09C165.544 294.363 165.726 294.599 165.966 294.766C166.205 294.933 166.489 295.024 166.781 295.026H167.026C167.361 294.964 167.664 294.786 167.88 294.522C168.096 294.259 168.212 293.927 168.206 293.586L168.538 261.085L169.142 201.138C169.142 200.756 168.991 200.389 168.721 200.119C168.451 199.849 168.084 199.698 167.702 199.698L132.307 198.56H132.322Z" fill="#231F20"/>
<path d="M167.112 261.099L166.781 293.6L154.598 260.523L154.541 222.536L150.84 217.899L155.506 210.771L162 217.41L157.709 222.334L167.112 261.099Z" fill="white"/>
<path d="M164.966 179.494L167.717 201.094C167.717 201.094 165.629 212.614 152.194 211.563C148.227 211.225 144.386 210.008 140.949 208C137.512 205.993 134.565 203.245 132.322 199.957L126.562 163.482C126.562 163.482 135.317 156.814 129.11 136.467C140.417 139.295 152.276 139.022 163.44 135.675C163.44 135.675 172.973 157.275 173.045 167.542C173.117 177.81 164.966 179.494 164.966 179.494Z" fill="white"/>
<path d="M153.835 212.413C153.302 212.413 152.726 212.413 152.136 212.341C148.051 212.012 144.093 210.767 140.555 208.697C137.017 206.628 133.992 203.788 131.702 200.389C131.656 200.308 131.623 200.22 131.602 200.13L125.842 163.654C125.82 163.525 125.834 163.393 125.882 163.271C125.931 163.149 126.011 163.043 126.115 162.963C126.187 162.963 134.366 156.282 128.405 136.741C128.369 136.615 128.368 136.482 128.401 136.355C128.433 136.229 128.5 136.113 128.592 136.021C128.684 135.928 128.8 135.863 128.928 135.832C129.055 135.802 129.188 135.807 129.312 135.848C140.487 138.595 152.192 138.317 163.224 135.042C163.392 134.992 163.573 135.006 163.732 135.08C163.891 135.154 164.018 135.284 164.088 135.445C164.477 136.338 173.678 157.304 173.75 167.6C173.75 176.571 167.789 179.336 165.773 180.013L168.48 201.066C168.494 201.137 168.494 201.21 168.48 201.282C167.741 204.565 165.867 207.482 163.188 209.518C160.509 211.555 157.196 212.58 153.835 212.413ZM133.013 199.755C135.211 202.905 138.072 205.536 141.396 207.461C144.72 209.387 148.425 210.561 152.251 210.901C164.39 211.837 166.738 202.261 166.982 201.138L164.246 179.538C164.228 179.356 164.276 179.174 164.382 179.026C164.488 178.877 164.645 178.772 164.822 178.731C165.125 178.731 172.354 177.061 172.296 167.542C172.224 158.485 164.506 140.038 163.008 136.554C152.294 139.568 141.001 139.89 130.133 137.49C135.13 155.13 128.894 162.286 127.253 163.77L133.013 199.755Z" fill="#231F20"/>
<path d="M134.006 161.667C133.271 159.967 132.009 158.549 130.406 157.621C128.874 156.833 127.218 156.312 125.51 156.08C124.563 155.861 123.578 155.861 122.63 156.08C122.001 156.295 121.416 156.622 120.902 157.045C119.621 157.955 118.707 159.293 118.325 160.818C118.167 162.078 118.315 163.357 118.757 164.547C119.133 165.868 119.686 167.132 120.398 168.306C121.133 169.463 122.09 170.463 123.213 171.248C124.336 172.033 125.604 172.587 126.944 172.879C128.283 173.171 129.666 173.195 131.015 172.949C132.363 172.702 133.649 172.191 134.798 171.445" fill="white"/>
<path d="M129.197 173.792C128.413 173.797 127.63 173.715 126.864 173.547C125.43 173.234 124.072 172.64 122.869 171.8C121.665 170.959 120.64 169.889 119.851 168.651C119.088 167.426 118.492 166.104 118.08 164.72C117.602 163.423 117.449 162.029 117.634 160.659C118.049 158.953 119.073 157.458 120.514 156.454C121.097 155.961 121.772 155.589 122.501 155.36C123.529 155.123 124.598 155.123 125.626 155.36C127.415 155.603 129.15 156.154 130.752 156.987C132.483 157.97 133.852 159.485 134.654 161.307C134.727 161.481 134.728 161.677 134.658 161.852C134.588 162.027 134.453 162.167 134.28 162.243C134.193 162.281 134.099 162.302 134.005 162.304C133.91 162.306 133.815 162.289 133.727 162.254C133.639 162.219 133.558 162.167 133.49 162.101C133.422 162.035 133.367 161.956 133.33 161.869C132.664 160.309 131.506 159.009 130.032 158.168C128.571 157.423 126.993 156.936 125.366 156.728C124.551 156.543 123.705 156.543 122.89 156.728C122.359 156.915 121.87 157.203 121.45 157.578C120.307 158.383 119.486 159.566 119.131 160.918C118.991 162.057 119.124 163.212 119.52 164.288C119.869 165.55 120.392 166.757 121.075 167.874C122.454 170.063 124.644 171.616 127.166 172.194C129.686 172.716 132.31 172.235 134.482 170.854C134.64 170.75 134.834 170.713 135.02 170.751C135.206 170.788 135.37 170.898 135.475 171.056C135.529 171.134 135.566 171.222 135.585 171.315C135.604 171.407 135.604 171.503 135.585 171.596C135.566 171.688 135.529 171.776 135.475 171.854C135.422 171.932 135.353 171.999 135.274 172.05C133.459 173.205 131.348 173.81 129.197 173.792Z" fill="#231F20"/>
<path d="M166.781 191.835C161.826 191.611 157.028 190.027 152.914 187.256C146.333 182.691 146.304 179.437 146.304 179.437C146.304 179.437 156.298 182.979 164.491 179.898L166.781 191.835Z" fill="#231F20"/>
<path d="M166.781 192.555C161.679 192.342 156.737 190.712 152.51 187.846C145.8 183.21 145.584 179.811 145.584 179.437C145.586 179.322 145.614 179.209 145.666 179.106C145.719 179.004 145.794 178.915 145.886 178.846C145.983 178.783 146.093 178.742 146.208 178.727C146.322 178.712 146.439 178.723 146.549 178.76C146.635 178.76 156.398 182.173 164.232 179.221C164.326 179.175 164.43 179.151 164.534 179.151C164.639 179.151 164.743 179.175 164.837 179.221C164.929 179.27 165.01 179.34 165.072 179.425C165.134 179.51 165.177 179.607 165.197 179.71L167.486 191.648C167.505 191.752 167.5 191.859 167.473 191.961C167.446 192.063 167.396 192.158 167.328 192.238C167.27 192.333 167.19 192.411 167.095 192.466C166.999 192.522 166.891 192.552 166.781 192.555ZM147.355 180.56C147.917 181.798 149.414 184.002 153.317 186.709C157.072 189.218 161.402 190.734 165.902 191.115L163.944 180.891C157.464 182.936 150.264 181.338 147.355 180.56Z" fill="#231F20"/>
<path d="M150.754 150.81C150.754 150.81 159.394 159.45 158.227 161.566C157.061 163.683 152.266 163.366 152.266 163.366" fill="white"/>
<path d="M152.856 164.101H152.222C152.034 164.09 151.857 164.005 151.731 163.865C151.604 163.725 151.538 163.541 151.546 163.352C151.56 163.162 151.648 162.986 151.791 162.86C151.933 162.733 152.119 162.667 152.309 162.675C153.418 162.675 156.773 162.589 157.608 161.235C158.112 160.4 154.598 155.691 150.235 151.342C150.103 151.208 150.029 151.027 150.029 150.838C150.029 150.65 150.103 150.469 150.235 150.334C150.302 150.267 150.382 150.213 150.47 150.177C150.557 150.14 150.651 150.121 150.746 150.121C150.841 150.121 150.936 150.14 151.023 150.177C151.111 150.213 151.191 150.267 151.258 150.334C153.994 153.07 160.229 159.68 158.832 161.97C157.666 163.885 154.31 164.101 152.856 164.101Z" fill="#231F20"/>
<path d="M142.764 154.107C143.696 154.003 144.333 152.855 144.186 151.543C144.039 150.231 143.164 149.252 142.231 149.356C141.299 149.461 140.662 150.609 140.809 151.921C140.956 153.233 141.831 154.212 142.764 154.107Z" fill="#231F20"/>
<path d="M159.215 150.836C160.076 150.461 160.346 149.176 159.819 147.966C159.292 146.755 158.167 146.078 157.307 146.452C156.446 146.827 156.176 148.112 156.703 149.322C157.23 150.533 158.355 151.21 159.215 150.836Z" fill="#231F20"/>
<path d="M157.824 177.09H156.917C153.891 177.032 150.925 176.243 148.272 174.788C145.618 173.334 143.357 171.257 141.682 168.738C141.625 168.631 141.595 168.513 141.595 168.392C141.595 168.271 141.625 168.153 141.682 168.046C141.742 167.941 141.828 167.851 141.93 167.786C142.033 167.721 142.151 167.682 142.272 167.672L166.752 166.419C166.941 166.411 167.125 166.478 167.265 166.604C167.405 166.731 167.49 166.908 167.501 167.096C167.632 169.831 166.686 172.509 164.866 174.555C163.926 175.435 162.817 176.114 161.606 176.549C160.396 176.985 159.108 177.169 157.824 177.09ZM143.654 169.04C145.276 171.034 147.307 172.656 149.61 173.797C151.913 174.937 154.434 175.569 157.003 175.65C158.225 175.812 159.468 175.708 160.646 175.345C161.824 174.982 162.91 174.369 163.829 173.547C165.215 171.989 166.001 169.988 166.046 167.902L143.654 169.04Z" fill="#231F20"/>
<path d="M164.002 159.349C161.532 159.349 159.119 158.617 157.065 157.245C155.012 155.873 153.412 153.923 152.467 151.642C151.522 149.36 151.275 146.85 151.757 144.428C152.238 142.007 153.428 139.782 155.174 138.036C156.92 136.29 159.144 135.101 161.566 134.619C163.988 134.137 166.498 134.385 168.779 135.33C171.061 136.275 173.011 137.875 174.382 139.928C175.754 141.981 176.486 144.395 176.486 146.864C176.483 150.174 175.166 153.347 172.826 155.688C170.485 158.028 167.312 159.345 164.002 159.349ZM164.002 135.834C161.817 135.834 159.681 136.482 157.864 137.696C156.047 138.91 154.632 140.636 153.796 142.655C152.961 144.674 152.743 146.896 153.17 149.038C153.597 151.181 154.651 153.149 156.197 154.693C157.743 156.237 159.712 157.288 161.856 157.713C163.999 158.137 166.22 157.917 168.238 157.078C170.256 156.24 171.98 154.822 173.192 153.004C174.404 151.186 175.049 149.049 175.046 146.864C175.039 143.938 173.872 141.135 171.802 139.068C169.732 137 166.927 135.837 164.002 135.834Z" fill="#231F20"/>
<path d="M139.55 162.646C137.08 162.649 134.664 161.919 132.609 160.548C130.554 159.178 128.951 157.228 128.004 154.946C127.058 152.664 126.809 150.153 127.29 147.729C127.772 145.306 128.961 143.08 130.708 141.334C132.455 139.587 134.681 138.397 137.104 137.916C139.527 137.435 142.039 137.683 144.32 138.63C146.602 139.577 148.552 141.179 149.923 143.234C151.294 145.29 152.024 147.706 152.021 150.176C152.017 153.482 150.702 156.652 148.364 158.99C146.026 161.328 142.857 162.643 139.55 162.646ZM139.55 139.131C137.365 139.128 135.229 139.774 133.41 140.986C131.592 142.197 130.174 143.921 129.336 145.939C128.498 147.957 128.277 150.178 128.702 152.322C129.126 154.465 130.177 156.435 131.721 157.981C133.265 159.527 135.233 160.58 137.376 161.008C139.519 161.435 141.74 161.217 143.759 160.381C145.778 159.546 147.504 158.13 148.718 156.314C149.933 154.497 150.581 152.361 150.581 150.176C150.577 147.25 149.414 144.446 147.347 142.375C145.279 140.305 142.476 139.139 139.55 139.131Z" fill="#231F20"/>
<path d="M154.541 281.576C154.366 281.563 154.202 281.486 154.08 281.36L123.394 252.704C123.272 252.59 123.194 252.437 123.173 252.271C123.152 252.106 123.19 251.938 123.278 251.797L133.92 235.28L117.907 223.76C117.775 223.665 117.678 223.528 117.634 223.371C117.589 223.214 117.599 223.046 117.662 222.896L125.87 203.6C125.949 203.426 126.092 203.29 126.27 203.221C126.447 203.151 126.645 203.153 126.821 203.226C126.993 203.302 127.129 203.442 127.199 203.617C127.269 203.792 127.268 203.988 127.195 204.162L119.203 222.882L135.302 234.402C135.451 234.509 135.551 234.669 135.584 234.849C135.616 235.029 135.577 235.215 135.475 235.366L124.819 251.998L155.059 280.266C155.127 280.333 155.18 280.412 155.217 280.5C155.253 280.588 155.272 280.682 155.272 280.777C155.272 280.872 155.253 280.966 155.217 281.054C155.18 281.141 155.127 281.221 155.059 281.288C154.998 281.369 154.92 281.437 154.83 281.487C154.741 281.536 154.642 281.567 154.541 281.576Z" fill="#231F20"/>
<path d="M175.766 277.299C175.685 277.313 175.603 277.313 175.522 277.299C175.342 277.234 175.196 277.101 175.115 276.928C175.034 276.755 175.025 276.557 175.09 276.378L188.971 236.72L180.331 232.054C180.224 231.996 180.133 231.911 180.068 231.808C180.002 231.704 179.964 231.586 179.957 231.464C179.95 231.342 179.975 231.219 180.027 231.109C180.08 230.998 180.16 230.902 180.259 230.83L188.899 224.739L172.44 200.36C172.333 200.202 172.293 200.007 172.33 199.819C172.366 199.632 172.476 199.466 172.634 199.359C172.793 199.252 172.987 199.213 173.175 199.249C173.363 199.286 173.528 199.395 173.635 199.554L190.483 224.523C190.588 224.678 190.627 224.868 190.592 225.052C190.557 225.235 190.451 225.397 190.296 225.502L181.987 231.334L190.224 235.741C190.372 235.823 190.486 235.955 190.547 236.113C190.607 236.271 190.61 236.445 190.555 236.605L176.472 276.752C176.431 276.908 176.339 277.046 176.212 277.145C176.084 277.244 175.928 277.298 175.766 277.299Z" fill="#231F20"/>
<path d="M213.221 253.539C213.221 253.539 246.96 293.859 264.067 293.859C275.342 293.859 308.707 259.04 314.05 253.712C316.208 251.276 318.516 248.977 320.962 246.829C324.706 243.949 329.414 242.106 333.504 239.758C338.016 237.419 341.917 234.056 344.894 229.938C346.093 228.305 346.739 226.332 346.738 224.307C346.435 219.238 337.392 215.293 333.043 215.437C328.104 215.595 307.915 227.634 302.933 228.08C302.933 228.08 282.514 245 266.472 254.648C254.952 243.646 244.613 232.184 244.613 232.184" fill="white"/>
<path d="M264.067 294.594C246.787 294.594 214.056 255.714 212.659 254C212.543 253.849 212.488 253.659 212.507 253.469C212.525 253.279 212.616 253.103 212.76 252.978C212.831 252.916 212.914 252.869 213.004 252.84C213.094 252.811 213.188 252.8 213.282 252.808C213.376 252.816 213.468 252.843 213.551 252.887C213.635 252.931 213.708 252.991 213.768 253.064C214.099 253.467 247.493 293.154 264.067 293.154C270.778 293.154 286.848 280.294 311.832 254.936L313.546 253.208C314.266 252.488 314.986 251.768 315.706 250.933C317.182 249.252 318.79 247.692 320.515 246.267C323.079 244.41 325.818 242.809 328.694 241.486C330.134 240.738 331.718 239.96 333.144 239.139C336.514 237.21 341.323 234.099 344.29 229.549C345.42 228.058 346.027 226.236 346.018 224.365C345.758 219.915 337.378 216.171 333.274 216.171H333.072C330.667 216.243 323.798 219.627 317.722 222.608C311.645 225.589 305.885 228.368 303.221 228.786C301.248 230.427 281.995 246.166 266.846 255.282C266.709 255.363 266.549 255.396 266.39 255.378C266.232 255.36 266.084 255.291 265.968 255.181C254.563 244.28 244.181 232.803 244.08 232.688C244.013 232.621 243.959 232.541 243.922 232.454C243.886 232.366 243.867 232.272 243.867 232.177C243.867 232.082 243.886 231.988 243.922 231.9C243.959 231.812 244.013 231.733 244.08 231.666C244.147 231.598 244.227 231.545 244.314 231.508C244.402 231.471 244.496 231.453 244.591 231.453C244.686 231.453 244.78 231.471 244.868 231.508C244.956 231.545 245.036 231.598 245.102 231.666C245.203 231.766 255.298 242.955 266.515 253.698C282.254 244.15 302.213 227.662 302.414 227.49C302.523 227.396 302.66 227.34 302.803 227.331C305.093 227.115 311.155 224.134 317.03 221.254C323.827 217.914 330.264 214.76 332.971 214.674H333.216C337.91 214.674 347.069 218.648 347.4 224.221C347.42 226.4 346.733 228.527 345.442 230.283C342.302 235.093 337.291 238.318 333.806 240.363C332.366 241.198 330.797 241.99 329.285 242.739C326.498 244.028 323.841 245.581 321.35 247.376C319.682 248.751 318.126 250.259 316.699 251.883C315.965 252.675 315.259 253.467 314.496 254.202L312.811 255.915C287.237 281.95 271.282 294.594 264.067 294.594Z" fill="#231F20"/>
<path d="M192.528 276.579L167.112 356.6L234.288 360.574L262.93 284.874L192.528 276.579Z" fill="#231F20"/>
<path d="M234.288 361.294L167.04 357.32C166.932 357.315 166.826 357.285 166.731 357.233C166.636 357.18 166.555 357.107 166.493 357.018C166.431 356.926 166.39 356.821 166.373 356.712C166.355 356.602 166.362 356.491 166.392 356.384L191.808 276.363C191.86 276.203 191.966 276.065 192.107 275.973C192.249 275.881 192.418 275.841 192.586 275.859L262.987 284.154C263.097 284.167 263.201 284.205 263.294 284.264C263.386 284.324 263.464 284.405 263.52 284.499C263.569 284.598 263.595 284.706 263.595 284.816C263.595 284.926 263.569 285.035 263.52 285.133L234.878 360.834C234.83 360.956 234.75 361.064 234.646 361.145C234.543 361.226 234.419 361.278 234.288 361.294ZM168.048 355.938L233.798 359.826L261.922 285.478L193.018 277.357L168.048 355.938Z" fill="#231F20"/>
<path d="M69.7104 252.79C69.7104 252.79 47.0736 318.123 58.68 332.178C70.2864 346.232 173.016 332.48 173.016 332.48C173.016 332.48 195.869 334.928 199.958 330.032C204.048 325.136 211.666 300.714 206.338 300.714C201.01 300.714 184.435 306.819 184.435 306.819C184.435 306.819 184.522 295.472 184.435 295.76C184.349 296.048 173.016 305.61 173.016 305.61L93.816 303.262L104.774 258.622" fill="white"/>
<path d="M94.608 339.219C76.968 339.219 62.2224 337.592 58.1328 332.638C46.3968 318.44 68.0976 255.238 69.0336 252.56C69.0628 252.47 69.1097 252.388 69.1714 252.316C69.2331 252.245 69.3085 252.187 69.393 252.145C69.4776 252.104 69.5696 252.08 69.6637 252.074C69.7578 252.069 69.852 252.082 69.9408 252.114C70.1195 252.176 70.2665 252.306 70.3501 252.476C70.4336 252.645 70.447 252.841 70.3872 253.021C70.1568 253.669 48.024 318.138 59.2416 331.717C62.4384 335.59 75.6144 339.637 120.154 336.872C146.88 335.216 172.656 331.76 172.915 331.76H173.088C179.338 332.422 196.258 333.344 199.411 329.571C202.867 325.438 209.102 306.373 207.072 302.01C206.842 301.506 206.568 301.434 206.338 301.434C201.197 301.434 184.838 307.438 184.738 307.496C184.629 307.539 184.511 307.553 184.395 307.538C184.28 307.523 184.169 307.479 184.075 307.41C183.977 307.346 183.898 307.259 183.845 307.155C183.792 307.051 183.767 306.936 183.773 306.819C183.773 303.939 183.773 299.619 183.773 297.373C182.333 298.626 179.453 301.102 173.506 306.157C173.44 306.218 173.363 306.265 173.279 306.294C173.195 306.324 173.105 306.336 173.016 306.33L93.816 303.982C93.7098 303.983 93.6048 303.959 93.5098 303.911C93.4147 303.863 93.3322 303.794 93.2688 303.709C93.205 303.62 93.1606 303.52 93.1382 303.413C93.1159 303.306 93.1162 303.196 93.1392 303.09L104.098 258.45C104.12 258.357 104.16 258.269 104.216 258.191C104.272 258.114 104.343 258.049 104.425 257.999C104.507 257.949 104.598 257.917 104.692 257.902C104.787 257.888 104.883 257.893 104.976 257.917C105.067 257.939 105.153 257.979 105.229 258.034C105.305 258.089 105.368 258.16 105.417 258.24C105.465 258.32 105.497 258.41 105.51 258.503C105.523 258.595 105.518 258.69 105.494 258.781L94.752 302.614L172.786 304.918C176.875 301.462 183.283 296.005 183.874 295.386C183.951 295.274 184.058 295.186 184.183 295.133C184.308 295.079 184.445 295.062 184.579 295.083C184.867 295.083 185.026 295.155 185.126 296.005C185.242 297.171 185.227 299.778 185.126 305.782C188.798 304.458 201.6 300.022 206.309 300.022C206.755 300.031 207.187 300.172 207.552 300.429C207.916 300.686 208.196 301.046 208.354 301.462C210.773 306.646 204.034 326.389 200.477 330.55C196.301 335.533 175.752 333.546 172.987 333.258C169.574 333.661 127.166 339.219 94.608 339.219Z" fill="#231F20"/>
<path d="M210.6 271.496C210.434 271.496 210.273 271.439 210.145 271.334C210.016 271.229 209.928 271.083 209.894 270.92L198.374 210.901C198.356 210.809 198.355 210.714 198.373 210.623C198.392 210.531 198.428 210.443 198.48 210.366C198.532 210.288 198.6 210.221 198.678 210.17C198.756 210.118 198.844 210.083 198.936 210.066C199.123 210.032 199.316 210.074 199.472 210.182C199.629 210.289 199.736 210.455 199.771 210.642L211.363 270.646C211.397 270.833 211.355 271.026 211.247 271.183C211.139 271.339 210.974 271.447 210.787 271.482L210.6 271.496Z" fill="#231F20"/>
<path d="M107.395 252.906H107.179C107.09 252.878 107.007 252.833 106.936 252.772C106.864 252.712 106.805 252.639 106.762 252.556C106.719 252.472 106.693 252.382 106.686 252.289C106.678 252.195 106.689 252.102 106.718 252.013L113.126 231.939C113.184 231.748 113.315 231.588 113.49 231.493C113.666 231.399 113.871 231.378 114.062 231.435C114.253 231.492 114.414 231.623 114.508 231.799C114.603 231.974 114.624 232.18 114.566 232.371L108.158 252.445C108.099 252.595 107.993 252.721 107.855 252.804C107.717 252.888 107.555 252.923 107.395 252.906Z" fill="#231F20"/>
<path d="M308.045 244.554L395.899 148.434L397.267 149.355L311.717 247.03L308.045 244.554Z" fill="#231F20"/>
<path d="M311.717 247.75C311.577 247.749 311.441 247.704 311.328 247.621L307.642 245.158C307.555 245.1 307.482 245.023 307.427 244.934C307.373 244.844 307.338 244.744 307.325 244.64C307.312 244.536 307.323 244.431 307.355 244.331C307.387 244.232 307.441 244.141 307.512 244.064L395.352 147.944C395.47 147.818 395.629 147.738 395.801 147.719C395.973 147.701 396.146 147.745 396.288 147.843L397.728 148.75C397.813 148.808 397.885 148.882 397.94 148.969C397.994 149.056 398.03 149.153 398.045 149.254C398.057 149.357 398.047 149.461 398.018 149.56C397.988 149.659 397.938 149.751 397.872 149.83L312.322 247.506C312.246 247.589 312.152 247.655 312.047 247.697C311.943 247.74 311.83 247.758 311.717 247.75ZM309.139 244.424L311.602 246.08L396.187 149.499L396.014 149.384L309.139 244.424Z" fill="#231F20"/>
<path d="M301.234 229.405C306.994 224.307 313.142 216.243 316.022 213.162C316.573 212.501 317.242 211.949 317.995 211.534C318.956 211.158 319.992 211.015 321.019 211.117C327.274 211.319 333.465 212.44 339.394 214.443C341.286 214.915 342.987 215.961 344.261 217.438C344.613 217.885 344.796 218.44 344.779 219.008C344.693 220.03 343.685 220.678 342.734 221.067C339.675 222.161 336.433 222.65 333.187 222.507C328.55 222.507 327.038 221.384 322.43 220.894C323.006 220.894 323.726 225.862 322.286 228.843C320.706 231.655 318.558 234.107 315.979 236.043" fill="white"/>
<path d="M315.979 236.72C315.876 236.719 315.774 236.697 315.68 236.655C315.586 236.613 315.501 236.552 315.432 236.475C315.299 236.338 315.225 236.155 315.225 235.964C315.225 235.773 315.299 235.59 315.432 235.453L315.619 235.294C318.055 233.452 320.08 231.122 321.566 228.454C322.441 226.213 322.577 223.751 321.955 221.427C321.822 221.337 321.723 221.204 321.674 221.05C321.625 220.896 321.629 220.731 321.686 220.58C321.742 220.429 321.848 220.301 321.985 220.217C322.123 220.133 322.285 220.098 322.445 220.117C324.031 220.293 325.604 220.571 327.154 220.952C329.1 221.462 331.104 221.718 333.115 221.715C336.27 221.838 339.419 221.349 342.389 220.275C342.965 220.045 343.93 219.541 344.002 218.835C343.986 218.441 343.845 218.063 343.598 217.755C342.416 216.401 340.84 215.45 339.091 215.034C333.231 213.04 327.106 211.929 320.918 211.736C320.011 211.637 319.093 211.756 318.24 212.082C317.572 212.451 316.977 212.939 316.483 213.522C315.59 214.472 314.366 215.912 312.955 217.582C309.452 221.899 305.671 225.983 301.637 229.808C301.57 229.876 301.49 229.929 301.403 229.966C301.315 230.002 301.221 230.021 301.126 230.021C301.031 230.021 300.937 230.002 300.849 229.966C300.761 229.929 300.681 229.876 300.614 229.808C300.482 229.671 300.407 229.488 300.407 229.297C300.407 229.106 300.482 228.923 300.614 228.786C304.6 225.009 308.338 220.978 311.803 216.718C313.243 215.019 314.453 213.565 315.374 212.6C316.006 211.755 316.856 211.097 317.832 210.696C318.808 210.295 319.875 210.167 320.918 210.325C327.242 210.529 333.502 211.664 339.494 213.694C341.534 214.207 343.361 215.345 344.722 216.949C345.174 217.537 345.404 218.267 345.37 219.008C345.298 219.771 344.808 220.866 342.893 221.658C339.737 222.765 336.398 223.254 333.058 223.098C330.939 223.1 328.829 222.829 326.779 222.291C325.771 222.061 324.749 221.83 323.467 221.643C323.971 224.118 323.741 226.685 322.805 229.03C321.229 231.865 319.087 234.345 316.512 236.317L316.325 236.475C316.236 236.589 316.116 236.674 315.979 236.72Z" fill="#231F20"/>
</svg>
