<svg width="570" height="430" viewBox="0 0 570 430" fill="none" xmlns="http://www.w3.org/2000/svg">
<path d="M462.084 91.7813C462.084 91.7813 458.778 85.6767 453.534 77.2473C453.534 77.2473 436.691 89.8415 436.819 89.1427C436.947 88.4438 462.084 91.7813 462.084 91.7813Z" fill="#231F20"/>
<path d="M462.085 92.4945H461.985C453.121 91.3106 438.658 89.5563 437.076 89.7702C436.663 89.9414 436.534 89.8558 436.392 89.7702C436.269 89.6871 436.172 89.5702 436.114 89.4336C436.056 89.2969 436.039 89.1464 436.064 89C436.064 88.8003 436.15 88.6006 436.62 88.4865C437.589 88.1014 447.222 81.0412 453.05 76.6767C453.128 76.6174 453.218 76.5753 453.314 76.5531C453.41 76.531 453.509 76.5294 453.606 76.5483C453.702 76.5641 453.794 76.6002 453.875 76.6544C453.956 76.7085 454.025 76.7793 454.076 76.8621C459.334 85.2203 462.626 91.3819 462.712 91.439C462.771 91.5477 462.801 91.6701 462.799 91.7941C462.797 91.918 462.762 92.0392 462.699 92.1458C462.636 92.2523 462.546 92.3405 462.438 92.4017C462.33 92.4628 462.208 92.4948 462.085 92.4945ZM439.285 88.4438C442.391 88.6149 448.533 89.2853 460.731 90.897C459.548 88.7718 456.883 84.1078 453.235 78.2884C445.626 83.9937 441.565 86.9461 439.327 88.4438H439.285Z" fill="#231F20"/>
<path d="M238.901 346.163L230.493 332.128L242.135 321.602L238.901 346.163Z" fill="#231F20"/>
<path d="M238.901 346.876C238.778 346.874 238.658 346.842 238.551 346.782C238.444 346.723 238.354 346.637 238.288 346.534L229.881 332.499C229.796 332.356 229.764 332.188 229.79 332.024C229.816 331.86 229.898 331.71 230.023 331.601L241.651 321.074C241.76 320.976 241.896 320.914 242.041 320.896C242.187 320.878 242.334 320.906 242.463 320.975C242.591 321.045 242.694 321.152 242.76 321.281C242.826 321.411 242.852 321.558 242.834 321.702L239.613 346.22C239.595 346.37 239.53 346.509 239.428 346.62C239.325 346.73 239.191 346.805 239.043 346.834L238.901 346.876ZM231.405 332.271L238.53 344.038L241.238 323.428L231.405 332.271Z" fill="#231F20"/>
<path d="M244.359 349.073L379.734 368.371C382.51 368.739 385.327 368.103 387.678 366.579C390.028 365.055 391.759 362.742 392.559 360.055L462.612 97.7576C464.037 92.3233 460.574 87.5452 454.831 87.0745L316.791 75.935C314.063 75.8009 311.368 76.5886 309.14 78.1716C306.913 79.7547 305.281 82.0413 304.508 84.664L237.291 338.29C236.942 339.467 236.854 340.706 237.032 341.921C237.211 343.135 237.652 344.296 238.325 345.323C238.998 346.349 239.886 347.217 240.928 347.864C241.97 348.512 243.141 348.924 244.359 349.073Z" fill="#231F20"/>
<path d="M381.23 369.241C380.682 369.238 380.134 369.2 379.591 369.127L244.216 349.815C242.907 349.653 241.647 349.212 240.524 348.52C239.4 347.829 238.438 346.903 237.704 345.807C236.973 344.68 236.493 343.409 236.294 342.081C236.094 340.752 236.182 339.396 236.549 338.105L303.767 84.5214C304.589 81.7356 306.32 79.3059 308.683 77.6202C311.047 75.9346 313.906 75.0902 316.805 75.2219L454.845 86.3614C456.245 86.4448 457.608 86.8357 458.84 87.5062C460.071 88.1767 461.14 89.1104 461.97 90.2409C462.734 91.3527 463.24 92.621 463.452 93.9534C463.664 95.2858 463.577 96.6488 463.196 97.943L393.143 360.241C392.381 362.819 390.812 365.085 388.668 366.705C386.523 368.325 383.916 369.214 381.23 369.241ZM244.43 348.402L379.805 367.715C382.415 368.063 385.064 367.469 387.276 366.039C389.488 364.609 391.118 362.437 391.874 359.913L461.87 97.6292C462.201 96.5363 462.281 95.383 462.106 94.2548C461.931 93.1265 461.505 92.0521 460.859 91.111C460.146 90.1423 459.225 89.3452 458.165 88.7777C457.105 88.2102 455.932 87.8866 454.731 87.8305L316.691 76.6482C314.126 76.5133 311.59 77.2499 309.494 78.7385C307.399 80.2272 305.868 82.3805 305.149 84.8495L237.974 338.475C237.656 339.571 237.577 340.723 237.741 341.853C237.906 342.982 238.311 344.063 238.929 345.022C239.557 345.948 240.375 346.728 241.328 347.311C242.282 347.894 243.349 348.266 244.458 348.402H244.43Z" fill="#231F20"/>
<path d="M235.552 334.639L370.927 353.937C373.702 354.298 376.516 353.661 378.866 352.138C381.215 350.614 382.947 348.305 383.752 345.621L453.79 83.3233C455.215 77.8891 451.753 73.1109 446.01 72.6403L307.942 61.5008C305.212 61.3684 302.516 62.1566 300.286 63.7392C298.057 65.3217 296.422 67.6072 295.644 70.2298L228.469 323.813C228.113 324.994 228.02 326.238 228.196 327.459C228.372 328.68 228.813 329.847 229.488 330.879C230.163 331.911 231.056 332.782 232.103 333.432C233.151 334.081 234.328 334.493 235.552 334.639Z" fill="white"/>
<path d="M372.423 354.778C371.875 354.776 371.328 354.737 370.785 354.664L235.41 335.352C234.1 335.191 232.841 334.749 231.717 334.058C230.594 333.366 229.632 332.441 228.897 331.344C228.166 330.217 227.685 328.947 227.486 327.618C227.287 326.29 227.374 324.934 227.743 323.642L294.975 70.0587C295.798 67.2755 297.53 64.8493 299.894 63.1684C302.258 61.4875 305.117 60.6492 308.013 60.7877L446.025 71.9271C447.436 72.0012 448.813 72.3876 450.058 73.0585C451.302 73.7293 452.382 74.6679 453.221 75.8067C453.981 76.9202 454.485 78.1884 454.697 79.5201C454.909 80.8518 454.823 82.214 454.446 83.5087L384.393 345.807C383.623 348.389 382.044 350.655 379.888 352.271C377.733 353.886 375.116 354.765 372.423 354.778ZM307.116 62.1854C304.691 62.2526 302.35 63.0845 300.425 64.5624C298.501 66.0402 297.092 68.0886 296.4 70.4152L229.168 323.998C228.85 325.094 228.77 326.246 228.935 327.376C229.1 328.505 229.505 329.586 230.123 330.545C230.75 331.471 231.568 332.251 232.522 332.834C233.476 333.417 234.543 333.789 235.652 333.926L371.027 353.238C373.63 353.575 376.269 352.976 378.472 351.547C380.675 350.118 382.299 347.952 383.054 345.436L453.064 83.1522C453.391 82.0589 453.47 80.9062 453.295 79.7784C453.12 78.6507 452.696 77.5763 452.052 76.6339C451.338 75.6635 450.415 74.8653 449.353 74.2977C448.29 73.7301 447.114 73.4074 445.911 73.3534L307.885 62.214L307.116 62.1854Z" fill="#231F20"/>
<path d="M440.381 100.582L299.064 88.3297L244.843 292.948L384.094 311.475L440.381 100.582Z" fill="#0D9488"/>
<path d="M378.394 283.277C378.259 283.278 378.126 283.239 378.012 283.166C377.898 283.092 377.808 282.987 377.753 282.864L349.253 222.545C349.212 222.46 349.188 222.368 349.184 222.273C349.179 222.179 349.193 222.085 349.224 221.996C349.256 221.907 349.305 221.825 349.369 221.755C349.433 221.686 349.509 221.629 349.595 221.59C349.765 221.511 349.959 221.504 350.135 221.568C350.311 221.632 350.455 221.763 350.535 221.932L379.035 282.265C379.076 282.349 379.099 282.44 379.104 282.533C379.109 282.627 379.095 282.72 379.063 282.808C379.031 282.895 378.982 282.976 378.918 283.044C378.855 283.113 378.778 283.168 378.693 283.206C378.599 283.25 378.498 283.274 378.394 283.277Z" fill="white"/>
<path d="M291.483 333.112L317.903 336.835C319.581 337.042 321.278 336.645 322.69 335.714C324.102 334.784 325.138 333.382 325.612 331.757L328.234 321.902C328.454 321.153 328.506 320.366 328.387 319.595C328.267 318.824 327.98 318.089 327.545 317.442C327.109 316.795 326.537 316.252 325.868 315.852C325.199 315.452 324.45 315.204 323.674 315.127L297.226 311.532C295.564 311.351 293.891 311.76 292.5 312.688C291.109 313.616 290.088 315.005 289.617 316.61L287.009 326.38C286.789 327.12 286.735 327.899 286.849 328.661C286.964 329.424 287.244 330.153 287.671 330.795C288.098 331.437 288.661 331.978 289.32 332.378C289.979 332.779 290.717 333.029 291.483 333.112Z" fill="white"/>
<path d="M318.787 337.662C318.457 337.667 318.128 337.643 317.803 337.591L291.384 333.883C290.518 333.783 289.685 333.495 288.942 333.039C288.199 332.583 287.565 331.971 287.083 331.244C286.601 330.517 286.284 329.694 286.153 328.832C286.022 327.97 286.081 327.089 286.325 326.252L288.919 316.482C289.437 314.708 290.565 313.174 292.103 312.151C293.642 311.128 295.491 310.682 297.326 310.891L323.774 314.471C324.654 314.575 325.501 314.867 326.258 315.327C327.015 315.787 327.665 316.405 328.163 317.138C328.639 317.87 328.952 318.696 329.082 319.559C329.213 320.423 329.157 321.304 328.918 322.144L326.325 331.957C325.851 333.595 324.861 335.035 323.503 336.064C322.144 337.092 320.49 337.653 318.787 337.662ZM291.583 332.471L318.003 336.179C319.506 336.362 321.026 336.006 322.292 335.172C323.557 334.339 324.487 333.084 324.914 331.629L327.55 321.773C327.732 321.128 327.776 320.45 327.678 319.787C327.579 319.123 327.342 318.487 326.98 317.922C326.592 317.361 326.088 316.889 325.503 316.538C324.919 316.186 324.266 315.963 323.589 315.883L297.127 312.303C295.637 312.131 294.135 312.493 292.886 313.323C291.637 314.153 290.721 315.398 290.301 316.838L287.707 326.623C287.513 327.264 287.462 327.941 287.559 328.605C287.656 329.268 287.898 329.902 288.269 330.461C288.639 331.02 289.128 331.489 289.701 331.837C290.274 332.184 290.917 332.401 291.583 332.471Z" fill="#E6E7E8"/>
<path d="M398.572 82.9953L358.202 79.6149C358.108 79.6065 358.017 79.5797 357.934 79.5361C357.851 79.4924 357.777 79.4328 357.717 79.3607C357.657 79.2885 357.611 79.2051 357.583 79.1154C357.555 79.0256 357.545 78.9312 357.554 78.8376C357.562 78.7439 357.589 78.6529 357.632 78.5696C357.676 78.4863 357.736 78.4124 357.808 78.3521C357.88 78.2918 357.963 78.2464 358.053 78.2183C358.142 78.1903 358.237 78.1802 358.33 78.1886L398.686 81.5547C398.875 81.5547 399.056 81.6298 399.19 81.7636C399.324 81.8973 399.399 82.0787 399.399 82.2678C399.399 82.457 399.324 82.6384 399.19 82.7721C399.056 82.9059 398.875 82.981 398.686 82.981L398.572 82.9953Z" fill="#D1D3D4"/>
<path d="M352.602 79.1442L347.244 78.7021C347.151 78.695 347.06 78.6692 346.977 78.6264C346.894 78.5835 346.82 78.5244 346.76 78.4526C346.701 78.3808 346.656 78.2977 346.629 78.2083C346.602 78.1188 346.593 78.0248 346.602 77.9319C346.621 77.7439 346.711 77.5704 346.855 77.448C346.998 77.3255 347.184 77.2638 347.372 77.2758L352.716 77.7322C352.905 77.7322 353.086 77.8073 353.22 77.9411C353.353 78.0748 353.428 78.2562 353.428 78.4453C353.428 78.6345 353.353 78.8159 353.22 78.9496C353.086 79.0834 352.905 79.1585 352.716 79.1585L352.602 79.1442Z" fill="#D1D3D4"/>
<path d="M392.245 213.488C392.245 213.488 409.601 156.208 394.553 143.513L320.909 134.642C320.909 134.642 308.284 147.807 306.46 157.919C304.636 168.032 289.36 189.569 295.06 202.42L392.245 213.488Z" fill="#231F20"/>
<path d="M392.245 214.201H392.174L294.974 203.119C294.852 203.104 294.736 203.058 294.636 202.986C294.536 202.913 294.457 202.817 294.404 202.705C290.457 193.777 296.228 180.897 300.874 170.542C303.168 165.436 305.149 161.014 305.719 157.791C307.557 147.578 319.826 134.685 320.354 134.143C320.43 134.063 320.524 134.002 320.628 133.965C320.731 133.928 320.843 133.916 320.952 133.929L394.596 142.815C394.731 142.833 394.859 142.887 394.967 142.971C410.2 155.808 393.542 211.349 392.886 213.702C392.843 213.841 392.758 213.963 392.643 214.052C392.529 214.141 392.39 214.193 392.245 214.201ZM295.601 201.75L391.732 212.718C393.47 206.756 407.706 156.036 394.254 144.255L321.18 135.441C319.442 137.323 308.783 149.076 307.158 158.105C306.545 161.499 304.536 165.992 302.213 171.184C297.824 181.068 292.224 193.406 295.601 201.75Z" fill="#231F20"/>
<path d="M399.199 215.171H399.099L276.022 197.884C275.837 197.856 275.671 197.757 275.559 197.607C275.448 197.458 275.399 197.271 275.423 197.086C275.448 196.898 275.546 196.729 275.696 196.614C275.845 196.499 276.034 196.448 276.221 196.472L399.298 213.759C399.487 213.787 399.656 213.888 399.771 214.04C399.885 214.192 399.936 214.383 399.911 214.572C399.881 214.74 399.793 214.891 399.663 215.001C399.533 215.11 399.369 215.17 399.199 215.171Z" fill="#231F20"/>
<path d="M394.554 143.513C394.554 143.513 387.087 144.54 382.513 160.087C375.516 183.878 366.296 234.084 360.468 252.968C351.918 280.439 329.118 284.347 329.118 284.347L232.717 270.355C232.717 270.355 271.947 256.748 278.573 233.613C285.542 209.238 295.189 163.182 297.797 152.899C302.399 134.685 320.953 134.685 320.953 134.685L394.554 143.513Z" fill="white"/>
<path d="M329.075 285.017H328.975L232.574 271.025C232.416 271.001 232.269 270.925 232.159 270.809C232.048 270.693 231.978 270.543 231.961 270.384C231.946 270.225 231.984 270.066 232.069 269.932C232.154 269.797 232.282 269.695 232.432 269.642C232.831 269.513 271.405 255.878 277.846 233.371C282.677 216.469 288.876 188.827 292.966 170.528C294.804 162.326 296.257 155.837 297.055 152.685C301.744 134.143 320.725 133.929 320.91 133.929L394.639 142.815C394.811 142.835 394.969 142.918 395.084 143.046C395.199 143.175 395.264 143.341 395.266 143.513C395.265 143.686 395.203 143.852 395.091 143.983C394.979 144.113 394.824 144.2 394.654 144.227C394.54 144.227 387.529 145.525 383.254 160.287C379.705 172.325 375.616 191.095 371.64 209.252C367.764 227.038 364.087 243.84 361.209 253.182C356.763 267.574 348.384 275.461 342.028 279.54C338.133 282.152 333.783 284.01 329.203 285.017H329.075ZM235.495 270.013L329.061 283.591C330.728 283.249 351.861 278.528 359.784 252.754C362.634 243.469 366.325 226.696 370.201 208.952C374.162 190.767 378.28 171.968 381.829 159.887C384.835 149.689 389.082 145.624 391.804 143.899L320.824 135.341C320.169 135.341 302.855 135.583 298.438 153.041C297.654 156.165 296.2 162.64 294.362 170.842C290.258 189.155 284.059 216.826 279.214 233.77C275.723 245.937 263.297 255.422 253.479 261.227C247.713 264.602 241.702 267.539 235.495 270.013Z" fill="#231F20"/>
<path d="M348.212 254.637H348.127L335.088 253.211C334.901 253.189 334.731 253.095 334.613 252.948C334.496 252.801 334.441 252.613 334.461 252.426C334.47 252.333 334.497 252.242 334.542 252.16C334.586 252.077 334.647 252.005 334.72 251.946C334.793 251.888 334.877 251.844 334.967 251.819C335.058 251.794 335.152 251.787 335.245 251.799L348.298 253.225C348.485 253.247 348.655 253.341 348.773 253.488C348.89 253.635 348.945 253.822 348.925 254.009C348.901 254.182 348.816 254.341 348.685 254.456C348.554 254.571 348.387 254.635 348.212 254.637Z" fill="#D1D3D4"/>
<path d="M324.572 251.956H324.486L285.455 247.52C285.269 247.498 285.098 247.404 284.98 247.257C284.863 247.11 284.808 246.922 284.828 246.735C284.837 246.642 284.865 246.551 284.909 246.469C284.954 246.386 285.014 246.314 285.087 246.255C285.16 246.197 285.244 246.153 285.335 246.128C285.425 246.103 285.519 246.096 285.612 246.108L324.657 250.529C324.846 250.541 325.023 250.627 325.148 250.768C325.274 250.91 325.338 251.096 325.327 251.285C325.315 251.474 325.23 251.651 325.088 251.777C324.946 251.903 324.761 251.967 324.572 251.956Z" fill="#D1D3D4"/>
<path d="M336.556 269.542H336.471L324.487 268.116C324.393 268.104 324.303 268.075 324.22 268.029C324.138 267.982 324.066 267.92 324.008 267.846C323.95 267.772 323.907 267.687 323.881 267.596C323.856 267.506 323.848 267.411 323.86 267.317C323.871 267.223 323.9 267.133 323.947 267.051C323.993 266.968 324.055 266.896 324.129 266.838C324.203 266.779 324.288 266.736 324.378 266.711C324.469 266.685 324.564 266.678 324.658 266.689L336.642 268.116C336.735 268.121 336.827 268.145 336.911 268.186C336.996 268.227 337.071 268.285 337.133 268.355C337.195 268.425 337.243 268.507 337.274 268.595C337.304 268.684 337.317 268.778 337.312 268.872C337.306 268.965 337.282 269.057 337.241 269.141C337.2 269.226 337.143 269.301 337.073 269.363C337.003 269.426 336.921 269.473 336.832 269.504C336.744 269.535 336.65 269.548 336.556 269.542Z" fill="#D1D3D4"/>
<path d="M311.206 266.661H311.12L273.8 262.382C273.611 262.361 273.438 262.266 273.319 262.118C273.2 261.969 273.145 261.779 273.165 261.59C273.186 261.401 273.281 261.228 273.43 261.109C273.578 260.99 273.767 260.935 273.956 260.956L311.291 265.235C311.478 265.256 311.649 265.351 311.766 265.498C311.884 265.644 311.938 265.832 311.918 266.019C311.898 266.194 311.814 266.356 311.683 266.474C311.552 266.592 311.382 266.659 311.206 266.661Z" fill="#D1D3D4"/>
<path d="M329.075 284.304C323.436 279.089 319.099 272.622 316.413 265.423C313.728 258.224 312.769 250.494 313.613 242.856L212.438 224.585C212.438 224.585 221.117 258.488 232.659 270.312L329.075 284.304Z" fill="white"/>
<path d="M329.075 285.017H328.975L232.574 271.025C232.417 270.998 232.273 270.924 232.16 270.811C220.618 258.987 212.111 226.154 211.754 224.756C211.725 224.641 211.725 224.52 211.755 224.406C211.785 224.291 211.844 224.186 211.925 224.1C212.006 224.009 212.109 223.94 212.223 223.9C212.338 223.86 212.461 223.851 212.581 223.872L313.756 242.143C313.931 242.18 314.085 242.281 314.191 242.426C314.296 242.571 314.344 242.749 314.326 242.927C313.527 250.449 314.486 258.053 317.127 265.14C319.768 272.227 324.019 278.602 329.545 283.762C329.664 283.852 329.751 283.978 329.793 284.122C329.835 284.265 329.83 284.418 329.779 284.558C329.728 284.699 329.634 284.819 329.51 284.901C329.385 284.984 329.238 285.025 329.089 285.017H329.075ZM233.015 269.642L326.951 283.277C321.855 278.057 317.953 271.791 315.514 264.913C313.076 258.035 312.16 250.708 312.83 243.441L213.422 225.483C215.018 231.317 222.969 259.13 233.015 269.642Z" fill="#231F20"/>
<path d="M369.146 165.75H369.075L306.375 158.618C306.28 158.609 306.188 158.581 306.105 158.536C306.021 158.491 305.948 158.429 305.889 158.354C305.831 158.279 305.788 158.193 305.764 158.101C305.739 158.009 305.734 157.913 305.748 157.819C305.769 157.632 305.864 157.462 306.011 157.344C306.157 157.226 306.345 157.172 306.532 157.192L369.232 164.323C369.421 164.333 369.598 164.417 369.725 164.557C369.852 164.698 369.918 164.883 369.908 165.072C369.899 165.261 369.815 165.439 369.675 165.566C369.534 165.693 369.349 165.759 369.16 165.75H369.146Z" fill="#D1D3D4"/>
<path d="M366.524 181.895H366.439L354.668 180.555C354.575 180.543 354.484 180.514 354.402 180.468C354.32 180.421 354.248 180.359 354.189 180.285C354.131 180.211 354.088 180.126 354.063 180.035C354.037 179.945 354.03 179.85 354.041 179.756C354.052 179.662 354.082 179.572 354.128 179.49C354.174 179.407 354.236 179.335 354.31 179.277C354.384 179.218 354.469 179.175 354.56 179.15C354.651 179.124 354.746 179.117 354.839 179.128L366.596 180.455C366.689 180.459 366.781 180.483 366.865 180.523C366.95 180.563 367.026 180.619 367.089 180.689C367.152 180.758 367.2 180.84 367.232 180.928C367.263 181.016 367.277 181.11 367.272 181.204C367.268 181.297 367.245 181.389 367.205 181.474C367.164 181.559 367.108 181.635 367.038 181.697C366.969 181.76 366.888 181.809 366.8 181.84C366.711 181.872 366.618 181.886 366.524 181.881V181.895Z" fill="#D1D3D4"/>
<path d="M341.572 179.057L303.838 174.778C303.649 174.757 303.476 174.662 303.357 174.514C303.238 174.365 303.183 174.176 303.204 173.987C303.224 173.797 303.319 173.624 303.468 173.505C303.616 173.386 303.805 173.331 303.994 173.352L341.728 177.631C341.822 177.636 341.914 177.66 341.998 177.701C342.082 177.742 342.158 177.8 342.22 177.87C342.282 177.94 342.33 178.022 342.36 178.11C342.391 178.199 342.404 178.293 342.398 178.387C342.393 178.48 342.369 178.572 342.328 178.656C342.287 178.741 342.229 178.816 342.159 178.878C342.089 178.941 342.007 178.988 341.919 179.019C341.83 179.05 341.736 179.063 341.643 179.057H341.572Z" fill="#D1D3D4"/>
<path d="M362.648 196.943H362.562L343.168 194.746C342.98 194.721 342.81 194.624 342.692 194.475C342.575 194.326 342.521 194.136 342.541 193.948C342.566 193.76 342.664 193.589 342.813 193.471C342.962 193.354 343.151 193.3 343.339 193.32L362.719 195.531C362.812 195.54 362.903 195.567 362.985 195.612C363.068 195.656 363.14 195.717 363.199 195.79C363.257 195.863 363.301 195.948 363.326 196.038C363.351 196.128 363.358 196.222 363.346 196.315C363.326 196.487 363.243 196.645 363.115 196.76C362.987 196.876 362.821 196.941 362.648 196.943Z" fill="#D1D3D4"/>
<path d="M324.571 192.621H324.486L299.89 189.769C299.797 189.758 299.706 189.73 299.624 189.684C299.541 189.639 299.468 189.578 299.41 189.504C299.351 189.431 299.307 189.346 299.28 189.256C299.254 189.165 299.246 189.071 299.256 188.977C299.267 188.883 299.295 188.793 299.34 188.71C299.386 188.627 299.447 188.555 299.52 188.496C299.594 188.437 299.678 188.393 299.768 188.367C299.859 188.34 299.954 188.332 300.047 188.342L324.657 191.124C324.845 191.149 325.016 191.246 325.133 191.395C325.25 191.545 325.304 191.734 325.284 191.922C325.277 192.108 325.199 192.284 325.066 192.413C324.934 192.543 324.757 192.618 324.571 192.621Z" fill="#D1D3D4"/>
<path d="M359.342 211.192H359.256L343.082 209.295C342.894 209.27 342.724 209.172 342.606 209.023C342.489 208.874 342.435 208.685 342.455 208.496C342.484 208.309 342.582 208.141 342.73 208.024C342.878 207.907 343.066 207.852 343.253 207.868L359.413 209.708C359.602 209.718 359.779 209.802 359.906 209.942C360.033 210.083 360.099 210.268 360.09 210.457C360.08 210.646 359.996 210.824 359.856 210.951C359.716 211.078 359.531 211.144 359.342 211.135V211.192Z" fill="#D1D3D4"/>
<path d="M325.911 207.398H325.826L296.571 204.074C296.384 204.053 296.213 203.958 296.096 203.811C295.978 203.665 295.923 203.477 295.944 203.29C295.968 203.102 296.066 202.931 296.215 202.814C296.364 202.696 296.553 202.642 296.742 202.662L325.983 205.986C326.171 205.986 326.353 206.061 326.486 206.195C326.62 206.328 326.695 206.51 326.695 206.699C326.695 206.888 326.62 207.069 326.486 207.203C326.353 207.337 326.171 207.412 325.983 207.412L325.911 207.398Z" fill="#D1D3D4"/>
<path d="M355.908 226.967L341.558 225.341C341.371 225.319 341.2 225.225 341.083 225.078C340.965 224.931 340.911 224.743 340.931 224.556C340.94 224.463 340.967 224.372 341.012 224.29C341.056 224.207 341.117 224.135 341.19 224.076C341.263 224.018 341.347 223.974 341.437 223.949C341.527 223.924 341.622 223.917 341.715 223.929L356.064 225.555C356.253 225.566 356.43 225.652 356.556 225.794C356.681 225.936 356.745 226.121 356.734 226.311C356.723 226.5 356.637 226.677 356.495 226.802C356.354 226.928 356.168 226.992 355.979 226.981L355.908 226.967Z" fill="#D1D3D4"/>
<path d="M332.609 224.328H332.523L293.151 219.849C292.964 219.828 292.793 219.733 292.676 219.586C292.558 219.439 292.504 219.252 292.524 219.065C292.532 218.972 292.56 218.881 292.604 218.799C292.649 218.716 292.709 218.643 292.783 218.585C292.856 218.526 292.94 218.483 293.03 218.458C293.12 218.432 293.214 218.425 293.307 218.437L332.68 222.902C332.869 222.911 333.046 222.995 333.173 223.136C333.3 223.276 333.366 223.461 333.357 223.651C333.347 223.84 333.263 224.017 333.123 224.144C332.983 224.271 332.798 224.337 332.609 224.328Z" fill="#D1D3D4"/>
<path d="M352.288 239.732H352.203L335.103 237.792C334.916 237.771 334.745 237.676 334.628 237.529C334.51 237.382 334.456 237.195 334.476 237.008C334.485 236.915 334.512 236.824 334.556 236.742C334.601 236.659 334.662 236.586 334.735 236.528C334.808 236.469 334.892 236.426 334.982 236.401C335.072 236.375 335.167 236.368 335.259 236.38L352.359 238.32C352.548 238.331 352.725 238.417 352.851 238.559C352.976 238.701 353.041 238.887 353.029 239.076C353.018 239.265 352.932 239.442 352.79 239.568C352.649 239.694 352.463 239.758 352.274 239.746L352.288 239.732Z" fill="#D1D3D4"/>
<path d="M327.45 236.922L289.602 232.643C289.413 232.623 289.24 232.527 289.121 232.379C289.003 232.231 288.947 232.041 288.968 231.852C288.989 231.663 289.084 231.49 289.232 231.37C289.381 231.251 289.57 231.196 289.759 231.217L327.607 235.496C327.796 235.507 327.973 235.593 328.098 235.735C328.224 235.877 328.288 236.063 328.277 236.252C328.265 236.441 328.18 236.618 328.038 236.744C327.896 236.869 327.711 236.934 327.522 236.922H327.45Z" fill="#D1D3D4"/>
<path d="M130.639 144.232L163.351 214.608C166.06 220.436 172.976 222.962 178.799 220.251L286.695 170.007C292.517 167.295 295.042 160.373 292.333 154.545L259.621 84.1688C256.912 78.3409 249.995 75.8144 244.173 78.5259L136.277 128.77C130.454 131.482 127.93 138.404 130.639 144.232Z" fill="white"/>
<path d="M173.921 222.132C171.569 222.135 169.266 221.465 167.281 220.202C165.297 218.938 163.715 217.133 162.721 215L129.946 144.626C128.567 141.656 128.423 138.26 129.546 135.185C130.668 132.109 132.965 129.605 135.931 128.223L243.832 77.9747C246.799 76.5951 250.191 76.4511 253.264 77.5745C256.337 78.6978 258.839 80.9964 260.219 83.9652L292.923 154.339C293.608 155.808 293.997 157.398 294.067 159.018C294.138 160.638 293.889 162.256 293.334 163.779C292.78 165.302 291.93 166.701 290.835 167.896C289.74 169.091 288.421 170.058 286.952 170.742L179.051 220.99C177.444 221.738 175.693 222.127 173.921 222.132ZM249.076 78.1601C247.491 78.1612 245.925 78.5067 244.487 79.1728L136.586 129.422C133.965 130.645 131.935 132.86 130.944 135.579C129.953 138.299 130.081 141.302 131.299 143.927L164.074 214.315C165.299 216.94 167.515 218.972 170.234 219.964C172.954 220.956 175.956 220.827 178.581 219.607L286.425 169.358C289.046 168.135 291.076 165.92 292.067 163.2C293.058 160.481 292.93 157.478 291.712 154.853L258.937 84.4644C258.059 82.5862 256.666 80.9964 254.92 79.8802C253.174 78.7641 251.147 78.1675 249.076 78.1601Z" fill="#231F20"/>
<path d="M225.01 112.215L233.263 129.971C235.222 134.184 240.222 136.011 244.432 134.051L256.991 128.203C261.201 126.242 263.026 121.237 261.067 117.023L252.814 99.2674C250.855 95.0535 245.855 93.2268 241.645 95.1872L229.086 101.035C224.876 102.996 223.051 108.001 225.01 112.215Z" fill="#0D9488"/>
<path d="M147.713 138.924C145.123 140.13 144 143.21 145.205 145.802C146.41 148.395 149.487 149.519 152.077 148.313L176.25 137.056C178.841 135.849 179.963 132.77 178.758 130.177C177.553 127.585 174.477 126.461 171.886 127.667L147.713 138.924Z" fill="#D1D3D4"/>
<path d="M252.102 157.757L254.417 162.735C255.024 164.042 256.575 164.609 257.881 164.001L276.073 155.53C277.378 154.921 277.944 153.369 277.337 152.062L275.023 147.083C274.415 145.776 272.864 145.21 271.558 145.818L253.367 154.289C252.061 154.897 251.495 156.45 252.102 157.757Z" fill="#D1D3D4"/>
<path d="M224.336 170.7L226.65 175.679C227.258 176.986 228.809 177.553 230.114 176.945L248.306 168.474C249.612 167.865 250.178 166.313 249.57 165.006L247.256 160.027C246.649 158.72 245.097 158.154 243.792 158.762L225.6 167.233C224.294 167.841 223.728 169.393 224.336 170.7Z" fill="#D1D3D4"/>
<path d="M196.551 183.623L198.865 188.602C199.472 189.909 201.023 190.476 202.329 189.868L220.521 181.396C221.827 180.788 222.393 179.236 221.785 177.929L219.471 172.95C218.863 171.643 217.312 171.076 216.006 171.684L197.815 180.156C196.509 180.764 195.943 182.316 196.551 183.623Z" fill="#D1D3D4"/>
<path d="M168.785 196.553L171.099 201.532C171.707 202.839 173.258 203.405 174.564 202.797L192.755 194.326C194.061 193.718 194.627 192.165 194.02 190.858L191.705 185.88C191.098 184.573 189.547 184.006 188.241 184.614L170.049 193.085C168.743 193.693 168.177 195.246 168.785 196.553Z" fill="#D1D3D4"/>
<path d="M371.397 132.274C371.278 132.275 371.16 132.246 371.055 132.188C370.95 132.131 370.862 132.047 370.799 131.946L351.689 101.994C351.599 101.835 351.573 101.648 351.616 101.47C351.66 101.293 351.769 101.139 351.923 101.04C352.076 100.942 352.262 100.906 352.441 100.94C352.62 100.974 352.78 101.075 352.886 101.223L371.996 131.176C372.097 131.335 372.132 131.528 372.092 131.712C372.052 131.897 371.94 132.058 371.782 132.16C371.669 132.238 371.534 132.278 371.397 132.274Z" fill="white"/>
<path d="M313.613 123.574C313.482 123.574 313.352 123.538 313.239 123.47C313.126 123.402 313.034 123.305 312.972 123.189L303.211 104.319C303.166 104.236 303.139 104.146 303.13 104.053C303.121 103.96 303.131 103.867 303.159 103.778C303.187 103.688 303.232 103.606 303.293 103.535C303.353 103.463 303.427 103.405 303.51 103.363C303.593 103.318 303.684 103.291 303.778 103.282C303.872 103.272 303.967 103.282 304.057 103.31C304.147 103.338 304.231 103.383 304.303 103.444C304.376 103.504 304.436 103.579 304.479 103.662L314.24 122.533C314.327 122.701 314.344 122.897 314.288 123.078C314.232 123.259 314.107 123.412 313.941 123.502C313.837 123.545 313.726 123.569 313.613 123.574Z" fill="white"/>
<path d="M154.427 234.155L148.456 241.016C144.651 245.78 132.553 242.442 121.467 233.528C110.38 224.613 104.452 213.574 108.3 208.796L114.285 201.935L154.427 234.155Z" fill="white"/>
<path d="M142.813 243.911C137.113 243.911 128.891 240.388 121.011 234.084C116.009 230.222 111.808 225.421 108.642 219.949C106.005 215 105.678 210.892 107.701 208.353L113.7 201.464C113.822 201.326 113.992 201.24 114.175 201.224C114.358 201.208 114.54 201.263 114.684 201.379L154.869 233.542C154.946 233.599 155.01 233.671 155.057 233.755C155.103 233.839 155.131 233.931 155.139 234.027C155.155 234.223 155.094 234.417 154.968 234.569L148.983 241.429C148.213 242.288 147.256 242.958 146.186 243.388C145.117 243.818 143.963 243.997 142.813 243.911ZM114.313 202.919L108.798 209.295C107.188 211.306 107.587 215 109.896 219.279C112.969 224.588 117.05 229.244 121.908 232.986C132.496 241.544 144.395 244.952 147.9 240.588L153.401 234.255L114.313 202.919Z" fill="#231F20"/>
<path d="M154.422 234.143C158.23 229.384 152.318 218.313 141.218 209.415C130.118 200.518 118.032 197.162 114.225 201.921C110.417 206.68 116.329 217.751 127.429 226.649C138.529 235.547 150.614 238.902 154.422 234.143Z" fill="white"/>
<path d="M148.784 237.036C143.084 237.036 134.848 233.513 126.996 227.223C121.987 223.365 117.78 218.564 114.613 213.089C111.976 208.139 111.649 204.032 113.686 201.493C115.71 198.954 119.8 198.369 125.186 199.867C131.216 201.762 136.817 204.819 141.673 208.867C153.259 218.152 159.101 229.448 154.983 234.54C154.209 235.403 153.248 236.076 152.173 236.509C151.099 236.941 149.939 237.122 148.784 237.036ZM119.871 200.494C118.938 200.406 117.998 200.53 117.119 200.856C116.241 201.182 115.448 201.702 114.798 202.377C113.159 204.417 113.558 208.082 115.881 212.361C118.95 217.669 123.026 222.325 127.879 226.068C138.467 234.626 150.38 238.035 153.871 233.67C157.363 229.306 151.378 218.423 140.776 209.937C136.073 206.009 130.646 203.043 124.801 201.208C123.198 200.746 121.539 200.506 119.871 200.494Z" fill="#231F20"/>
<path d="M124.986 205.843L127.594 208.325H127.893C128.734 208.482 129.532 208.596 130.387 208.81C132.634 209.412 134.756 210.406 136.657 211.748C137.845 212.555 138.923 213.514 139.863 214.601C140.454 215.189 140.847 215.947 140.989 216.769C141.018 217.06 140.957 217.352 140.814 217.608C140.672 217.863 140.454 218.068 140.191 218.195C139.778 218.48 139.322 218.737 138.866 219.022L143.768 223.686C144.608 223.087 144.238 222.074 143.084 220.834L146.09 220.32C147.005 221.115 147.751 222.085 148.285 223.173C148.512 223.582 148.61 224.05 148.566 224.515C148.523 224.981 148.341 225.423 148.043 225.783C147.743 226.111 147.33 226.396 146.96 226.724L148.741 228.422L145.891 229.32L144.067 227.594C143.183 227.594 142.357 227.594 141.445 227.594C139.687 227.426 137.973 226.943 136.386 226.168C134.233 225.216 132.294 223.838 130.686 222.117C129.047 220.32 128.691 218.908 129.703 217.952C130.379 217.371 131.163 216.929 132.011 216.655L132.353 216.526L127.38 211.819H127.238C127.125 212.123 127.048 212.439 127.01 212.761C127.172 213.405 127.536 213.98 128.05 214.401L123.39 214.686C123.02 214.287 122.649 213.902 122.321 213.517C121.124 212.09 120.668 210.906 121.039 209.979C121.283 209.532 121.635 209.152 122.063 208.875C122.491 208.599 122.982 208.434 123.49 208.396C123.647 208.396 123.647 208.311 123.49 208.154C122.592 207.326 121.709 206.485 120.825 205.643L124.986 205.843ZM136.244 220.249C135.802 220.605 135.232 220.876 135.346 221.547C135.46 222.217 137.013 223.615 138.452 224.1C139.16 224.353 139.91 224.469 140.661 224.442L136.244 220.249ZM135.104 215.471C135.488 215.257 135.873 215.086 135.93 214.7C136.03 213.987 134.505 212.632 132.938 212.062C132.268 211.805 131.627 211.662 130.886 211.448L135.104 215.471Z" fill="#D1D3D4"/>
<path d="M200.753 306.526L204.245 314.927C206.81 320.461 198.445 329.803 185.563 335.822C172.681 341.841 160.141 342.212 157.562 336.693L154.07 328.277L200.753 306.526Z" fill="white"/>
<path d="M166.909 341.328C161.936 341.328 158.26 339.902 156.934 337.049L153.429 328.62C153.36 328.449 153.358 328.258 153.424 328.086C153.491 327.914 153.62 327.773 153.785 327.692L200.468 305.941C200.556 305.902 200.65 305.882 200.746 305.882C200.842 305.882 200.937 305.902 201.024 305.941C201.114 305.978 201.195 306.032 201.264 306.101C201.332 306.169 201.386 306.251 201.423 306.341L204.914 314.742C207.679 320.689 199.328 330.274 185.876 336.55C179.956 339.45 173.496 341.078 166.909 341.328ZM154.996 328.634L158.217 336.407C160.568 341.456 172.951 340.9 185.292 335.166C197.633 329.433 205.983 320.304 203.618 315.198L200.411 307.453L154.996 328.634Z" fill="#231F20"/>
<path d="M182.06 327.418C194.952 321.409 203.319 312.058 200.747 306.531C198.176 301.003 185.64 301.394 172.748 307.403C159.856 313.412 151.49 322.764 154.061 328.291C156.633 333.818 169.168 333.427 182.06 327.418Z" fill="white"/>
<path d="M163.375 332.899C158.245 332.899 154.726 331.387 153.4 328.62C150.55 322.658 158.972 313.059 172.424 306.797C185.876 300.536 198.587 300.293 201.366 306.269C204.145 312.246 195.794 321.83 182.342 328.106C176.661 330.879 170.495 332.516 164.188 332.927L163.375 332.899ZM191.491 303.431C185.087 303.695 178.807 305.288 173.051 308.109C160.753 313.815 152.36 322.971 154.711 328.078C155.823 330.445 159.3 331.7 164.173 331.558C170.29 331.16 176.269 329.566 181.772 326.865C194.07 321.16 202.463 312.003 200.098 306.897C199.015 304.501 195.823 303.431 191.491 303.431Z" fill="#231F20"/>
<path d="M162.336 320.376L165.713 319.135L165.898 318.892C166.411 318.208 166.853 317.466 167.438 316.867C168.978 315.134 170.811 313.686 172.853 312.588C174.107 311.884 175.449 311.347 176.842 310.99C177.634 310.733 178.487 310.733 179.279 310.99C179.539 311.097 179.762 311.279 179.919 311.513C180.077 311.746 180.161 312.021 180.163 312.303C180.163 312.802 180.262 313.33 180.305 313.857L186.661 311.532C186.49 310.505 185.435 310.391 183.811 310.876L184.68 308.024C185.815 307.559 187.031 307.326 188.257 307.339C188.729 307.317 189.197 307.442 189.596 307.697C189.994 307.953 190.303 308.326 190.48 308.765C190.634 309.232 190.758 309.709 190.85 310.192L193.159 309.35L192.703 312.303L190.352 313.187C189.953 313.971 189.611 314.727 189.155 315.526C188.239 317.031 187.062 318.36 185.678 319.448C183.88 320.961 181.789 322.083 179.536 322.743C177.199 323.428 175.788 323.114 175.375 321.788C175.153 320.926 175.104 320.029 175.232 319.149C175.232 319.021 175.232 318.892 175.232 318.778L168.82 321.16L168.706 321.26C168.923 321.498 169.172 321.704 169.447 321.873C170.092 322.02 170.769 321.95 171.371 321.673L169.561 325.952C169.033 326.109 168.535 326.266 168.05 326.38C166.241 326.837 164.972 326.723 164.303 325.967C164.017 325.555 163.838 325.079 163.781 324.582C163.723 324.084 163.79 323.58 163.975 323.114C163.975 322.971 163.975 322.943 163.747 323.028L160.312 324.298L162.336 320.376ZM180.234 316.667C180.362 317.223 180.348 317.851 180.989 318.093C181.683 318.085 182.367 317.934 183 317.65C183.632 317.365 184.199 316.953 184.666 316.439C185.206 315.913 185.642 315.288 185.948 314.599L180.234 316.667ZM175.446 315.569C175.446 315.141 175.446 314.699 175.118 314.485C174.534 314.086 172.653 314.841 171.428 315.997C170.915 316.482 170.501 316.995 170.003 317.566L175.446 315.569Z" fill="#D1D3D4"/>
<path d="M166.625 254.038C161.552 262.496 167.237 281.238 167.237 281.238L174.747 286.715C177.424 288.326 180.392 289.395 183.481 289.858C186.571 290.322 189.721 290.172 192.753 289.417C195.784 288.662 198.638 287.317 201.15 285.459C203.662 283.6 205.784 281.264 207.394 278.585C209.004 275.905 210.071 272.935 210.535 269.843C210.998 266.75 210.848 263.597 210.094 260.563C209.34 257.528 207.996 254.672 206.139 252.158C204.282 249.644 201.948 247.52 199.271 245.908L190.949 241.815C190.949 241.815 171.698 245.594 166.625 254.038Z" fill="white"/>
<path d="M186.96 290.837C182.53 290.829 178.186 289.616 174.391 287.328L166.81 281.822C166.688 281.729 166.598 281.599 166.554 281.452C166.312 280.667 160.854 262.296 166.012 253.667C171.199 245.109 189.981 241.273 190.779 241.116C190.923 241.074 191.076 241.074 191.221 241.116L199.571 245.209C204.168 247.969 207.735 252.162 209.724 257.144C211.713 262.127 212.015 267.625 210.584 272.796C209.153 277.967 206.068 282.526 201.801 285.774C197.534 289.022 192.321 290.78 186.96 290.78V290.837ZM167.851 280.853L175.175 286.173C180.419 289.308 186.691 290.234 192.616 288.747C198.541 287.261 203.635 283.483 206.782 278.242C209.928 272.994 210.865 266.711 209.387 260.772C207.91 254.833 204.139 249.723 198.901 246.564L190.822 242.613C188.641 243.07 171.798 246.892 167.238 254.452C162.678 262.068 167.238 278.67 167.851 280.81V280.853Z" fill="#231F20"/>
<path d="M181.829 287C194.964 287 205.612 276.342 205.612 263.195C205.612 250.048 194.964 239.39 181.829 239.39C168.694 239.39 158.046 250.048 158.046 263.195C158.046 276.342 168.694 287 181.829 287Z" fill="white"/>
<path d="M181.787 287.742C178.014 287.732 174.296 286.85 170.92 285.165C167.544 283.48 164.603 281.038 162.325 278.029C160.048 275.019 158.495 271.524 157.789 267.815C157.082 264.106 157.241 260.284 158.253 256.647C159.265 253.01 161.102 249.656 163.622 246.846C166.141 244.037 169.275 241.847 172.779 240.449C176.283 239.051 180.062 238.481 183.822 238.785C187.581 239.088 191.22 240.257 194.455 242.2C199.053 244.961 202.619 249.157 204.605 254.143C206.591 259.129 206.888 264.629 205.449 269.8C204.011 274.971 200.917 279.526 196.643 282.767C192.368 286.008 187.149 287.756 181.787 287.742ZM181.872 240.132C176.29 240.123 170.895 242.14 166.686 245.809C162.477 249.478 159.739 254.55 158.981 260.085C158.222 265.62 159.494 271.243 162.561 275.911C165.627 280.579 170.281 283.976 175.658 285.472C181.036 286.968 186.773 286.462 191.807 284.048C196.84 281.634 200.829 277.475 203.033 272.342C205.237 267.209 205.507 261.451 203.794 256.134C202.08 250.817 198.499 246.302 193.714 243.426C190.14 241.266 186.047 240.118 181.872 240.103V240.132Z" fill="#231F20"/>
<path d="M168.492 252.284L171.456 254.081C171.655 254.195 171.755 254.181 171.897 254.009C173.061 252.715 174.531 251.734 176.172 251.157C177.885 250.552 179.76 250.592 181.445 251.271C181.901 251.456 182.343 251.67 182.87 251.884L180.105 256.477C179.41 256.068 178.596 255.907 177.797 256.021C177.183 256.181 176.579 256.376 175.987 256.605V256.719L181.687 260.171L182.1 259.743C183.094 258.667 184.208 257.71 185.421 256.891C186.314 256.247 187.366 255.858 188.463 255.768C189.56 255.678 190.661 255.888 191.648 256.377C193.567 257.16 195.102 258.666 195.923 260.57C196.599 262.118 196.769 263.841 196.407 265.491C196.194 266.518 195.852 267.531 195.552 268.586L197.775 269.927L195.239 274.206L192.959 272.78C192.204 273.493 191.534 274.206 190.807 274.834C189.392 276.075 187.6 276.804 185.72 276.902C184.103 276.941 182.511 276.499 181.146 275.632L183.853 271.111C184.656 271.554 185.582 271.719 186.489 271.583C187.395 271.446 188.232 271.015 188.869 270.355L182.727 266.675C181.972 267.374 181.217 268.101 180.447 268.786C179.546 269.653 178.444 270.285 177.241 270.626C176.005 270.935 174.704 270.845 173.522 270.369C172.048 269.855 170.746 268.941 169.76 267.731C169.053 266.853 168.548 265.832 168.279 264.737C168.011 263.643 167.986 262.503 168.207 261.398C168.378 260.499 168.734 259.629 168.99 258.759C168.99 258.659 168.99 258.559 169.104 258.445L166.026 256.591L168.492 252.284ZM191.406 266.062C191.735 265.314 191.844 264.487 191.719 263.68C191.591 262.993 191.216 262.376 190.665 261.948C190.113 261.519 189.423 261.308 188.727 261.355C187.741 261.626 186.848 262.164 186.147 262.91L191.406 266.062ZM172.952 260.742C172.85 261.441 172.803 262.146 172.809 262.853C172.841 263.235 172.956 263.606 173.145 263.939C173.334 264.272 173.594 264.56 173.906 264.783C174.218 265.006 174.575 265.158 174.951 265.228C175.328 265.299 175.716 265.286 176.087 265.192C176.837 264.863 177.508 264.377 178.053 263.765L172.952 260.742Z" fill="#D1D3D4"/>
</svg>
