<svg width="576" height="436" viewBox="0 0 576 436" fill="none" xmlns="http://www.w3.org/2000/svg">
<path d="M342.59 317.864H219.24V375.997H342.59V317.864Z" fill="#231F20"/>
<path d="M342.59 376.702H219.24C219.049 376.702 218.866 376.627 218.731 376.492C218.596 376.357 218.52 376.173 218.52 375.982V317.864C218.52 317.673 218.596 317.49 218.731 317.355C218.866 317.22 219.049 317.144 219.24 317.144H342.59C342.781 317.144 342.965 317.22 343.1 317.355C343.235 317.49 343.31 317.673 343.31 317.864V375.982C343.31 376.173 343.235 376.357 343.1 376.492C342.965 376.627 342.781 376.702 342.59 376.702ZM219.96 375.262H341.87V318.584H219.96V375.262Z" fill="#231F20"/>
<path d="M457.618 257.96H421.157C420.966 257.96 420.783 257.884 420.648 257.749C420.513 257.614 420.437 257.431 420.437 257.24V250.17C420.437 249.979 420.513 249.796 420.648 249.661C420.783 249.525 420.966 249.45 421.157 249.45H457.618C457.809 249.45 457.992 249.525 458.127 249.661C458.262 249.796 458.338 249.979 458.338 250.17V257.24C458.338 257.431 458.262 257.614 458.127 257.749C457.992 257.884 457.809 257.96 457.618 257.96ZM421.877 256.52H456.898V250.89H421.92L421.877 256.52Z" fill="#D1D3D4"/>
<path d="M451.469 300.411H427.291C427.111 300.412 426.938 300.343 426.807 300.22C426.676 300.097 426.597 299.928 426.586 299.749L423.778 257.283C423.77 257.081 423.842 256.885 423.979 256.736C424.046 256.666 424.126 256.61 424.216 256.573C424.305 256.536 424.401 256.518 424.498 256.52H454.277C454.374 256.518 454.47 256.536 454.559 256.573C454.648 256.61 454.729 256.666 454.795 256.736C454.932 256.885 455.005 257.081 454.997 257.283L452.117 299.749C452.107 299.919 452.036 300.08 451.917 300.201C451.798 300.323 451.639 300.398 451.469 300.411ZM427.968 298.971H450.806L453.499 257.96H425.275L427.968 298.971Z" fill="#D1D3D4"/>
<path d="M470.88 299.893H185.328C182.179 299.893 179.626 302.446 179.626 305.595V312.162C179.626 315.311 182.179 317.864 185.328 317.864H470.88C474.03 317.864 476.583 315.311 476.583 312.162V305.595C476.583 302.446 474.03 299.893 470.88 299.893Z" fill="white"/>
<path d="M470.88 318.584H185.343C183.638 318.584 182.003 317.908 180.796 316.704C179.589 315.5 178.91 313.866 178.906 312.162V305.595C178.91 303.891 179.589 302.257 180.796 301.053C182.003 299.849 183.638 299.173 185.343 299.173H470.88C472.583 299.173 474.217 299.849 475.421 301.054C476.626 302.258 477.303 303.892 477.303 305.595V312.162C477.303 313.865 476.626 315.499 475.421 316.703C474.217 317.907 472.583 318.584 470.88 318.584ZM185.343 300.613C184.02 300.613 182.751 301.137 181.814 302.071C180.878 303.005 180.35 304.273 180.346 305.595V312.162C180.35 313.484 180.878 314.752 181.814 315.686C182.751 316.62 184.02 317.144 185.343 317.144H470.88C472.202 317.144 473.469 316.619 474.403 315.685C475.338 314.75 475.863 313.483 475.863 312.162V305.595C475.863 304.274 475.338 303.007 474.403 302.072C473.469 301.138 472.202 300.613 470.88 300.613H185.343Z" fill="#231F20"/>
<path d="M472.594 299.893H334.915C332.704 299.893 330.912 301.685 330.912 303.896V313.861C330.912 316.072 332.704 317.864 334.915 317.864H472.594C474.805 317.864 476.597 316.072 476.597 313.861V303.896C476.597 301.685 474.805 299.893 472.594 299.893Z" fill="white"/>
<path d="M472.594 318.584H334.901C333.648 318.584 332.447 318.086 331.561 317.201C330.675 316.315 330.178 315.113 330.178 313.861V303.882C330.178 303.262 330.3 302.649 330.538 302.076C330.775 301.504 331.123 300.984 331.562 300.547C332.001 300.109 332.522 299.763 333.095 299.527C333.667 299.291 334.281 299.171 334.901 299.173H472.594C473.843 299.173 475.04 299.669 475.923 300.552C476.806 301.435 477.303 302.633 477.303 303.882V313.861C477.303 315.111 476.807 316.31 475.924 317.196C475.042 318.081 473.844 318.58 472.594 318.584ZM334.901 300.613C334.033 300.613 333.2 300.957 332.584 301.569C331.969 302.182 331.622 303.013 331.618 303.882V313.861C331.622 314.73 331.969 315.563 332.584 316.178C333.198 316.793 334.031 317.14 334.901 317.144H472.594C473.462 317.14 474.293 316.793 474.906 316.177C475.519 315.562 475.863 314.729 475.863 313.861V303.882C475.863 303.015 475.518 302.183 474.905 301.57C474.292 300.957 473.461 300.613 472.594 300.613H334.901Z" fill="#231F20"/>
<path d="M347.04 224.653C347.04 224.653 352.008 275.542 341.007 282.454C330.797 288.834 319.479 286.976 313.186 286.976C310.854 286.863 308.547 287.502 306.606 288.798C304.664 290.094 303.19 291.979 302.4 294.176L300.73 299.706H379.354C385.262 295.82 390.238 290.677 393.927 284.643C399.197 275.341 395.943 227.043 395.943 227.043L347.04 224.653Z" fill="white"/>
<path d="M379.411 300.411H300.787C300.675 300.414 300.564 300.389 300.464 300.338C300.363 300.288 300.277 300.214 300.211 300.123C300.14 300.036 300.092 299.932 300.071 299.821C300.051 299.71 300.06 299.596 300.096 299.49L301.766 293.96C302.611 291.613 304.185 289.598 306.258 288.212C308.332 286.825 310.795 286.14 313.286 286.256C314.338 286.256 315.547 286.256 316.858 286.371C323.41 286.659 332.41 287.048 340.718 281.835C345.038 279.157 347.357 268.486 347.53 250.976C347.659 237.584 346.435 224.854 346.421 224.725C346.413 224.622 346.427 224.519 346.462 224.423C346.497 224.326 346.551 224.238 346.622 224.163C346.693 224.085 346.78 224.024 346.877 223.985C346.974 223.945 347.079 223.927 347.184 223.933L396 226.323C396.175 226.333 396.342 226.405 396.468 226.526C396.595 226.648 396.674 226.811 396.691 226.986C396.821 228.973 399.902 275.6 394.589 284.974C390.845 291.12 385.784 296.358 379.771 300.31C379.662 300.375 379.538 300.41 379.411 300.411ZM301.752 298.971H379.195C384.934 295.151 389.77 290.123 393.365 284.24C398.146 275.816 395.683 233.437 395.323 227.691L347.89 225.387C348.509 232.256 352.051 276.392 341.438 282.987C332.798 288.43 323.122 288.013 316.742 287.739C315.461 287.739 314.28 287.624 313.243 287.624C311.07 287.519 308.921 288.11 307.108 289.312C305.294 290.514 303.912 292.263 303.163 294.306L301.752 298.971Z" fill="#231F20"/>
<path d="M392.227 273.066C392.227 285.637 388.454 289.395 383.429 289.395H363.701C362.347 289.393 361.024 289.806 359.912 290.578C358.8 291.351 357.951 292.446 357.48 293.715L355.291 299.662H385.69C393.48 299.662 399.01 287.869 399.254 275.298C399.499 262.726 399.254 227.014 399.254 227.014H392.472C392.472 227.014 392.227 260.509 392.227 273.066Z" fill="#231F20"/>
<path d="M385.69 300.411H355.291C355.176 300.41 355.063 300.381 354.961 300.329C354.858 300.277 354.769 300.201 354.701 300.109C354.637 300.012 354.596 299.902 354.581 299.788C354.566 299.673 354.578 299.556 354.614 299.446L356.803 293.499C357.322 292.086 358.261 290.866 359.494 290.004C360.728 289.141 362.196 288.677 363.701 288.675H383.429C388.858 288.675 391.507 283.578 391.507 273.066C391.507 260.653 391.752 227.36 391.752 226.986C391.759 226.798 391.838 226.621 391.972 226.49C392.106 226.359 392.285 226.284 392.472 226.28H399.254C399.348 226.278 399.442 226.295 399.529 226.33C399.616 226.364 399.696 226.416 399.763 226.482C399.83 226.547 399.883 226.626 399.919 226.712C399.956 226.799 399.974 226.892 399.974 226.986C399.974 227.346 400.234 262.87 399.974 275.298C399.715 287.725 394.315 300.411 385.69 300.411ZM356.328 298.971H385.69C392.515 298.971 398.275 288.358 398.534 275.312C398.765 263.893 398.534 232.875 398.534 227.792H393.178C393.178 232.717 392.933 261.704 392.933 273.094C392.933 284.485 389.822 290.144 383.414 290.144H363.686C362.475 290.143 361.292 290.516 360.3 291.212C359.308 291.907 358.554 292.892 358.142 294.032L356.328 298.971Z" fill="#231F20"/>
<path d="M286.071 86.0672L274.176 222.118C273.98 223.634 274.109 225.174 274.553 226.637C274.998 228.099 275.748 229.451 276.754 230.601C277.76 231.752 279 232.675 280.39 233.311C281.78 233.946 283.289 234.279 284.818 234.286H447.034C450.281 234.168 453.374 232.865 455.727 230.623C458.08 228.382 459.531 225.357 459.807 222.118L471.715 86.0672C471.914 84.5509 471.787 83.0098 471.343 81.5463C470.9 80.0829 470.15 78.7306 469.143 77.5795C468.136 76.4284 466.896 75.5049 465.505 74.8703C464.113 74.2357 462.603 73.9047 461.074 73.8992H298.843C295.596 74.0177 292.504 75.3206 290.151 77.5622C287.798 79.8038 286.346 82.8291 286.071 86.0672Z" fill="#231F20"/>
<path d="M447.034 235.006H284.818C283.252 235.022 281.701 234.708 280.265 234.085C278.829 233.462 277.539 232.545 276.48 231.392C275.35 230.136 274.497 228.656 273.976 227.048C273.455 225.44 273.278 223.741 273.456 222.061L285.351 86.0096C285.65 82.5942 287.186 79.4057 289.671 77.0431C292.155 74.6805 295.417 73.3065 298.843 73.1792H461.074C462.644 73.16 464.201 73.472 465.642 74.0947C467.084 74.7175 468.378 75.6371 469.44 76.7936C470.568 78.0542 471.42 79.537 471.941 81.1465C472.462 82.756 472.64 84.4567 472.464 86.1392L460.555 222.176C460.258 225.597 458.719 228.792 456.228 231.155C453.736 233.519 450.466 234.889 447.034 235.006ZM286.791 86.1392L274.882 222.176C274.725 223.659 274.881 225.158 275.34 226.577C275.799 227.996 276.55 229.303 277.546 230.413C278.462 231.409 279.575 232.203 280.814 232.746C282.054 233.289 283.393 233.568 284.746 233.566H447.034C450.104 233.448 453.025 232.211 455.247 230.09C457.469 227.968 458.84 225.108 459.101 222.046L470.995 85.9952C471.157 84.5132 471.005 83.0138 470.548 81.5946C470.092 80.1754 469.341 78.8683 468.346 77.7584C467.422 76.7528 466.298 75.9525 465.045 75.4092C463.792 74.866 462.439 74.5919 461.074 74.6048H298.843C295.775 74.724 292.856 75.961 290.636 78.0828C288.416 80.2046 287.048 83.0648 286.791 86.1248V86.1392Z" fill="#231F20"/>
<path d="M285.538 85.52L274.162 215.422C273.976 216.87 274.1 218.341 274.525 219.737C274.951 221.133 275.668 222.423 276.629 223.522C277.59 224.62 278.773 225.502 280.1 226.109C281.428 226.716 282.869 227.035 284.328 227.043H439.2C442.3 226.925 445.25 225.679 447.496 223.539C449.742 221.399 451.129 218.513 451.397 215.422L462.787 85.52C462.975 84.0719 462.853 82.6004 462.429 81.2031C462.004 79.8059 461.288 78.5149 460.326 77.4158C459.365 76.3168 458.18 75.4349 456.852 74.8286C455.523 74.2223 454.081 73.9055 452.621 73.8992H297.735C294.633 74.0113 291.679 75.2554 289.432 77.3964C287.185 79.5375 285.8 82.4273 285.538 85.52Z" fill="white"/>
<path d="M439.2 227.763H284.328C282.83 227.775 281.345 227.472 279.971 226.874C278.597 226.276 277.364 225.397 276.35 224.293C275.269 223.088 274.454 221.669 273.957 220.129C273.461 218.588 273.295 216.96 273.47 215.35L284.818 85.52C285.098 82.2406 286.573 79.1782 288.962 76.914C291.351 74.6497 294.488 73.3413 297.778 73.2368H452.621C454.122 73.225 455.608 73.5277 456.985 74.1254C458.361 74.7231 459.597 75.6026 460.613 76.7072C461.692 77.9101 462.507 79.3267 463.003 80.8648C463.499 82.403 463.666 84.0283 463.493 85.6352L452.16 215.48C451.876 218.758 450.401 221.819 448.013 224.083C445.624 226.346 442.489 227.656 439.2 227.763ZM286.243 85.52L274.882 215.422C274.729 216.833 274.876 218.26 275.313 219.61C275.749 220.96 276.466 222.202 277.416 223.256C278.292 224.216 279.36 224.98 280.551 225.499C281.742 226.017 283.029 226.279 284.328 226.266H439.2C442.129 226.16 444.919 224.985 447.041 222.964C449.163 220.942 450.472 218.213 450.72 215.293L462.067 85.52C462.219 84.1084 462.074 82.6806 461.64 81.3288C461.206 79.977 460.493 78.7312 459.547 77.672C458.667 76.7159 457.595 75.9553 456.402 75.4393C455.209 74.9234 453.921 74.6636 452.621 74.6768H297.734C294.807 74.7821 292.02 75.9546 289.898 77.9732C287.776 79.9919 286.466 82.7172 286.214 85.6352L286.243 85.52Z" fill="#231F20"/>
<path d="M276.077 193.606L274.162 215.422C273.976 216.87 274.1 218.341 274.525 219.737C274.951 221.133 275.668 222.423 276.629 223.522C277.59 224.62 278.773 225.502 280.1 226.109C281.428 226.716 282.869 227.035 284.328 227.043H439.2C442.3 226.925 445.25 225.679 447.496 223.539C449.742 221.399 451.129 218.513 451.397 215.422L453.298 193.606H276.077Z" fill="white"/>
<path d="M439.2 227.763H284.328C282.83 227.775 281.345 227.472 279.971 226.874C278.597 226.276 277.364 225.397 276.35 224.293C275.269 223.088 274.454 221.669 273.957 220.129C273.461 218.588 273.295 216.96 273.47 215.35L275.357 193.52C275.371 193.339 275.454 193.171 275.587 193.048C275.721 192.925 275.895 192.857 276.077 192.858H453.326C453.426 192.859 453.525 192.88 453.616 192.919C453.708 192.959 453.79 193.016 453.859 193.088C453.991 193.239 454.058 193.435 454.046 193.635L452.16 215.48C451.876 218.758 450.401 221.819 448.013 224.083C445.624 226.346 442.489 227.656 439.2 227.763ZM276.739 194.326L274.882 215.48C274.729 216.891 274.876 218.317 275.313 219.667C275.749 221.017 276.466 222.26 277.416 223.314C278.292 224.273 279.36 225.038 280.551 225.556C281.742 226.075 283.029 226.336 284.328 226.323H439.2C442.129 226.218 444.919 225.043 447.041 223.021C449.163 221 450.472 218.271 450.72 215.35L452.549 194.326H276.739Z" fill="#231F20"/>
<path d="M369.08 214.223C371.467 210.662 370.788 206.023 367.564 203.863C364.34 201.702 359.792 202.837 357.405 206.398C355.019 209.959 355.698 214.597 358.921 216.758C362.145 218.918 366.694 217.783 369.08 214.223Z" fill="white"/>
<path d="M362.578 218.576C361.575 218.583 360.582 218.38 359.662 217.981C358.742 217.582 357.915 216.995 357.235 216.258C356.508 215.449 355.959 214.497 355.624 213.462C355.289 212.428 355.176 211.334 355.291 210.253C355.483 208.068 356.468 206.029 358.059 204.519C359.651 203.01 361.739 202.135 363.931 202.059C364.934 202.052 365.927 202.255 366.847 202.654C367.767 203.053 368.594 203.64 369.274 204.378C370 205.187 370.548 206.14 370.882 207.174C371.217 208.208 371.332 209.301 371.218 210.382C371.029 212.568 370.045 214.609 368.453 216.119C366.861 217.629 364.771 218.503 362.578 218.576ZM363.903 203.499C362.07 203.573 360.328 204.313 359.002 205.58C357.677 206.848 356.859 208.555 356.703 210.382C356.61 211.266 356.703 212.159 356.976 213.005C357.249 213.85 357.695 214.63 358.287 215.293C358.837 215.886 359.506 216.357 360.25 216.675C360.995 216.992 361.797 217.149 362.607 217.136C364.442 217.071 366.19 216.334 367.517 215.065C368.845 213.796 369.659 212.083 369.807 210.253C369.906 209.372 369.818 208.48 369.547 207.636C369.277 206.792 368.83 206.015 368.237 205.357C367.686 204.759 367.016 204.284 366.269 203.964C365.522 203.644 364.715 203.486 363.903 203.499Z" fill="#231F20"/>
<path d="M369.922 293.355H250.719V299.893H369.922V293.355Z" fill="white"/>
<path d="M369.922 300.613H250.719C250.529 300.609 250.348 300.532 250.213 300.398C250.079 300.264 250.002 300.083 249.999 299.893V293.355C249.999 293.164 250.074 292.981 250.209 292.846C250.344 292.711 250.528 292.635 250.719 292.635H369.922C370.113 292.635 370.296 292.711 370.431 292.846C370.566 292.981 370.642 293.164 370.642 293.355V299.893C370.642 300.084 370.566 300.267 370.431 300.402C370.296 300.537 370.113 300.613 369.922 300.613ZM251.439 299.173H369.202V294.075H251.439V299.173Z" fill="#231F20"/>
<path d="M233.928 324.906C233.928 324.906 288.994 338.787 288.994 375.997H143.467C143.467 375.997 120.326 353.648 126.043 319.318C184.68 321.349 233.928 324.906 233.928 324.906Z" fill="white"/>
<path d="M289.008 376.702H143.467C143.374 376.705 143.281 376.689 143.194 376.654C143.107 376.62 143.029 376.567 142.963 376.501C142.733 376.285 119.621 353.461 125.338 319.203C125.371 319.033 125.462 318.88 125.596 318.769C125.73 318.659 125.898 318.599 126.072 318.598C184.046 320.6 233.496 324.157 233.986 324.186H234.115C234.662 324.315 289.728 338.586 289.728 375.954C289.732 376.051 289.716 376.147 289.682 376.238C289.647 376.329 289.595 376.412 289.528 376.481C289.46 376.551 289.38 376.607 289.29 376.645C289.201 376.683 289.105 376.702 289.008 376.702ZM143.77 375.262H288.274C287.582 340.112 235.872 326.158 233.813 325.626C231.754 325.467 183.413 322.04 126.648 320.067C121.709 351.56 141.538 372.973 143.77 375.262Z" fill="#231F20"/>
<path d="M308.851 261.92C308.851 261.92 326.995 252.762 332.079 252.762C337.162 252.762 353.131 257.283 354.831 261.92C356.53 266.557 358.704 274.059 356.53 274.304C354.355 274.549 351.447 266.312 351.447 267.104C351.447 267.896 345.154 274.851 338.127 272.677L319.68 277.688L308.794 263.893" fill="white"/>
<path d="M319.68 278.48C319.572 278.481 319.465 278.456 319.367 278.409C319.27 278.361 319.185 278.292 319.118 278.206L308.218 264.411C308.102 264.26 308.05 264.069 308.074 263.88C308.099 263.692 308.197 263.52 308.347 263.403C308.42 263.343 308.505 263.298 308.596 263.271C308.686 263.245 308.782 263.236 308.876 263.247C308.97 263.258 309.061 263.287 309.143 263.334C309.225 263.381 309.298 263.443 309.355 263.518L319.954 276.939L337.882 271.986C338.013 271.943 338.154 271.943 338.285 271.986C344.448 273.901 350.179 268.011 350.669 266.989C350.689 266.837 350.754 266.695 350.857 266.582C350.96 266.468 351.096 266.389 351.245 266.355C351.864 266.211 352.022 266.571 352.685 267.896C355.032 272.994 356.069 273.656 356.443 273.656C357.178 272.547 356.184 267.766 354.154 262.237C352.714 258.19 337.565 253.597 332.078 253.597C327.226 253.597 309.355 262.582 309.168 262.669C309 262.739 308.812 262.743 308.642 262.68C308.471 262.616 308.331 262.491 308.249 262.329C308.167 262.167 308.149 261.98 308.199 261.805C308.25 261.63 308.364 261.481 308.52 261.387C309.269 261.013 326.88 252.157 332.078 252.157C336.816 252.157 353.606 256.592 355.507 261.79C356.63 264.858 359.093 272.23 357.754 274.39C357.637 274.599 357.471 274.775 357.27 274.903C357.069 275.031 356.839 275.107 356.602 275.125C354.701 275.341 352.973 272 351.389 268.558C350.59 269.462 349.697 270.278 348.725 270.992C346.709 272.432 342.648 274.765 338.126 273.469L319.925 278.494L319.68 278.48Z" fill="#231F20"/>
<path d="M126.043 319.318C126.043 319.318 111.528 200.518 128.765 176.24C146.002 151.962 188.323 148.03 207.965 163.698C227.606 179.365 237.168 323.307 237.168 323.307C237.168 323.307 184.45 338.874 126.043 319.318Z" fill="#0D9488"/>
<path d="M207.907 163.683C207.907 163.683 220.45 171.272 229.853 188.638C239.256 206.005 258.984 270.301 258.984 270.301L311.27 259.069L331.603 278.293C331.603 278.293 290.981 298.453 266.688 309.44C242.395 320.427 180.375 252.243 180.375 252.243L207.907 163.683Z" fill="#0D9488"/>
<path d="M242.395 305.552C242.259 305.553 242.125 305.518 242.006 305.451C241.589 305.192 200.16 278.682 185.558 209.677C185.539 209.582 185.538 209.485 185.555 209.39C185.573 209.295 185.61 209.204 185.662 209.123C185.715 209.043 185.783 208.973 185.863 208.918C185.943 208.864 186.033 208.825 186.127 208.806C186.222 208.786 186.319 208.785 186.414 208.803C186.509 208.82 186.6 208.857 186.681 208.91C186.762 208.962 186.831 209.031 186.886 209.11C186.94 209.19 186.979 209.28 186.998 209.374C194.558 245.101 209.333 268.99 220.392 282.814C232.387 297.704 242.712 304.227 242.813 304.299C242.942 304.383 243.042 304.506 243.096 304.65C243.15 304.794 243.157 304.952 243.115 305.1C243.073 305.248 242.985 305.379 242.863 305.473C242.741 305.568 242.592 305.621 242.438 305.624L242.395 305.552Z" fill="#231F20"/>
<path d="M215.827 112.88C214.201 112.88 212.611 112.398 211.259 111.494C209.907 110.591 208.853 109.307 208.231 107.804C207.609 106.302 207.446 104.648 207.763 103.054C208.08 101.459 208.863 99.9934 210.013 98.8435C211.163 97.6936 212.628 96.9105 214.223 96.5932C215.818 96.2759 217.472 96.4388 218.974 97.0611C220.476 97.6834 221.761 98.7373 222.664 100.089C223.568 101.442 224.05 103.031 224.05 104.658C224.046 106.837 223.178 108.926 221.637 110.468C220.096 112.009 218.007 112.876 215.827 112.88ZM215.827 97.8752C214.486 97.8752 213.175 98.273 212.059 99.0183C210.944 99.7635 210.075 100.823 209.561 102.062C209.048 103.301 208.914 104.665 209.175 105.981C209.437 107.296 210.083 108.505 211.032 109.453C211.98 110.402 213.189 111.048 214.504 111.31C215.82 111.571 217.184 111.437 218.423 110.924C219.662 110.41 220.722 109.541 221.467 108.426C222.212 107.31 222.61 105.999 222.61 104.658C222.595 102.867 221.874 101.156 220.604 99.8938C219.334 98.632 217.618 97.9221 215.827 97.9184V97.8752Z" fill="#231F20"/>
<path d="M212.227 110.533C212.227 110.533 220.968 124.933 218.938 127.813C216.907 130.693 210.6 128.475 210.6 128.475" fill="white"/>
<path d="M215.15 129.93C213.521 129.89 211.905 129.613 210.355 129.109C210.176 129.044 210.029 128.91 209.948 128.737C209.867 128.565 209.858 128.367 209.923 128.187C209.985 128.009 210.115 127.862 210.285 127.778C210.455 127.694 210.651 127.681 210.83 127.741C212.443 128.302 216.936 129.31 218.347 127.338C219.557 125.653 215.136 116.725 211.608 110.907C211.509 110.743 211.479 110.546 211.525 110.36C211.571 110.173 211.689 110.013 211.853 109.914C212.017 109.814 212.214 109.784 212.4 109.83C212.587 109.876 212.747 109.994 212.846 110.158C214.286 112.635 221.717 125.12 219.514 128.187C218.979 128.805 218.303 129.286 217.544 129.589C216.785 129.893 215.964 130.009 215.15 129.93Z" fill="#231F20"/>
<path d="M210.96 91.9136C216.72 96.968 214.574 107.077 214.272 113.715C213.84 123.027 213.192 132.33 212.328 141.622C211.795 147.512 196.488 147.051 193.853 145.179L197.093 159.939L163.685 155.043L165.744 135.805C165.744 135.805 163.598 108.992 170.064 97.1984C176.53 85.4048 189.202 86.4704 189.202 86.4704C189.202 86.4704 205.373 86.96 210.96 91.9136Z" fill="white"/>
<path d="M197.093 160.659H196.992L163.584 155.763C163.4 155.735 163.233 155.637 163.118 155.49C163.003 155.343 162.948 155.157 162.965 154.971L165.024 135.733C164.938 134.754 162.951 108.704 169.416 96.8528C175.997 84.7568 189.115 85.7504 189.259 85.7648C189.893 85.7648 205.733 86.3408 211.435 91.3808C216.461 95.816 215.755 103.765 215.251 110.101C215.136 111.382 215.035 112.592 214.992 113.701C214.56 122.96 213.912 132.421 213.12 141.68C212.987 142.587 212.604 143.44 212.014 144.142C211.424 144.844 210.65 145.367 209.779 145.654C205.661 147.541 198.374 147.426 194.933 146.389L197.813 159.766C197.837 159.872 197.836 159.982 197.812 160.087C197.788 160.193 197.74 160.291 197.672 160.376C197.604 160.46 197.518 160.528 197.42 160.575C197.323 160.621 197.216 160.645 197.107 160.645L197.093 160.659ZM164.477 154.438L196.157 159.075L193.133 145.338C193.103 145.197 193.115 145.05 193.169 144.917C193.223 144.783 193.316 144.669 193.435 144.589C193.556 144.505 193.699 144.46 193.846 144.46C193.992 144.46 194.136 144.505 194.256 144.589C195.984 145.798 204.595 146.403 209.088 144.344C210.643 143.624 211.493 142.688 211.608 141.464C212.458 132.219 213.048 122.845 213.538 113.586C213.538 112.462 213.696 111.238 213.797 109.942C214.315 103.88 214.949 96.32 210.47 92.3744C205.142 87.6656 189.317 87.1184 189.159 87.104C189 87.0896 176.789 86.2112 170.669 97.4432C164.405 108.963 166.349 135.387 166.45 135.661L164.477 154.438Z" fill="#231F20"/>
<path d="M157.133 159.579L160.272 149.384L201.269 153.358L203.63 162.704C203.63 162.704 182.203 172.899 157.133 159.579Z" fill="white"/>
<path d="M184.003 167.11C174.501 167.091 165.152 164.722 156.787 160.213C156.64 160.133 156.525 160.005 156.462 159.85C156.399 159.695 156.392 159.523 156.442 159.363L159.581 149.182C159.63 149.026 159.73 148.89 159.867 148.799C160.003 148.707 160.166 148.664 160.33 148.678L201.341 152.638C201.49 152.652 201.632 152.712 201.745 152.81C201.859 152.909 201.939 153.04 201.975 153.186L204.322 162.531C204.362 162.694 204.345 162.865 204.275 163.017C204.204 163.169 204.083 163.292 203.933 163.366C197.605 165.928 190.829 167.201 184.003 167.11ZM157.997 159.219C164.819 162.873 172.339 165.036 180.059 165.565C187.78 166.093 195.525 164.976 202.781 162.286L200.707 154.021L160.776 150.162L157.997 159.219Z" fill="#231F20"/>
<path d="M177.12 138.224C177.12 154.064 193.046 186.046 179.41 198.704C166.579 210.526 144.59 213.622 127.901 211.808C103.637 209.187 90.9792 192.368 100.915 168.781C105.768 157.261 114.322 147.771 121.464 137.518C127.767 128.476 133.05 118.764 137.218 108.56C140.774 99.92 143.424 89.84 148.19 81.8048C158.803 63.9488 177.509 56.9648 197.15 62.7248C205.589 65.1872 221.832 75.3536 217.843 86.3552C216.864 89.0624 213.523 93.0944 210.931 91.9568C210.168 97.184 206.813 99.6896 202.723 103.03C198.634 106.371 193.896 108.79 189.49 111.67C186.381 113.525 183.665 115.971 181.498 118.87C178.891 122.701 177.97 127.41 177.48 132.018C177.245 134.078 177.125 136.15 177.12 138.224Z" fill="white"/>
<path d="M136.872 212.931C133.866 212.934 130.861 212.775 127.872 212.456C115.027 211.016 105.25 205.717 100.354 197.379C95.6881 189.459 95.6737 179.451 100.354 168.435C103.911 159.982 109.498 152.595 114.912 145.309C116.943 142.616 119.031 139.822 120.975 137.029C127.223 128.031 132.462 118.373 136.599 108.229C137.765 105.349 138.816 102.469 139.939 99.3008C141.923 93.095 144.493 87.092 147.615 81.3728C158.227 63.5168 177.307 56.0864 197.424 61.976C203.602 63.7904 214.027 69.6944 217.815 77.168C218.602 78.5861 219.078 80.1553 219.212 81.7716C219.346 83.3878 219.135 85.0141 218.592 86.5424C217.684 89.0645 215.887 91.1687 213.538 92.4608C212.927 92.7476 212.25 92.8621 211.579 92.792C210.6 97.544 207.432 100.122 203.803 103.088L203.256 103.52C200.469 105.689 197.534 107.662 194.472 109.424C193.032 110.331 191.434 111.253 189.951 112.304C186.927 114.125 184.286 116.517 182.175 119.346C179.539 123.219 178.719 127.986 178.258 132.162C178.047 134.195 177.941 136.238 177.941 138.282C177.941 143.336 179.626 150.19 181.411 157.448C185.213 172.914 189.519 190.438 179.971 199.208C168.826 209.36 151.373 212.931 136.872 212.931ZM183.989 61.4432C169.589 61.4432 156.744 68.7728 148.81 82.1216C145.735 87.763 143.203 93.6841 141.25 99.8048C140.184 102.8 139.075 105.91 137.895 108.79C133.689 119.025 128.378 128.769 122.055 137.85C120.096 140.73 117.994 143.466 115.963 146.173C110.607 153.373 105.063 160.702 101.563 168.997C97.1137 179.566 97.0993 189.157 101.563 196.645C106.229 204.579 115.618 209.691 128.002 211.045C143.251 212.686 165.73 210.296 178.949 198.085C187.848 189.877 183.643 172.798 179.943 157.765C178.143 150.421 176.443 143.48 176.429 138.253C176.427 136.156 176.538 134.06 176.76 131.974C177.235 127.654 178.085 122.643 180.907 118.51C183.129 115.52 185.912 112.992 189.101 111.066C190.541 110.086 192.154 109.136 193.651 108.186C196.659 106.464 199.545 104.54 202.291 102.426L202.839 101.979C206.583 98.9264 209.549 96.5216 210.24 91.8128C210.254 91.7018 210.293 91.5957 210.356 91.503C210.418 91.4104 210.502 91.334 210.6 91.28C210.699 91.2337 210.807 91.2097 210.917 91.2097C211.026 91.2097 211.135 91.2337 211.234 91.28C211.505 91.3827 211.795 91.4281 212.085 91.4132C212.375 91.3984 212.659 91.3236 212.919 91.1936C214.907 90.0478 216.434 88.2454 217.239 86.096C217.708 84.7502 217.886 83.3202 217.762 81.9004C217.638 80.4806 217.214 79.1032 216.519 77.8592C212.933 70.7744 202.954 65.144 197.021 63.4592C192.796 62.1659 188.407 61.487 183.989 61.4432Z" fill="#231F20"/>
<path d="M212.371 134.667C212.371 134.667 204.984 138.829 201.427 131.211L212.371 134.667Z" fill="white"/>
<path d="M207.936 136.525C207.144 136.529 206.357 136.407 205.603 136.165C204.512 135.778 203.517 135.163 202.682 134.361C201.848 133.559 201.194 132.588 200.765 131.514C200.687 131.34 200.681 131.142 200.749 130.964C200.816 130.786 200.951 130.642 201.125 130.563C201.297 130.484 201.493 130.476 201.671 130.541C201.849 130.606 201.994 130.738 202.075 130.909C202.422 131.8 202.955 132.608 203.637 133.278C204.32 133.949 205.137 134.466 206.035 134.797C208.058 135.281 210.189 135.009 212.026 134.034C212.108 133.981 212.201 133.946 212.297 133.93C212.394 133.914 212.493 133.918 212.588 133.942C212.682 133.966 212.772 134.009 212.849 134.068C212.927 134.127 212.992 134.202 213.04 134.287C213.088 134.373 213.118 134.467 213.129 134.564C213.139 134.661 213.13 134.76 213.101 134.853C213.072 134.947 213.024 135.033 212.961 135.108C212.897 135.182 212.819 135.243 212.731 135.286C211.254 136.074 209.61 136.498 207.936 136.525Z" fill="#231F20"/>
<path d="M173.823 115.429H173.621C173.53 115.402 173.445 115.358 173.372 115.299C173.298 115.24 173.237 115.167 173.191 115.084C173.099 114.916 173.078 114.719 173.131 114.536C174.442 109.942 175.349 109.87 175.738 109.842C176.472 109.842 207.13 106.011 223.258 104.01C223.352 103.998 223.447 104.005 223.538 104.03C223.629 104.056 223.714 104.099 223.788 104.159C223.862 104.218 223.923 104.291 223.968 104.374C224.013 104.458 224.041 104.549 224.05 104.643C224.074 104.832 224.023 105.023 223.907 105.174C223.791 105.326 223.619 105.425 223.431 105.45C221.573 105.68 178.92 110.95 175.997 111.21C175.354 112.363 174.87 113.598 174.557 114.882C174.52 115.045 174.425 115.19 174.291 115.291C174.156 115.391 173.99 115.44 173.823 115.429Z" fill="#231F20"/>
<path d="M194.126 115.76C193.952 113.419 193.135 111.172 191.765 109.266C190.911 107.673 189.824 106.217 188.539 104.946C187.893 104.31 187.113 103.827 186.256 103.53C185.399 103.234 184.487 103.132 183.586 103.232C182.797 103.395 182.052 103.724 181.402 104.199C180.751 104.673 180.209 105.281 179.813 105.982C179.031 107.385 178.574 108.945 178.474 110.547C178.17 114.06 178.8 117.591 180.3 120.782C181.799 123.973 184.115 126.711 187.013 128.72L186.523 128.144" fill="white"/>
<path d="M187.013 129.382C186.869 129.38 186.728 129.335 186.61 129.253C183.631 127.174 181.247 124.353 179.693 121.07C178.14 117.786 177.471 114.154 177.754 110.533C177.849 108.816 178.342 107.145 179.194 105.651C179.645 104.852 180.266 104.161 181.012 103.626C181.758 103.091 182.612 102.726 183.514 102.555C184.524 102.434 185.548 102.542 186.51 102.871C187.472 103.2 188.348 103.742 189.072 104.456C190.409 105.793 191.54 107.322 192.427 108.992C193.868 111.01 194.721 113.387 194.89 115.861C194.892 115.957 194.874 116.052 194.838 116.14C194.801 116.229 194.747 116.309 194.678 116.375C194.609 116.441 194.526 116.493 194.437 116.526C194.347 116.559 194.251 116.572 194.155 116.566C194.06 116.566 193.966 116.547 193.878 116.51C193.791 116.473 193.712 116.418 193.646 116.35C193.58 116.281 193.529 116.2 193.495 116.111C193.461 116.022 193.446 115.927 193.45 115.832C193.253 113.632 192.473 111.524 191.189 109.726C190.376 108.184 189.337 106.772 188.107 105.536C187.547 104.974 186.869 104.542 186.122 104.274C185.375 104.005 184.578 103.905 183.787 103.981C183.103 104.132 182.458 104.425 181.895 104.842C181.332 105.259 180.863 105.79 180.519 106.4C179.777 107.725 179.353 109.204 179.28 110.72C179.026 113.892 179.556 117.077 180.824 119.996C182.092 122.914 184.06 125.475 186.552 127.453C186.665 127.446 186.777 127.465 186.882 127.507C186.987 127.55 187.08 127.615 187.157 127.698L187.647 128.288C187.761 128.417 187.824 128.584 187.824 128.756C187.824 128.928 187.761 129.095 187.647 129.224C187.56 129.297 187.458 129.348 187.348 129.376C187.238 129.403 187.124 129.406 187.013 129.382Z" fill="#231F20"/>
<path d="M209.811 106.52C210.535 106.508 211.098 105.003 211.069 103.159C211.04 101.314 210.43 99.8274 209.706 99.8387C208.983 99.8501 208.419 101.355 208.448 103.2C208.477 105.045 209.088 106.531 209.811 106.52Z" fill="#231F20"/>
<path d="M216 343.899C192.744 337.506 183.758 319.131 181.642 296.566C179.784 276.824 184.954 246.786 170.424 230.902C159.379 218.835 136.742 216.027 121.291 216.502C95.8609 217.366 85.6657 238.678 83.2609 261.243C80.9701 283.901 81.3181 306.749 84.2977 329.326C86.0689 343.381 86.4289 374.456 105.264 377.394C147.586 383.974 202.291 381.714 244.814 380.619C250.272 380.49 256.018 380.288 260.654 377.552C264.298 375.421 266.198 372.123 264.442 368.062C263.304 365.801 261.664 363.831 259.646 362.302C248.875 353.23 234.965 348.997 221.443 345.325L216 343.899Z" fill="#231F20"/>
<path d="M179.842 382.65C153.922 382.65 127.67 381.656 105.163 378.157C88.1713 375.507 85.7953 351.445 84.2401 335.533C84.0241 333.301 83.8225 331.213 83.5921 329.485C80.6125 306.84 80.2646 283.925 82.5553 261.2C84.3265 244.683 91.6993 216.834 121.291 215.826C153.979 214.717 167.587 226.698 170.971 230.398C181.872 242.322 181.872 261.963 181.886 279.358C181.886 285.55 181.886 291.397 182.376 296.552C184.795 322.371 195.869 337.65 216.202 343.251L219.6 344.173L221.674 344.734C235.786 348.55 249.351 352.741 260.151 361.856C262.254 363.454 263.964 365.513 265.147 367.875C266.904 371.936 265.421 375.723 261.058 378.272C256.104 381.152 249.869 381.325 244.843 381.44L231.624 381.786C215.511 382.16 197.784 382.65 179.842 382.65ZM124.891 217.222C123.682 217.222 122.501 217.222 121.334 217.222C92.8369 218.187 85.7089 245.259 83.9953 261.315C81.6916 283.937 82.0154 306.75 84.9601 329.298C85.1905 331.083 85.3921 333.142 85.6225 335.389C87.0625 350.869 89.4385 374.269 105.336 376.731C143.309 382.65 192.226 381.354 231.523 380.302L244.757 379.957C249.855 379.842 255.643 379.698 260.28 376.99C262.426 375.738 265.723 372.944 263.765 368.35C262.672 366.195 261.101 364.319 259.171 362.864C248.587 353.936 235.195 349.803 221.242 346.016L219.168 345.469L215.77 344.547C194.774 338.787 183.37 323.077 180.879 296.581C180.389 291.354 180.389 285.478 180.389 279.301C180.389 262.222 180.389 242.883 169.848 231.378C160.301 220.88 140.991 217.222 124.891 217.222Z" fill="#231F20"/>
<path d="M466.128 317.864H342.778V375.997H466.128V317.864Z" fill="white"/>
<path d="M466.142 376.702H342.72C342.529 376.702 342.346 376.627 342.211 376.492C342.076 376.357 342 376.173 342 375.982V317.864C342 317.673 342.076 317.49 342.211 317.355C342.346 317.22 342.529 317.144 342.72 317.144H466.085C466.276 317.144 466.459 317.22 466.594 317.355C466.729 317.49 466.805 317.673 466.805 317.864V375.982C466.805 376.164 466.737 376.339 466.615 376.472C466.492 376.606 466.323 376.688 466.142 376.702ZM343.498 375.262H465.422V318.584H343.498V375.262Z" fill="#231F20"/>
<path d="M342.778 317.864H328.104V375.997H342.778V317.864Z" fill="white"/>
<path d="M342.72 376.702H328.104C327.913 376.702 327.73 376.627 327.595 376.492C327.46 376.357 327.384 376.173 327.384 375.982V317.864C327.384 317.673 327.46 317.49 327.595 317.355C327.73 317.22 327.913 317.144 328.104 317.144H342.72C342.911 317.144 343.094 317.22 343.229 317.355C343.364 317.49 343.44 317.673 343.44 317.864V375.982C343.44 376.173 343.364 376.357 343.229 376.492C343.094 376.627 342.911 376.702 342.72 376.702ZM328.766 375.262H342V318.584H328.766V375.262Z" fill="#231F20"/>
<path d="M321.653 132.291H302.386L303.653 113.024H322.92L321.653 132.291Z" fill="white"/>
<path d="M321.653 133.04H302.4C302.3 133.039 302.202 133.018 302.11 132.979C302.019 132.939 301.936 132.882 301.867 132.81C301.803 132.738 301.753 132.653 301.72 132.562C301.688 132.47 301.675 132.374 301.68 132.277L302.947 112.995C302.962 112.814 303.044 112.646 303.178 112.523C303.311 112.4 303.486 112.332 303.667 112.333H322.934C323.033 112.331 323.131 112.349 323.223 112.387C323.314 112.424 323.398 112.479 323.467 112.549C323.599 112.7 323.666 112.896 323.654 113.096L322.387 132.363C322.373 132.548 322.289 132.72 322.153 132.846C322.017 132.971 321.838 133.041 321.653 133.04ZM303.149 131.6H320.976L322.157 113.773H304.33L303.149 131.6Z" fill="#D1D3D4"/>
<path d="M353.131 132.291H333.864L336.211 96.6368H355.479L353.131 132.291Z" fill="white"/>
<path d="M353.131 133.04H333.864C333.766 133.038 333.67 133.017 333.581 132.977C333.491 132.938 333.411 132.881 333.344 132.81C333.277 132.739 333.225 132.655 333.19 132.563C333.156 132.472 333.14 132.374 333.144 132.277L335.52 96.5936C335.534 96.4115 335.616 96.2412 335.749 96.116C335.882 95.9909 336.057 95.9199 336.24 95.9168H355.507C355.607 95.9165 355.706 95.9369 355.797 95.9766C355.888 96.0163 355.97 96.0746 356.038 96.1477C356.106 96.2207 356.157 96.3071 356.19 96.4012C356.223 96.4953 356.235 96.5952 356.227 96.6944L353.88 132.334C353.878 132.43 353.857 132.525 353.819 132.612C353.78 132.7 353.724 132.779 353.654 132.845C353.584 132.91 353.502 132.961 353.412 132.995C353.323 133.029 353.227 133.044 353.131 133.04ZM334.642 131.6H352.469L354.715 97.3856H336.96L334.642 131.6Z" fill="#D1D3D4"/>
<path d="M384.624 132.291H365.357L368.626 82.5104H387.893L384.624 132.291Z" fill="#0D9488"/>
<path d="M425.894 98.7968H399.715C399.142 98.7968 398.593 98.5693 398.188 98.1642C397.783 97.7591 397.555 97.2097 397.555 96.6368C397.555 96.064 397.783 95.5146 398.188 95.1095C398.593 94.7044 399.142 94.4768 399.715 94.4768H425.894C426.467 94.4768 427.017 94.7044 427.422 95.1095C427.827 95.5146 428.054 96.064 428.054 96.6368C428.054 97.2097 427.827 97.7591 427.422 98.1642C427.017 98.5693 426.467 98.7968 425.894 98.7968Z" fill="#D1D3D4"/>
<path d="M425.174 109.568H399.01C398.437 109.568 397.887 109.34 397.482 108.935C397.077 108.53 396.85 107.981 396.85 107.408C396.85 106.835 397.077 106.286 397.482 105.881C397.887 105.476 398.437 105.248 399.01 105.248H425.174C425.747 105.248 426.297 105.476 426.702 105.881C427.107 106.286 427.334 106.835 427.334 107.408C427.334 107.981 427.107 108.53 426.702 108.935C426.297 109.34 425.747 109.568 425.174 109.568Z" fill="#D1D3D4"/>
<path d="M417.715 120.325H398.29C397.717 120.325 397.167 120.097 396.762 119.692C396.357 119.287 396.13 118.738 396.13 118.165C396.13 117.592 396.357 117.043 396.762 116.637C397.167 116.232 397.717 116.005 398.29 116.005H417.715C418.288 116.005 418.837 116.232 419.243 116.637C419.648 117.043 419.875 117.592 419.875 118.165C419.875 118.738 419.648 119.287 419.243 119.692C418.837 120.097 418.288 120.325 417.715 120.325Z" fill="#D1D3D4"/>
<path d="M316.8 159.19H300.658C300.56 159.191 300.463 159.171 300.374 159.131C300.284 159.091 300.204 159.033 300.139 158.96C300.069 158.888 300.014 158.803 299.979 158.708C299.945 158.614 299.93 158.513 299.938 158.413L300.787 145.669C300.795 145.487 300.872 145.315 301.004 145.188C301.135 145.062 301.311 144.992 301.493 144.992H317.578C317.677 144.992 317.776 145.012 317.867 145.052C317.959 145.092 318.041 145.15 318.108 145.223C318.176 145.296 318.228 145.382 318.26 145.476C318.293 145.57 318.306 145.67 318.298 145.77L317.462 158.514C317.45 158.686 317.376 158.849 317.255 158.973C317.134 159.097 316.973 159.174 316.8 159.19ZM301.493 157.75H316.123L316.872 146.432H302.17L301.493 157.75Z" fill="#D1D3D4"/>
<path d="M383.602 149.902H332.856C332.283 149.902 331.734 149.675 331.329 149.27C330.924 148.865 330.696 148.315 330.696 147.742C330.696 147.17 330.924 146.62 331.329 146.215C331.734 145.81 332.283 145.582 332.856 145.582H383.602C384.175 145.582 384.724 145.81 385.129 146.215C385.534 146.62 385.762 147.17 385.762 147.742C385.762 148.315 385.534 148.865 385.129 149.27C384.724 149.675 384.175 149.902 383.602 149.902Z" fill="#D1D3D4"/>
<path d="M372.485 157.189H332.367C331.794 157.189 331.244 156.961 330.839 156.556C330.434 156.151 330.207 155.602 330.207 155.029C330.207 154.456 330.434 153.907 330.839 153.501C331.244 153.096 331.794 152.869 332.367 152.869H372.485C373.058 152.869 373.607 153.096 374.012 153.501C374.417 153.907 374.645 154.456 374.645 155.029C374.645 155.602 374.417 156.151 374.012 156.556C373.607 156.961 373.058 157.189 372.485 157.189Z" fill="#D1D3D4"/>
<path d="M307.469 156.382C307.301 156.397 307.132 156.397 306.965 156.382C306.648 156.301 306.353 156.148 306.104 155.936C305.854 155.724 305.656 155.458 305.525 155.158L304.2 152.278C304.072 152.019 303.997 151.736 303.98 151.447C303.963 151.158 304.005 150.868 304.102 150.596C304.2 150.323 304.351 150.073 304.547 149.86C304.743 149.646 304.98 149.475 305.243 149.355C305.507 149.235 305.792 149.17 306.081 149.162C306.371 149.155 306.659 149.206 306.928 149.312C307.198 149.418 307.443 149.577 307.65 149.78C307.856 149.983 308.02 150.225 308.131 150.493L308.304 150.867L311.573 148.189C312.018 147.826 312.589 147.655 313.16 147.713C313.731 147.771 314.256 148.054 314.618 148.498C314.981 148.943 315.152 149.514 315.094 150.085C315.036 150.657 314.754 151.181 314.309 151.544L308.851 155.994C308.449 156.278 307.961 156.415 307.469 156.382Z" fill="#0D9488"/>
<path d="M315.274 181.438H299.189C299.091 181.439 298.994 181.419 298.905 181.379C298.816 181.339 298.736 181.281 298.67 181.208C298.536 181.064 298.463 180.872 298.469 180.675L299.318 167.931C299.329 167.748 299.41 167.576 299.544 167.45C299.678 167.324 299.855 167.254 300.038 167.254H316.123C316.221 167.254 316.318 167.274 316.407 167.314C316.496 167.354 316.576 167.412 316.642 167.485C316.71 167.555 316.763 167.639 316.797 167.73C316.832 167.822 316.848 167.92 316.843 168.018L315.994 180.762C315.983 180.945 315.902 181.117 315.768 181.243C315.634 181.369 315.457 181.439 315.274 181.438ZM299.966 179.998H314.611L315.346 168.694H300.701L299.966 179.998Z" fill="#D1D3D4"/>
<path d="M382.147 172.15H331.387C330.814 172.15 330.265 171.923 329.86 171.518C329.455 171.113 329.227 170.563 329.227 169.99C329.227 169.418 329.455 168.868 329.86 168.463C330.265 168.058 330.814 167.83 331.387 167.83H382.147C382.72 167.83 383.27 168.058 383.675 168.463C384.08 168.868 384.307 169.418 384.307 169.99C384.307 170.563 384.08 171.113 383.675 171.518C383.27 171.923 382.72 172.15 382.147 172.15Z" fill="#D1D3D4"/>
<path d="M371.016 179.437H330.898C330.325 179.437 329.776 179.209 329.37 178.804C328.965 178.399 328.738 177.85 328.738 177.277C328.738 176.704 328.965 176.155 329.37 175.749C329.776 175.344 330.325 175.117 330.898 175.117H371.016C371.589 175.117 372.138 175.344 372.544 175.749C372.949 176.155 373.176 176.704 373.176 177.277C373.176 177.85 372.949 178.399 372.544 178.804C372.138 179.209 371.589 179.437 371.016 179.437Z" fill="#D1D3D4"/>
<path d="M306 178.63C305.838 178.652 305.673 178.652 305.511 178.63C305.195 178.549 304.902 178.399 304.653 178.189C304.404 177.98 304.205 177.717 304.071 177.421L302.746 174.541C302.63 174.282 302.565 174.002 302.557 173.718C302.549 173.435 302.596 173.152 302.697 172.886C302.798 172.621 302.951 172.378 303.145 172.172C303.34 171.965 303.574 171.799 303.833 171.682C304.092 171.566 304.372 171.502 304.655 171.494C304.939 171.485 305.222 171.533 305.487 171.634C305.753 171.735 305.996 171.887 306.202 172.082C306.409 172.277 306.575 172.511 306.691 172.77L306.85 173.13L310.133 170.466C310.349 170.262 310.605 170.106 310.884 170.006C311.163 169.906 311.46 169.864 311.756 169.884C312.052 169.903 312.34 169.984 312.604 170.12C312.868 170.256 313.1 170.445 313.288 170.675C313.475 170.905 313.613 171.171 313.693 171.456C313.773 171.742 313.793 172.041 313.753 172.335C313.712 172.629 313.611 172.911 313.457 173.164C313.302 173.417 313.097 173.636 312.855 173.806L307.411 178.256C306.998 178.54 306.5 178.672 306 178.63Z" fill="#0D9488"/>
<path d="M402.595 160.875H393.019C392.918 160.876 392.818 160.854 392.726 160.812C392.634 160.77 392.552 160.708 392.487 160.63C392.417 160.556 392.366 160.467 392.336 160.369C392.306 160.272 392.299 160.169 392.314 160.069C392.981 155.011 395.247 150.299 398.779 146.619C399.473 145.885 400.214 145.197 400.997 144.56C404.887 141.276 409.727 139.323 414.807 138.987C414.907 138.977 415.009 138.99 415.104 139.025C415.198 139.06 415.284 139.116 415.354 139.189C415.427 139.262 415.485 139.35 415.522 139.447C415.559 139.543 415.576 139.647 415.57 139.75L414.936 149.312C414.927 149.481 414.859 149.642 414.743 149.766C414.627 149.89 414.471 149.969 414.303 149.989C412.087 150.244 409.982 151.095 408.211 152.451C407.463 153.014 406.777 153.656 406.167 154.366C404.698 156.054 403.704 158.101 403.287 160.299C403.256 160.461 403.171 160.607 403.045 160.712C402.919 160.817 402.76 160.875 402.595 160.875ZM393.855 159.435H402.005C402.522 157.209 403.575 155.143 405.072 153.416C405.752 152.626 406.515 151.911 407.347 151.285C409.164 149.906 411.289 148.991 413.539 148.621L414.072 140.47C409.593 140.941 405.359 142.747 401.919 145.654C401.185 146.265 400.487 146.919 399.831 147.613C396.709 150.873 394.629 154.989 393.855 159.435Z" fill="#D1D3D4"/>
<path d="M413.395 184.261C412.891 184.261 412.402 184.261 411.955 184.261C406.564 183.954 401.499 181.581 397.811 177.637C394.124 173.692 392.098 168.478 392.155 163.078C392.155 162.887 392.231 162.704 392.366 162.569C392.501 162.434 392.684 162.358 392.875 162.358H402.451C402.635 162.358 402.812 162.428 402.946 162.554C403.08 162.68 403.16 162.852 403.171 163.035C403.264 165.158 403.98 167.207 405.23 168.925C405.74 169.629 406.335 170.267 407.002 170.826C408.641 172.184 410.645 173.03 412.762 173.259C413.661 173.36 414.569 173.36 415.469 173.259C417.678 172.994 419.776 172.144 421.546 170.797C422.294 170.234 422.98 169.592 423.59 168.882C425.06 167.194 426.054 165.147 426.47 162.949C426.542 162.502 426.6 162.056 426.629 161.595C426.658 161.134 426.629 160.688 426.629 160.242C426.531 158.124 425.816 156.081 424.57 154.366C424.465 154.227 424.417 154.052 424.436 153.879C424.455 153.705 424.538 153.545 424.67 153.43L431.87 146.648C431.943 146.58 432.03 146.528 432.124 146.496C432.218 146.464 432.318 146.452 432.418 146.461C432.515 146.465 432.611 146.49 432.698 146.535C432.785 146.58 432.861 146.643 432.922 146.72C436.018 150.531 437.689 155.303 437.645 160.213C437.645 160.702 437.645 161.192 437.645 161.653C437.645 162.114 437.573 162.646 437.501 163.093C436.829 168.145 434.564 172.851 431.035 176.528C430.342 177.267 429.601 177.96 428.818 178.602C424.929 181.888 420.089 183.842 415.008 184.174C414.389 184.246 413.885 184.261 413.395 184.261ZM393.566 163.741C393.677 168.073 395.222 172.246 397.958 175.606C398.518 176.295 399.124 176.945 399.773 177.55C403.115 180.671 407.447 182.521 412.013 182.778C412.934 182.835 413.857 182.835 414.778 182.778C419.548 182.454 424.09 180.612 427.738 177.522C428.478 176.918 429.176 176.264 429.826 175.563C433.146 172.102 435.279 167.674 435.917 162.92C435.917 162.459 436.018 162.013 436.046 161.48C436.075 160.947 436.046 160.558 436.046 160.04C436.08 155.731 434.704 151.529 432.13 148.074L425.938 153.834C427.126 155.668 427.806 157.785 427.91 159.968C427.91 160.472 427.91 160.962 427.91 161.408C427.874 161.891 427.811 162.372 427.723 162.848C427.274 165.296 426.175 167.579 424.541 169.458C423.861 170.248 423.098 170.962 422.266 171.589C420.288 173.09 417.948 174.04 415.483 174.339C414.478 174.44 413.465 174.44 412.459 174.339C410.147 174.151 407.936 173.312 406.08 171.92C405.318 171.295 404.64 170.574 404.064 169.774C402.788 168.02 402.003 165.957 401.789 163.798L393.566 163.741Z" fill="#D1D3D4"/>
<path d="M430.387 145.093C426.913 141.873 422.429 139.959 417.701 139.678L417.082 149.254C419.327 149.513 421.448 150.418 423.187 151.861L430.387 145.093Z" fill="#0D9488"/>
<path d="M163.829 283.462C163.638 283.462 163.455 283.387 163.32 283.252C163.185 283.116 163.109 282.933 163.109 282.742C163.109 282.483 163.109 255.973 157.349 242.019C151.776 228.339 129.485 225.402 129.269 225.373C129.078 225.35 128.904 225.252 128.785 225.101C128.666 224.95 128.612 224.757 128.635 224.566C128.658 224.375 128.756 224.201 128.907 224.083C129.059 223.964 129.251 223.91 129.442 223.933C130.392 224.048 152.784 227.014 158.688 241.472C164.448 255.67 164.534 281.634 164.534 282.728C164.536 282.823 164.52 282.917 164.485 283.005C164.451 283.093 164.399 283.173 164.334 283.241C164.268 283.31 164.19 283.364 164.103 283.402C164.017 283.44 163.923 283.461 163.829 283.462Z" fill="white"/>
</svg>
