<svg width="540" height="407" viewBox="0 0 540 407" fill="none" xmlns="http://www.w3.org/2000/svg">
<path d="M339.188 71.6566C341.807 69.0916 345.168 64.5961 342.238 60.8566C341.469 59.8846 340.335 59.2231 339.714 58.1566C339.23 56.9191 338.957 55.6097 338.904 54.2821C338.08 49.5301 333.504 46.3576 328.874 44.8321C324.243 43.3066 317.075 42.0106 312.674 44.8321C308.502 47.5321 306.68 53.1076 302.022 55.3486C296.325 58.0486 288.522 53.9986 283.635 57.9541C282.002 59.3041 281.016 61.3426 279.234 62.4901C277.663 63.3189 275.907 63.7325 274.131 63.6916C265.693 64.1506 256.176 63.9751 250.209 69.9556C244.242 75.9361 244.431 85.6021 246.334 93.8101C247.064 97.6391 248.561 101.281 250.735 104.516C252.55 106.782 254.798 108.666 257.347 110.056C259.897 111.447 262.697 112.317 265.585 112.616C274.185 113.709 283.77 112.616 287.348 103.814C288.158 101.816 288.698 99.5881 290.21 98.0761C293.598 94.7416 299.389 96.8881 303.912 95.3761C311.593 92.9056 312.957 81.3361 320.49 78.3931C327.618 75.7066 333.221 77.4886 339.188 71.6566Z" fill="white"/>
<path d="M270.823 113.669C269.049 113.662 267.277 113.54 265.518 113.304C262.54 113 259.653 112.105 257.027 110.67C254.4 109.235 252.087 107.289 250.222 104.948C247.996 101.648 246.458 97.9336 245.7 94.0261C243.945 86.4661 243.216 76.0846 249.75 69.5506C255.325 63.9616 263.614 63.5701 271.647 63.2056C272.47 63.2056 273.294 63.2056 274.104 63.0841C275.766 63.1328 277.412 62.7515 278.883 61.9771C279.78 61.3367 280.565 60.552 281.205 59.6551C281.8 58.8681 282.474 58.1443 283.216 57.4951C286.078 55.1596 289.804 55.3891 293.395 55.6186C296.298 55.7941 299.295 55.9831 301.752 54.7951C304.043 53.4699 305.987 51.619 307.422 49.3951C308.763 47.447 310.419 45.736 312.322 44.3326C317.439 40.9711 325.741 43.1311 329.062 44.2111C334.881 46.1011 338.809 49.8136 339.552 54.1471C339.619 54.5386 339.66 54.9436 339.7 55.3351C339.731 56.19 339.933 57.0301 340.294 57.8056C340.646 58.3495 341.079 58.8366 341.577 59.2501C342.002 59.6118 342.395 60.0093 342.751 60.4381C345.195 63.5431 344.101 67.8091 339.646 72.1291C335.691 75.9901 331.87 76.6381 327.834 77.3266C325.416 77.6646 323.04 78.2574 320.746 79.0951C317.263 80.4451 315.171 83.7661 312.97 87.2761C310.77 90.7861 308.286 94.7551 304.128 96.0781C302.188 96.5945 300.18 96.8085 298.174 96.7126C295.285 96.7126 292.545 96.7126 290.695 98.5756C289.674 99.7439 288.931 101.129 288.522 102.626C288.346 103.098 288.171 103.571 287.982 104.043C285.43 110.348 279.531 113.669 270.823 113.669ZM290.169 56.8336C288.007 56.6651 285.854 57.2677 284.094 58.5346C283.418 59.1287 282.803 59.789 282.258 60.5056C281.511 61.5237 280.598 62.409 279.558 63.1246C277.903 64.03 276.044 64.4949 274.158 64.4746L271.674 64.5961C263.911 64.9471 255.879 65.3251 250.681 70.5361C244.35 76.9351 245.7 87.8026 247.05 93.7291C247.765 97.4669 249.22 101.024 251.329 104.192C253.089 106.381 255.269 108.197 257.74 109.532C260.212 110.867 262.925 111.695 265.72 111.968C273.375 112.953 283.27 112.292 286.767 103.584C286.956 103.139 287.118 102.68 287.293 102.234C287.769 100.535 288.622 98.9658 289.791 97.6441C292.032 95.4436 295.191 95.4301 298.215 95.4031C300.078 95.4926 301.944 95.3015 303.75 94.8361C307.435 93.6616 309.595 90.2326 311.85 86.6011C314.104 82.9696 316.372 79.3921 320.26 77.8801C322.639 77.0024 325.106 76.3867 327.618 76.0441C331.668 75.3556 335.056 74.7751 338.715 71.1976C340.983 68.9836 344.398 64.7446 341.698 61.3156C341.389 60.9427 341.051 60.5951 340.686 60.2761C340.076 59.7797 339.552 59.1868 339.133 58.5211C338.676 57.5854 338.419 56.5647 338.377 55.5241C338.377 55.1461 338.296 54.7816 338.242 54.4171C337.581 50.5831 334.003 47.2621 328.657 45.5341C326.214 44.7376 317.857 42.3751 313.078 45.5341C311.3 46.8584 309.753 48.4688 308.502 50.2996C306.94 52.6553 304.851 54.615 302.4 56.0236C299.632 57.3736 296.446 57.1576 293.382 56.9686C292.248 56.9011 291.195 56.8336 290.169 56.8336Z" fill="#231F20"/>
<path d="M186.799 74.0326L186.637 62.9626H196.506L197.869 76.6111L186.799 74.0326Z" fill="white"/>
<path d="M197.883 77.2861H197.721L186.651 74.7076C186.506 74.6728 186.377 74.5922 186.282 74.4779C186.187 74.3635 186.132 74.2215 186.124 74.0731L185.962 63.0031C185.961 62.9133 185.977 62.8241 186.01 62.7406C186.043 62.6572 186.092 62.5812 186.155 62.517C186.218 62.4529 186.293 62.402 186.376 62.3672C186.459 62.3325 186.548 62.3146 186.637 62.3146H196.506C196.672 62.314 196.833 62.3763 196.956 62.4889C197.078 62.6015 197.154 62.7562 197.167 62.9221L198.517 76.5706C198.53 76.6755 198.518 76.7821 198.48 76.8809C198.442 76.9798 198.381 77.0679 198.301 77.1376C198.181 77.2302 198.035 77.2822 197.883 77.2861ZM187.474 73.4926L197.1 75.7336L195.871 63.5836H187.312L187.474 73.4926Z" fill="#231F20"/>
<path d="M196.506 62.9626L197.856 55.9831C197.856 55.9831 175.649 48.9226 176.85 52.2976C178.052 55.6726 186.665 63.0301 186.665 63.0301L196.506 62.9626Z" fill="#231F20"/>
<path d="M196.506 63.6376H186.638C186.48 63.6328 186.328 63.5758 186.206 63.4756C185.841 63.1651 177.417 55.8886 176.189 52.4596C176.104 52.2522 176.081 52.0251 176.122 51.8051C176.163 51.5851 176.265 51.3812 176.418 51.2176C178.254 49.3141 192.172 53.4721 198.018 55.2676C198.173 55.3201 198.303 55.4271 198.385 55.5686C198.467 55.7101 198.495 55.8766 198.464 56.0371L197.1 63.0976C197.074 63.2403 197.002 63.3704 196.894 63.468C196.787 63.5656 196.651 63.6252 196.506 63.6376ZM186.894 62.2876H195.953L197.1 56.4421C188.622 53.7421 179.064 51.4606 177.498 52.0951C178.524 54.6736 184.424 60.1546 186.894 62.2876Z" fill="#231F20"/>
<path d="M181.548 120.203C181.548 119.136 185.436 71.3461 185.436 71.3461C185.436 71.3461 199.948 70.6441 199.597 71.3461C199.246 72.0481 203.134 120.203 203.134 120.203H181.548Z" fill="#231F20"/>
<path d="M203.135 120.878H181.535C181.353 120.874 181.179 120.802 181.049 120.675C180.926 120.548 180.858 120.379 180.86 120.203C180.86 119.123 184.599 73.2496 184.748 71.2921C184.763 71.1282 184.838 70.9754 184.956 70.8615C185.075 70.7475 185.231 70.68 185.396 70.6711C199.53 69.9826 199.894 70.5496 200.151 70.9276C200.246 71.1004 200.275 71.302 200.232 71.4946C200.084 73.0606 202.284 101.411 203.796 120.095C203.807 120.282 203.744 120.466 203.621 120.608C203.562 120.683 203.489 120.746 203.405 120.793C203.322 120.839 203.23 120.868 203.135 120.878ZM182.25 119.528H202.405C199.435 82.6726 198.95 73.9516 198.936 71.7916C197.397 71.6026 191.552 71.7916 186.057 71.9941C184.802 87.3976 182.588 114.83 182.25 119.528Z" fill="#231F20"/>
<path d="M331.587 87.0196C331.587 87.0196 323.73 75.3016 325.161 71.8996C326.592 68.4976 328.738 66.1621 330.561 66.7561C332.383 67.3501 337.392 82.7806 337.392 82.7806L331.587 87.0196Z" fill="white"/>
<path d="M331.587 87.6946H331.466C331.286 87.6617 331.126 87.56 331.02 87.4111C330.197 86.1826 323.014 75.2611 324.54 71.6566C326.241 67.6066 328.685 65.4466 330.75 66.1351C332.816 66.8236 336.46 77.8531 338 82.5781C338.046 82.7134 338.048 82.8603 338.004 82.9966C337.96 83.1329 337.873 83.2514 337.757 83.3341L331.979 87.5731C331.866 87.6577 331.728 87.7007 331.587 87.6946ZM329.94 67.3366C328.698 67.3366 327.011 69.2536 325.782 72.1696C324.891 74.3026 328.82 81.6196 331.749 86.0611L336.569 82.5241C334.233 75.4636 331.304 67.9711 330.291 67.3906C330.178 67.3529 330.059 67.3346 329.94 67.3366Z" fill="#231F20"/>
<path d="M149.823 79.5811L143.869 70.4011L135.486 76.5436L140.481 86.4526L149.823 79.5811Z" fill="white"/>
<path d="M140.481 87.1275H140.319C140.223 87.1017 140.134 87.0559 140.057 86.993C139.98 86.9302 139.918 86.8518 139.873 86.763L134.878 76.854C134.809 76.7107 134.79 76.5476 134.827 76.3925C134.864 76.2374 134.954 76.0999 135.081 76.0035L143.478 69.8475C143.627 69.7419 143.811 69.6983 143.991 69.726C144.082 69.7409 144.169 69.7751 144.246 69.8264C144.323 69.8776 144.388 69.9446 144.436 70.023L150.39 79.1895C150.486 79.334 150.523 79.51 150.493 79.681C150.463 79.8519 150.368 80.0047 150.228 80.1075L140.872 86.979C140.764 87.0734 140.625 87.126 140.481 87.1275ZM136.35 76.746L140.724 85.44L148.918 79.4055L143.694 71.373L136.35 76.746Z" fill="#231F20"/>
<path d="M143.87 70.4011C143.87 70.4011 139.05 62.4226 138.902 62.9626C138.753 63.5026 121.122 75.3556 121.365 76.5976C121.608 77.8396 135.486 76.5976 135.486 76.5976L143.87 70.4011Z" fill="#231F20"/>
<path d="M125.55 77.7585C120.96 77.7585 120.825 77.0835 120.744 76.665C120.569 75.7875 121.567 74.721 133.488 66.189C135.742 64.569 138.064 62.9085 138.402 62.571C138.526 62.4047 138.71 62.2933 138.915 62.2605C139.388 62.2605 139.779 62.1795 144.49 70.0635C144.576 70.2052 144.606 70.374 144.574 70.5365C144.541 70.699 144.449 70.8433 144.315 70.941L135.918 77.0835C135.817 77.1515 135.701 77.1933 135.58 77.205C130.95 77.61 127.696 77.7585 125.55 77.7585ZM122.378 76.26C126.683 76.4682 130.998 76.3418 135.283 75.882L143.019 70.2255C141.44 67.5255 139.698 64.8255 138.969 63.867C138.348 64.353 137.052 65.217 134.285 67.2825C130.532 69.915 123.971 74.613 122.337 76.26H122.378Z" fill="#231F20"/>
<path d="M317.074 81.1335C318.613 81.66 331.735 108.822 335.745 107.405C339.754 105.987 327.901 86.0475 327.901 86.0475L338.539 78.42C338.539 78.42 365.701 118.569 355.306 127.304C344.911 136.038 305.478 107.243 305.478 107.243L317.074 81.1335Z" fill="#0D9488"/>
<path d="M312.889 75.0316C312.889 75.0316 303.669 64.3666 289.939 73.4521C276.21 82.5376 250.33 98.1976 250.33 98.1976L258.916 131.84C258.916 131.84 279.787 141.074 304.492 128.991C326.173 118.394 327.294 101.37 324.472 94.2961C321.651 87.2221 312.889 75.0316 312.889 75.0316Z" fill="#0D9488"/>
<path d="M303.169 125.832C303.027 125.83 302.888 125.783 302.773 125.698C302.659 125.612 302.575 125.492 302.533 125.356C302.491 125.219 302.493 125.073 302.539 124.937C302.586 124.802 302.674 124.685 302.791 124.604C302.98 124.469 322.015 111.576 325.296 97.9681C325.344 97.7962 325.456 97.6495 325.61 97.5588C325.763 97.4682 325.946 97.4407 326.119 97.4821C326.293 97.5238 326.443 97.6323 326.536 97.7841C326.63 97.9359 326.66 98.1185 326.619 98.2921C323.203 112.4 304.344 125.184 303.547 125.724C303.435 125.797 303.303 125.834 303.169 125.832Z" fill="#231F20"/>
<path d="M333.558 69.2131C333.558 69.2131 334.327 76.7596 332.964 77.5291C331.6 78.2986 329.44 76.1791 329.44 76.1791" fill="white"/>
<path d="M332.289 78.3661C331.024 78.184 329.855 77.5855 328.968 76.6651C328.905 76.6024 328.854 76.5277 328.82 76.4455C328.786 76.3632 328.768 76.275 328.768 76.1859C328.768 76.0968 328.786 76.0085 328.82 75.9263C328.854 75.844 328.905 75.7694 328.968 75.7066C329.096 75.5821 329.268 75.5125 329.447 75.5125C329.626 75.5125 329.798 75.5821 329.926 75.7066C330.507 76.2736 331.938 77.3266 332.626 76.9351C333.315 76.5436 333.261 72.8851 332.883 69.2806C332.868 69.1919 332.87 69.1009 332.89 69.0131C332.911 68.9254 332.949 68.8425 333.001 68.7696C333.054 68.6966 333.121 68.6349 333.198 68.5882C333.275 68.5415 333.361 68.5107 333.45 68.4976C333.626 68.4822 333.802 68.5352 333.94 68.6459C334.079 68.7565 334.169 68.9161 334.192 69.0916C334.503 72.0751 334.786 77.1916 333.247 78.0691C332.957 78.2454 332.628 78.3474 332.289 78.3661Z" fill="#231F20"/>
<path d="M312.93 95.3896C307.881 91.3396 304.384 78.8926 304.492 78.6496C306.55 74.7891 308.803 71.0357 311.242 67.4041C311.242 67.4041 315.292 69.5371 320.179 65.9731C325.066 62.4091 329.629 65.5681 336.663 61.3966C338.013 64.5556 335.191 68.2681 333.787 70.8466C331.816 74.5636 329.755 78.2266 327.604 81.8356C326.254 84.1306 320.112 80.9851 319.396 79.7161C317.79 83.5906 317.79 83.5906 312.93 95.3896Z" fill="white"/>
<path d="M312.93 96.0646C312.771 96.0667 312.617 96.0089 312.498 95.9026C307.503 91.8526 303.466 79.2436 303.885 78.3526C305.936 74.4577 308.189 70.6725 310.635 67.0126C310.724 66.8697 310.865 66.7664 311.028 66.7238C311.191 66.6811 311.364 66.7023 311.512 66.7831C311.661 66.8641 315.252 68.6731 319.72 65.4331C321.957 63.9485 324.597 63.1896 327.28 63.2596C330.435 63.2443 333.531 62.4017 336.258 60.8161C336.341 60.7684 336.433 60.7378 336.528 60.7262C336.623 60.7146 336.719 60.7222 336.811 60.7486C336.903 60.7807 336.987 60.8306 337.059 60.8955C337.131 60.9604 337.189 61.039 337.23 61.1266C338.485 64.0696 336.622 67.2556 335.124 69.8206C334.84 70.3201 334.57 70.7791 334.327 71.1706C332.356 74.8696 330.277 78.5821 328.131 82.1866C327.866 82.5817 327.499 82.8973 327.068 83.0994C326.638 83.3016 326.161 83.3827 325.687 83.3341C323.462 83.1118 321.343 82.27 319.572 80.9041L313.51 95.5921C313.468 95.6874 313.405 95.7719 313.325 95.8397C313.246 95.9074 313.152 95.9566 313.051 95.9836L312.93 96.0646ZM305.194 78.7711C305.491 80.1211 308.421 90.0301 312.66 94.2421C317.169 83.3206 317.209 83.2261 318.762 79.5136C318.808 79.3955 318.888 79.2933 318.991 79.2191C319.094 79.1449 319.216 79.1018 319.342 79.0951C319.471 79.0872 319.598 79.116 319.711 79.1782C319.823 79.2403 319.916 79.3333 319.977 79.4461C321.578 80.8966 323.604 81.7915 325.755 81.9976C326.443 81.9976 326.821 81.8356 327.01 81.5116C329.143 77.9206 331.222 74.2351 333.18 70.5496C333.423 70.0906 333.706 69.6046 334.003 69.1051C335.205 67.0396 336.703 64.5151 336.244 62.3551C333.509 63.7711 330.482 64.5292 327.402 64.5691C324.977 64.4876 322.587 65.1571 320.557 66.4861C319.31 67.5081 317.825 68.2006 316.24 68.5002C314.655 68.7997 313.02 68.6967 311.485 68.2006C310.419 69.8476 306.828 75.4096 305.194 78.7711Z" fill="#231F20"/>
<path d="M328.955 79.0681C328.466 79.1228 327.972 79.0715 327.505 78.9176C327.038 78.7637 326.61 78.5109 326.25 78.1763C325.89 77.8418 325.606 77.4335 325.418 76.9793C325.23 76.5251 325.142 76.0357 325.161 75.5446" fill="white"/>
<path d="M328.792 79.7431C327.647 79.7629 326.533 79.3645 325.66 78.6226C325.26 78.2205 324.948 77.7387 324.746 77.2084C324.544 76.6782 324.455 76.1113 324.486 75.5446C324.486 75.3656 324.557 75.1939 324.684 75.0673C324.81 74.9407 324.982 74.8696 325.161 74.8696C325.338 74.8732 325.506 74.9458 325.63 75.072C325.753 75.1982 325.823 75.3679 325.822 75.5446C325.791 75.9261 325.841 76.31 325.969 76.6707C326.097 77.0315 326.3 77.3609 326.565 77.6371C327.227 78.162 328.056 78.4304 328.9 78.3931C328.99 78.3837 329.08 78.3931 329.166 78.4206C329.252 78.4481 329.331 78.4931 329.398 78.5528C329.465 78.6125 329.519 78.6855 329.557 78.7673C329.594 78.849 329.615 78.9377 329.616 79.0276C329.627 79.2045 329.568 79.3788 329.452 79.5126C329.336 79.6465 329.172 79.7293 328.995 79.7431H328.792Z" fill="#231F20"/>
<path d="M319.383 79.7701C318.52 79.257 317.773 78.5713 317.187 77.756C316.602 76.9406 316.191 76.0131 315.981 75.0316C315.981 75.0316 313.2 80.8501 317.196 85.0351L319.383 79.7701Z" fill="#231F20"/>
<path d="M317.25 85.7101C317.159 85.7114 317.07 85.6941 316.986 85.6593C316.902 85.6244 316.827 85.5728 316.764 85.5076C312.484 81.0391 315.306 75.0046 315.414 74.7076C315.476 74.5757 315.58 74.4676 315.709 74.3995C315.838 74.3313 315.985 74.3068 316.129 74.3296C316.274 74.3565 316.407 74.4284 316.509 74.535C316.611 74.6416 316.676 74.7776 316.696 74.9236C316.897 75.7978 317.272 76.6225 317.798 77.3486C318.325 78.0746 318.992 78.687 319.761 79.1491C319.903 79.2291 320.011 79.3588 320.063 79.5133C320.115 79.6678 320.109 79.8361 320.044 79.9861L317.857 85.2511C317.817 85.3562 317.749 85.4489 317.662 85.5199C317.574 85.5909 317.469 85.6379 317.358 85.6561L317.25 85.7101ZM316.035 77.1781C315.727 78.2815 315.66 79.438 315.837 80.5698C316.014 81.7015 316.431 82.7822 317.061 83.7391L318.6 80.0266C317.523 79.2876 316.627 78.3136 315.981 77.1781H316.035Z" fill="#231F20"/>
<path d="M333.744 67.0712C334.177 66.3664 334.303 65.6557 334.023 65.4837C333.744 65.3117 333.166 65.7436 332.732 66.4483C332.298 67.1531 332.173 67.8638 332.452 68.0358C332.731 68.2078 333.31 67.7759 333.744 67.0712Z" fill="#231F20"/>
<path d="M324.972 67.1476C325.357 66.1647 325.456 65.0926 325.255 64.0561C325.227 63.2362 325.072 62.4257 324.796 61.6531C324.655 61.2692 324.43 60.9213 324.138 60.6343C323.847 60.3473 323.495 60.1281 323.109 59.9926C322.757 59.9082 322.39 59.8995 322.034 59.967C321.678 60.0345 321.341 60.1766 321.043 60.3841C320.451 60.8046 319.962 61.3538 319.612 61.9906C318.824 63.3624 318.408 64.9171 318.408 66.4996C318.408 68.082 318.824 69.6368 319.612 71.0086L319.531 70.6711" fill="white"/>
<path d="M319.585 71.6836C319.468 71.6816 319.353 71.6495 319.251 71.5904C319.15 71.5314 319.065 71.4473 319.005 71.3461C318.16 69.8683 317.715 68.1954 317.715 66.4929C317.715 64.7904 318.16 63.1174 319.005 61.6396C319.403 60.9151 319.962 60.2916 320.638 59.8171C321.018 59.5539 321.449 59.3755 321.903 59.2939C322.357 59.2124 322.824 59.2297 323.271 59.3446C323.756 59.5048 324.199 59.7725 324.566 60.1279C324.933 60.4832 325.215 60.9169 325.39 61.3966C325.698 62.2278 325.871 63.1028 325.903 63.9886C326.113 65.1563 325.987 66.3595 325.539 67.4581C325.458 67.6171 325.317 67.7376 325.148 67.7932C324.979 67.8489 324.794 67.8352 324.634 67.7551C324.475 67.6742 324.355 67.5336 324.299 67.3642C324.244 67.1947 324.257 67.01 324.337 66.8506C324.657 65.9879 324.736 65.0548 324.567 64.1506C324.526 63.4018 324.385 62.6619 324.148 61.9501C324.044 61.66 323.878 61.3962 323.661 61.177C323.444 60.9578 323.182 60.7886 322.893 60.6811C322.633 60.6253 322.365 60.624 322.104 60.6775C321.844 60.7309 321.598 60.8379 321.381 60.9916C320.879 61.3438 320.464 61.8054 320.166 62.3416C319.449 63.582 319.063 64.9856 319.044 66.418C319.025 67.8504 319.374 69.2637 320.058 70.5226H320.125L320.22 70.8601C320.259 71.0177 320.241 71.1841 320.17 71.3299C320.098 71.4756 319.977 71.5914 319.828 71.6566C319.75 71.681 319.667 71.6901 319.585 71.6836Z" fill="#231F20"/>
<path d="M250.33 98.1975C243.729 95.4975 227.988 98.7915 218.065 102.099C208.143 105.407 175.5 114.303 175.5 114.303L151.564 76.5975C151.564 76.5975 134.581 82.7265 135.526 84.144C136.471 85.5615 152.55 123.848 168.561 131.57C184.572 139.292 260.712 132.218 260.712 132.218L250.33 98.1975Z" fill="#231F20"/>
<path d="M202.203 135.876C187.353 135.876 174.083 134.972 168.278 132.177C158.828 127.628 148.028 112.319 136.026 86.6686C135.513 85.5751 135.068 84.6166 134.96 84.4681C134.884 84.3487 134.837 84.214 134.82 84.0738C134.804 83.9336 134.819 83.7916 134.865 83.6581C135.473 81.8086 146.597 77.6236 151.349 75.9091C151.492 75.8573 151.649 75.8558 151.794 75.9049C151.939 75.9539 152.062 76.0506 152.145 76.1791L175.73 113.52C179.78 112.4 208.724 104.435 217.863 101.37C225.963 98.6701 243.135 94.4176 250.587 97.4956C250.678 97.5368 250.76 97.5964 250.828 97.6707C250.895 97.7451 250.946 97.8325 250.979 97.9276L261.36 132.015C261.387 132.11 261.394 132.21 261.38 132.307C261.366 132.405 261.332 132.499 261.279 132.582C261.221 132.664 261.147 132.732 261.061 132.784C260.975 132.835 260.879 132.867 260.779 132.879C258.795 133.068 228.231 135.876 202.203 135.876ZM136.229 83.9821C136.404 84.3196 136.715 84.9676 137.241 86.1016C149.108 111.468 159.746 126.602 168.858 130.962C183.708 138.117 251.559 132.312 259.835 131.624L249.75 98.6431C243 96.1321 227.299 99.6421 218.255 102.693C208.44 105.96 175.919 114.843 175.581 114.978C175.442 115.016 175.294 115.008 175.16 114.954C175.026 114.901 174.913 114.805 174.839 114.681L151.295 77.3536C144.45 79.8241 137.322 82.8616 136.229 83.9821Z" fill="#231F20"/>
<path d="M315.104 132.069V126.224H353.619L369.441 87.0197H425.358L407.011 126.035V132.069H315.104Z" fill="white"/>
<path d="M407.011 132.744H315.103C314.924 132.744 314.753 132.673 314.626 132.546C314.5 132.42 314.428 132.248 314.428 132.069V126.224C314.428 126.045 314.5 125.873 314.626 125.746C314.753 125.62 314.924 125.549 315.103 125.549H353.16L368.82 86.7631C368.869 86.6388 368.955 86.5323 369.066 86.4575C369.176 86.3828 369.307 86.3435 369.441 86.3446H425.358C425.471 86.3448 425.582 86.3733 425.681 86.4276C425.78 86.4818 425.864 86.5601 425.925 86.6551C425.981 86.7541 426.01 86.8656 426.01 86.9791C426.01 87.0926 425.981 87.2042 425.925 87.3031L407.7 126.183V132.069C407.7 132.159 407.682 132.248 407.647 132.331C407.613 132.413 407.562 132.488 407.498 132.551C407.433 132.614 407.357 132.664 407.274 132.697C407.19 132.73 407.101 132.746 407.011 132.744ZM315.778 131.394H406.35V125.994C406.353 125.896 406.376 125.8 406.417 125.711L424.305 87.6541H369.9L354.24 126.548C354.191 126.672 354.105 126.779 353.994 126.853C353.884 126.928 353.753 126.967 353.619 126.966H315.819L315.778 131.394Z" fill="#231F20"/>
<path d="M276.183 81.9976C276.183 81.9976 282.555 131.084 286.983 132.272C291.411 133.46 336.933 123.929 336.933 123.929L333.828 108.012C333.828 108.012 301.185 113.831 301.711 108.012C302.238 102.194 298.053 80.3506 298.053 80.3506L276.183 81.9976Z" fill="#0D9488"/>
<path d="M287.266 132.056C285.638 132.093 284.01 131.966 282.406 131.678C279.247 131.003 276.939 127.763 275.521 122.052C273.807 115.127 273.847 106.365 274.023 101.802C274.023 101.694 274.455 90.5431 275.737 89.4631C275.876 89.3488 276.054 89.2933 276.233 89.3085C276.412 89.3236 276.578 89.4082 276.696 89.5441C276.803 89.6707 276.861 89.8309 276.861 89.9964C276.861 90.1619 276.803 90.3221 276.696 90.4486C275.791 92.0416 273.456 114.587 278.046 125.549C279.261 128.411 280.827 130.058 282.703 130.463C293.503 132.758 336.433 123.402 336.865 123.308C336.954 123.288 337.046 123.286 337.135 123.302C337.224 123.318 337.31 123.351 337.386 123.4C337.463 123.449 337.529 123.513 337.581 123.587C337.633 123.662 337.669 123.745 337.689 123.834C337.708 123.923 337.71 124.014 337.694 124.104C337.678 124.193 337.645 124.278 337.596 124.355C337.547 124.431 337.484 124.497 337.409 124.549C337.335 124.601 337.251 124.638 337.162 124.658C335.569 124.86 302.4 132.056 287.266 132.056Z" fill="#231F20"/>
<path d="M305.289 111.306C304.274 111.291 303.305 110.879 302.589 110.159C296.932 104.853 297.432 81.2685 297.445 80.256C297.459 80.0794 297.539 79.9144 297.669 79.7942C297.799 79.674 297.97 79.6075 298.148 79.608C298.236 79.6098 298.322 79.629 298.403 79.6648C298.483 79.7005 298.556 79.7519 298.616 79.816C298.677 79.8802 298.724 79.9557 298.754 80.0382C298.785 80.1207 298.799 80.2085 298.795 80.2965C298.795 80.5395 298.296 104.286 303.52 109.173C303.774 109.44 304.083 109.648 304.426 109.781C304.769 109.914 305.138 109.969 305.505 109.943C313.605 109.214 333.639 107.243 333.855 107.243C334.03 107.234 334.203 107.292 334.338 107.404C334.473 107.517 334.561 107.676 334.584 107.85C334.593 107.939 334.585 108.028 334.559 108.114C334.534 108.199 334.492 108.279 334.435 108.348C334.379 108.417 334.309 108.474 334.23 108.516C334.152 108.558 334.065 108.584 333.976 108.593C333.774 108.593 313.726 110.537 305.626 111.293L305.289 111.306Z" fill="#231F20"/>
<path d="M335.745 110.604C335.745 110.604 345.411 104.016 347.22 105.677C349.029 107.337 357.224 117.962 355.023 118.758C352.823 119.555 349.218 115.748 349.218 115.748C349.218 115.748 347.072 119.163 338.54 117.962L335.745 110.604Z" fill="white"/>
<path d="M354.375 119.541C352.458 119.541 350.244 117.678 349.245 116.733C348.124 117.746 345.195 119.568 338.445 118.623C338.324 118.608 338.209 118.56 338.114 118.483C338.019 118.407 337.946 118.306 337.905 118.191L335.11 110.847C335.055 110.705 335.05 110.548 335.097 110.403C335.144 110.258 335.239 110.133 335.367 110.051C338.404 107.985 345.694 103.301 347.679 105.191C349.177 106.541 356.575 115.761 356.035 118.461C356.001 118.673 355.91 118.871 355.772 119.035C355.634 119.199 355.455 119.322 355.252 119.393C354.97 119.49 354.674 119.54 354.375 119.541ZM349.218 115.086C349.309 115.084 349.399 115.101 349.482 115.136C349.566 115.171 349.642 115.223 349.704 115.289C350.986 116.639 353.497 118.596 354.793 118.124C355.009 117.381 350.379 109.511 346.761 106.176C346.032 105.515 341.361 107.688 336.568 110.874L339.025 117.341C346.599 118.299 348.637 115.41 348.651 115.383C348.711 115.3 348.788 115.231 348.876 115.18C348.964 115.129 349.062 115.097 349.164 115.086H349.218Z" fill="#231F20"/>
<path d="M181.548 111.293C181.394 111.293 181.245 111.241 181.125 111.146C181.004 111.05 180.92 110.916 180.886 110.766C180.867 110.68 180.864 110.591 180.88 110.504C180.895 110.417 180.927 110.334 180.975 110.26C181.023 110.185 181.085 110.121 181.158 110.072C181.231 110.022 181.313 109.987 181.399 109.97L202.999 105.204C203.173 105.168 203.354 105.201 203.503 105.297C203.652 105.393 203.757 105.544 203.796 105.717C203.816 105.804 203.818 105.894 203.803 105.982C203.788 106.07 203.756 106.154 203.708 106.229C203.661 106.304 203.598 106.369 203.525 106.421C203.452 106.472 203.37 106.508 203.283 106.527L181.683 111.279L181.548 111.293Z" fill="white"/>
<path d="M406.35 126.899H353.565C353.386 126.899 353.214 126.827 353.088 126.701C352.961 126.574 352.89 126.403 352.89 126.224C352.89 126.045 352.961 125.873 353.088 125.746C353.214 125.62 353.386 125.549 353.565 125.549H406.35C406.528 125.552 406.698 125.624 406.823 125.75C406.949 125.876 407.022 126.046 407.025 126.224C407.025 126.403 406.954 126.574 406.827 126.701C406.701 126.827 406.529 126.899 406.35 126.899Z" fill="#231F20"/>
<path d="M432 144.273V342.872C432 350.216 423.751 356.183 413.545 356.183H138.145C127.966 356.183 119.677 350.216 119.677 342.872V144.273C119.677 136.929 127.966 130.962 138.145 130.962H413.545C423.765 130.962 432 136.929 432 144.273Z" fill="white"/>
<path d="M413.559 356.858H138.159C127.602 356.858 119.016 350.58 119.016 342.872V144.26C119.016 136.551 127.602 130.287 138.159 130.287H413.559C424.102 130.287 432.689 136.551 432.689 144.26V342.872C432.689 350.648 424.102 356.858 413.559 356.858ZM138.159 131.637C128.344 131.637 120.366 137.294 120.366 144.26V342.872C120.366 349.838 128.344 355.508 138.159 355.508H413.559C423.36 355.508 431.339 349.838 431.339 342.872V144.26C431.339 137.294 423.36 131.637 413.559 131.637H138.159Z" fill="#231F20"/>
<path d="M432 144.273V154.722H119.732V144.273C119.732 136.929 128.021 130.962 138.2 130.962H413.599C423.765 130.962 432 136.929 432 144.273Z" fill="white"/>
<path d="M432 155.397H119.731C119.552 155.397 119.381 155.326 119.254 155.199C119.128 155.073 119.056 154.901 119.056 154.722V144.26C119.056 136.551 127.642 130.287 138.199 130.287H413.599C424.143 130.287 432.729 136.551 432.729 144.26V154.722C432.729 154.815 432.71 154.908 432.673 154.994C432.636 155.079 432.581 155.156 432.513 155.22C432.444 155.283 432.363 155.332 432.275 155.362C432.187 155.393 432.093 155.405 432 155.397ZM120.393 154.047H431.339V144.26C431.339 137.294 423.36 131.637 413.559 131.637H138.159C128.344 131.637 120.366 137.294 120.366 144.26L120.393 154.047Z" fill="#231F20"/>
<path d="M382.955 169.356H171.855V190.362H382.955V169.356Z" fill="white"/>
<path d="M382.955 191.037H171.855C171.676 191.037 171.504 190.966 171.378 190.839C171.251 190.713 171.18 190.541 171.18 190.362V169.356C171.18 169.177 171.251 169.005 171.378 168.879C171.504 168.752 171.676 168.681 171.855 168.681H382.955C383.132 168.685 383.302 168.757 383.428 168.883C383.554 169.009 383.626 169.178 383.63 169.356V190.362C383.63 190.541 383.558 190.713 383.432 190.839C383.305 190.966 383.134 191.037 382.955 191.037ZM172.53 189.687H382.28V170.031H172.53V189.687Z" fill="#231F20"/>
<path d="M382.954 169.356H354.321V190.362H382.954V169.356Z" fill="#0D9488"/>
<path d="M382.955 191.037H354.321C354.142 191.037 353.97 190.966 353.844 190.839C353.717 190.713 353.646 190.541 353.646 190.362V169.356C353.646 169.177 353.717 169.005 353.844 168.879C353.97 168.752 354.142 168.681 354.321 168.681H382.955C383.132 168.685 383.302 168.757 383.428 168.883C383.554 169.009 383.626 169.178 383.63 169.356V190.362C383.63 190.541 383.558 190.713 383.432 190.839C383.305 190.966 383.134 191.037 382.955 191.037ZM354.996 189.687H382.28V170.031H355.05L354.996 189.687Z" fill="#231F20"/>
<path d="M412.155 204.915H303.21V313.86H412.155V204.915Z" fill="#E6E7E8"/>
<path d="M269.919 207.629H148.729V210.329H269.919V207.629Z" fill="#0D9488"/>
<path d="M229.338 215.702H148.729V218.402H229.338V215.702Z" fill="#0D9488"/>
<path d="M278.694 223.761H148.729V226.461H278.694V223.761Z" fill="#D1D3D4"/>
<path d="M262.966 231.834H148.729V234.534H262.966V231.834Z" fill="#D1D3D4"/>
<path d="M166.833 240.447H149.647V241.797H166.833V240.447Z" fill="#D1D3D4"/>
<path d="M181.359 240.447H171.855V241.797H181.359V240.447Z" fill="#D1D3D4"/>
<path d="M194.926 240.447H185.746V241.797H194.926V240.447Z" fill="#D1D3D4"/>
<path d="M243.783 256.364H148.729V259.064H243.783V256.364Z" fill="#0D9488"/>
<path d="M262.966 264.437H148.729V267.137H262.966V264.437Z" fill="#0D9488"/>
<path d="M225.139 272.496H148.729V275.196H225.139V272.496Z" fill="#D1D3D4"/>
<path d="M248.899 280.569H148.729V283.269H248.899V280.569Z" fill="#D1D3D4"/>
<path d="M158.233 289.182H149.647V290.532H158.233V289.182Z" fill="#D1D3D4"/>
<path d="M181.359 289.182H162.621V290.532H181.359V289.182Z" fill="#D1D3D4"/>
<path d="M191.956 289.182H185.746V290.532H191.956V289.182Z" fill="#D1D3D4"/>
<path d="M255.015 305.099H148.729V307.799H255.015V305.099Z" fill="#0D9488"/>
<path d="M269.919 313.172H148.729V315.872H269.919V313.172Z" fill="#0D9488"/>
<path d="M231.714 321.231H148.729V323.931H231.714V321.231Z" fill="#D1D3D4"/>
<path d="M217.093 329.291H148.729V331.991H217.093V329.291Z" fill="#D1D3D4"/>
<path d="M171.99 337.917H149.647V339.267H171.99V337.917Z" fill="#D1D3D4"/>
<path d="M190.337 337.917H177.701V339.267H190.337V337.917Z" fill="#D1D3D4"/>
<path d="M140.548 147.284C143.009 147.284 145.003 145.289 145.003 142.829C145.003 140.368 143.009 138.374 140.548 138.374C138.088 138.374 136.093 140.368 136.093 142.829C136.093 145.289 138.088 147.284 140.548 147.284Z" fill="#0D9488"/>
<path d="M153.94 147.284C156.401 147.284 158.396 145.289 158.396 142.829C158.396 140.368 156.401 138.374 153.94 138.374C151.48 138.374 149.486 140.368 149.486 142.829C149.486 145.289 151.48 147.284 153.94 147.284Z" fill="#E6E7E8"/>
<path d="M167.332 147.284C169.793 147.284 171.788 145.289 171.788 142.829C171.788 140.368 169.793 138.374 167.332 138.374C164.872 138.374 162.878 140.368 162.878 142.829C162.878 145.289 164.872 147.284 167.332 147.284Z" fill="#E6E7E8"/>
<path d="M365.229 184.233C363.908 184.231 362.629 183.771 361.61 182.931C360.59 182.092 359.893 180.925 359.637 179.629C359.381 178.334 359.582 176.99 360.206 175.826C360.83 174.662 361.838 173.75 363.058 173.245C364.279 172.741 365.636 172.675 366.9 173.059C368.163 173.443 369.255 174.253 369.988 175.351C370.722 176.449 371.052 177.768 370.923 179.082C370.793 180.396 370.212 181.625 369.279 182.559C368.748 183.092 368.117 183.515 367.422 183.802C366.727 184.09 365.981 184.236 365.229 184.233ZM365.229 174.176C364.657 174.173 364.091 174.284 363.563 174.502C363.034 174.72 362.555 175.04 362.151 175.445C361.54 176.054 361.123 176.831 360.953 177.677C360.784 178.523 360.869 179.401 361.199 180.199C361.529 180.996 362.087 181.678 362.805 182.158C363.522 182.638 364.366 182.894 365.229 182.894C366.092 182.894 366.936 182.638 367.653 182.158C368.37 181.678 368.929 180.996 369.259 180.199C369.589 179.401 369.674 178.523 369.505 177.677C369.335 176.831 368.918 176.054 368.307 175.445C367.903 175.04 367.423 174.72 366.895 174.502C366.367 174.284 365.8 174.173 365.229 174.176Z" fill="#231F20"/>
<path d="M372.937 186.906C372.755 186.906 372.58 186.833 372.451 186.704L368.307 182.559C368.183 182.433 368.114 182.263 368.114 182.087C368.114 181.91 368.183 181.74 368.307 181.614C368.37 181.551 368.444 181.501 368.527 181.466C368.609 181.432 368.697 181.414 368.786 181.414C368.875 181.414 368.964 181.432 369.046 181.466C369.128 181.501 369.203 181.551 369.265 181.614L373.41 185.759C373.502 185.853 373.565 185.972 373.591 186.102C373.616 186.232 373.602 186.366 373.552 186.488C373.502 186.61 373.417 186.715 373.308 186.789C373.198 186.864 373.07 186.904 372.937 186.906Z" fill="#231F20"/>
<path d="M451.332 242.553H340.484V324.782H451.332V242.553Z" fill="white"/>
<path d="M451.332 325.457H340.483C340.304 325.457 340.133 325.385 340.006 325.259C339.88 325.132 339.808 324.961 339.808 324.782V242.553C339.808 242.374 339.88 242.202 340.006 242.076C340.133 241.949 340.304 241.878 340.483 241.878H451.332C451.51 241.882 451.68 241.954 451.805 242.08C451.931 242.205 452.004 242.375 452.007 242.553V324.782C452.007 324.961 451.936 325.132 451.809 325.259C451.683 325.385 451.511 325.457 451.332 325.457ZM341.158 324.107H450.657V243.228H341.158V324.107Z" fill="#231F20"/>
<path d="M352.35 309.27H352.215C342.535 308.96 339.876 299.739 339.849 299.645C339.825 299.556 339.819 299.464 339.831 299.372C339.842 299.281 339.872 299.194 339.918 299.114C339.964 299.034 340.025 298.965 340.097 298.909C340.17 298.852 340.253 298.811 340.342 298.787C340.43 298.763 340.523 298.757 340.614 298.769C340.705 298.781 340.793 298.81 340.872 298.856C340.952 298.902 341.022 298.963 341.078 299.036C341.134 299.108 341.175 299.191 341.199 299.28C341.294 299.631 343.643 307.637 352.31 307.92H352.35C356.616 307.92 359.627 296.486 362.273 286.32C364.973 275.79 367.673 265.841 372.06 264.815C372.929 264.572 373.839 264.511 374.733 264.634C375.627 264.757 376.486 265.062 377.258 265.53C381.173 268.001 382.657 274.913 384.453 282.905C385.342 287.44 386.523 291.914 387.99 296.297C390.339 302.804 394.74 306.84 398.979 306.354C404.231 305.747 408.2 298.403 409.563 286.698C413.465 253.326 425.048 249.668 429.813 249.641H429.989C441.923 249.641 448.092 256.053 451.98 272.469C452 272.558 452.003 272.65 451.988 272.739C451.973 272.829 451.94 272.915 451.892 272.992C451.795 273.148 451.639 273.258 451.46 273.299C451.281 273.341 451.093 273.309 450.937 273.211C450.782 273.114 450.671 272.959 450.63 272.78C446.863 256.917 441.261 250.991 429.948 250.991H429.786C420.538 250.991 413.451 264.491 410.886 286.86C409.428 299.402 405.135 307.002 399.114 307.691C394.268 308.271 389.273 303.857 386.708 296.756C385.226 292.336 384.026 287.827 383.117 283.256C381.497 275.871 379.971 268.905 376.515 266.718C375.895 266.345 375.204 266.104 374.486 266.011C373.768 265.918 373.038 265.975 372.343 266.178C368.725 267.029 365.985 277.491 363.568 286.712C360.45 298.308 357.628 309.27 352.35 309.27Z" fill="#231F20"/>
<path d="M441.004 292.004H425.52C425.341 292.004 425.169 291.932 425.043 291.806C424.916 291.679 424.845 291.508 424.845 291.329C424.845 291.15 424.916 290.978 425.043 290.851C425.169 290.725 425.341 290.654 425.52 290.654H441.004C441.183 290.654 441.355 290.725 441.482 290.851C441.608 290.978 441.679 291.15 441.679 291.329C441.679 291.508 441.608 291.679 441.482 291.806C441.355 291.932 441.183 292.004 441.004 292.004Z" fill="#D1D3D4"/>
<path d="M441.004 298.389H425.52C425.341 298.389 425.169 298.318 425.043 298.191C424.916 298.065 424.845 297.893 424.845 297.714C424.845 297.535 424.916 297.363 425.043 297.237C425.169 297.11 425.341 297.039 425.52 297.039H441.004C441.183 297.039 441.355 297.11 441.482 297.237C441.608 297.363 441.679 297.535 441.679 297.714C441.679 297.893 441.608 298.065 441.482 298.191C441.355 298.318 441.183 298.389 441.004 298.389Z" fill="#D1D3D4"/>
<path d="M433.255 304.748H425.52C425.341 304.748 425.169 304.676 425.043 304.55C424.916 304.423 424.845 304.252 424.845 304.073C424.845 303.894 424.916 303.722 425.043 303.595C425.169 303.469 425.341 303.398 425.52 303.398H433.255C433.434 303.398 433.606 303.469 433.733 303.595C433.859 303.722 433.93 303.894 433.93 304.073C433.93 304.252 433.859 304.423 433.733 304.55C433.606 304.676 433.434 304.748 433.255 304.748Z" fill="#D1D3D4"/>
<path d="M367.2 251.045H351.716C351.537 251.045 351.365 250.973 351.238 250.847C351.112 250.72 351.041 250.549 351.041 250.37C351.041 250.191 351.112 250.019 351.238 249.892C351.365 249.766 351.537 249.695 351.716 249.695H367.2C367.379 249.695 367.551 249.766 367.677 249.892C367.804 250.019 367.875 250.191 367.875 250.37C367.872 250.548 367.799 250.717 367.673 250.843C367.548 250.969 367.378 251.041 367.2 251.045Z" fill="#D1D3D4"/>
<path d="M367.2 257.498H351.716C351.537 257.498 351.365 257.426 351.238 257.3C351.112 257.173 351.041 257.002 351.041 256.823C351.041 256.644 351.112 256.472 351.238 256.345C351.365 256.219 351.537 256.148 351.716 256.148H367.2C367.378 256.151 367.548 256.223 367.673 256.349C367.799 256.475 367.872 256.645 367.875 256.823C367.875 257.002 367.804 257.173 367.677 257.3C367.551 257.426 367.379 257.498 367.2 257.498Z" fill="#D1D3D4"/>
<path d="M359.451 263.829H351.716C351.537 263.829 351.365 263.758 351.238 263.631C351.112 263.505 351.041 263.333 351.041 263.154C351.041 262.975 351.112 262.803 351.238 262.677C351.365 262.55 351.537 262.479 351.716 262.479H359.451C359.63 262.479 359.802 262.55 359.928 262.677C360.055 262.803 360.126 262.975 360.126 263.154C360.126 263.333 360.055 263.505 359.928 263.631C359.802 263.758 359.63 263.829 359.451 263.829Z" fill="#D1D3D4"/>
<path d="M154.757 259.066L141.317 252.197L124.988 284.149L138.427 291.018L154.757 259.066Z" fill="#231F20"/>
<path d="M138.416 291.693C138.311 291.691 138.209 291.664 138.119 291.612L124.619 284.754C124.539 284.715 124.467 284.661 124.409 284.594C124.35 284.527 124.306 284.449 124.278 284.365C124.25 284.28 124.24 284.191 124.247 284.103C124.255 284.014 124.28 283.928 124.322 283.85L140.657 251.895C140.695 251.815 140.75 251.744 140.817 251.686C140.884 251.628 140.963 251.584 141.048 251.558C141.212 251.49 141.397 251.49 141.561 251.558L155.061 258.429C155.14 258.469 155.21 258.524 155.267 258.592C155.324 258.659 155.367 258.737 155.394 258.822C155.42 258.906 155.429 258.995 155.421 259.083C155.412 259.17 155.386 259.256 155.345 259.334L139.05 291.329C138.964 291.481 138.824 291.596 138.659 291.653C138.582 291.684 138.499 291.698 138.416 291.693ZM125.888 283.863L138.132 290.114L153.9 259.361L141.669 253.097L125.888 283.863Z" fill="#231F20"/>
<path d="M142.363 281.582L130.318 275.426C128.665 274.581 126.64 275.237 125.795 276.89L97.7377 331.79C96.8928 333.443 97.548 335.468 99.2012 336.313L111.246 342.469C112.899 343.314 114.924 342.659 115.769 341.006L143.827 286.105C144.672 284.452 144.017 282.427 142.363 281.582Z" fill="white"/>
<path d="M112.779 343.52C112.144 343.521 111.519 343.368 110.957 343.074L98.8875 336.918C97.9454 336.428 97.2335 335.587 96.9052 334.577C96.577 333.567 96.6586 332.469 97.1325 331.518L125.199 276.614C125.689 275.671 126.53 274.96 127.54 274.631C128.55 274.303 129.649 274.385 130.599 274.859L142.654 281.015C143.597 281.505 144.309 282.345 144.637 283.356C144.965 284.366 144.883 285.464 144.41 286.415L116.37 341.319C116.031 341.98 115.516 342.535 114.883 342.923C114.25 343.311 113.522 343.517 112.779 343.52ZM128.79 275.736C128.51 275.734 128.231 275.779 127.967 275.871C127.63 275.982 127.318 276.159 127.049 276.39C126.78 276.622 126.56 276.904 126.4 277.221L98.334 332.112C98.017 332.747 97.9625 333.481 98.1823 334.155C98.402 334.83 98.8785 335.391 99.5085 335.717L111.564 341.873C112.197 342.191 112.93 342.247 113.604 342.03C114.278 341.813 114.84 341.339 115.169 340.712L143.235 285.848C143.552 285.213 143.607 284.479 143.387 283.805C143.167 283.13 142.691 282.569 142.061 282.243L130.005 276.087C129.636 275.871 129.218 275.75 128.79 275.736Z" fill="#231F20"/>
<path d="M178.956 193.224C172.125 189.727 164.409 188.335 156.786 189.224C149.163 190.114 141.976 193.245 136.133 198.221C130.29 203.198 126.055 209.795 123.964 217.18C121.873 224.564 122.019 232.403 124.385 239.704C126.75 247.005 131.229 253.44 137.253 258.194C143.277 262.949 150.577 265.809 158.228 266.414C165.879 267.018 173.537 265.339 180.233 261.589C186.929 257.839 192.362 252.187 195.845 245.348C200.505 236.194 201.345 225.565 198.179 215.794C195.013 206.022 188.099 197.905 178.956 193.224ZM148.163 253.448C143.077 250.848 138.876 246.799 136.092 241.813C133.307 236.826 132.064 231.126 132.519 225.433C132.975 219.739 135.108 214.309 138.65 209.828C142.191 205.348 146.982 202.018 152.416 200.26C157.85 198.502 163.684 198.395 169.179 199.953C174.674 201.51 179.583 204.662 183.287 209.01C186.99 213.358 189.321 218.706 189.985 224.379C190.649 230.052 189.615 235.794 187.016 240.879C183.53 247.698 177.478 252.852 170.192 255.209C162.906 257.566 154.982 256.933 148.163 253.448Z" fill="white"/>
<path d="M161.271 267.231C151.304 267.258 141.693 263.524 134.358 256.775C127.023 250.027 122.502 240.761 121.699 230.826C120.896 220.891 123.87 211.019 130.026 203.18C136.182 195.341 145.068 190.112 154.911 188.538C164.753 186.963 174.827 189.158 183.121 194.685C191.416 200.211 197.321 208.663 199.658 218.352C201.995 228.042 200.592 238.256 195.728 246.956C190.865 255.656 182.899 262.202 173.421 265.287C169.498 266.57 165.398 267.226 161.271 267.231ZM161.352 189.633C157.355 189.638 153.383 190.267 149.58 191.496C140.502 194.451 132.87 200.719 128.208 209.05C123.546 217.382 122.195 227.164 124.426 236.447C126.656 245.73 132.304 253.831 140.242 259.135C148.18 264.439 157.826 266.556 167.256 265.064C176.686 263.571 185.207 258.579 191.119 251.084C197.032 243.588 199.902 234.138 199.157 224.62C198.412 215.102 194.107 206.215 187.1 199.73C180.093 193.245 170.899 189.64 161.352 189.633ZM161.257 257.295C156.601 257.295 152.011 256.189 147.865 254.069C141.412 250.779 136.389 245.234 133.751 238.488C131.113 231.741 131.043 224.26 133.554 217.465C136.065 210.67 140.982 205.032 147.373 201.622C153.764 198.211 161.184 197.264 168.227 198.961C175.27 200.658 181.445 204.88 185.581 210.827C189.718 216.774 191.528 224.033 190.669 231.226C189.809 238.419 186.34 245.046 180.919 249.851C175.498 254.657 168.502 257.305 161.257 257.295ZM148.5 252.867C153.463 255.398 159.064 256.403 164.597 255.754C170.13 255.106 175.347 252.833 179.59 249.223C183.833 245.613 186.911 240.827 188.437 235.469C189.963 230.111 189.867 224.421 188.163 219.117C186.445 213.813 183.193 209.136 178.818 205.68C174.444 202.223 169.142 200.14 163.584 199.695C158.026 199.25 152.461 200.463 147.592 203.18C142.723 205.896 138.769 209.996 136.228 214.959C132.844 221.616 132.234 229.343 134.534 236.448C136.834 243.553 141.856 249.457 148.5 252.867Z" fill="#231F20"/>
</svg>
