<svg width="540" height="407" viewBox="0 0 540 407" fill="none" xmlns="http://www.w3.org/2000/svg">
<path d="M470.57 313.077H65.6101C65.431 313.077 65.2593 313.006 65.1328 312.879C65.0062 312.753 64.9351 312.581 64.9351 312.402C64.9351 312.223 65.0062 312.051 65.1328 311.925C65.2593 311.798 65.431 311.727 65.6101 311.727H470.61C470.788 311.731 470.958 311.803 471.083 311.929C471.209 312.054 471.282 312.224 471.285 312.402C471.285 312.494 471.266 312.585 471.23 312.67C471.194 312.755 471.14 312.831 471.073 312.894C471.006 312.957 470.927 313.006 470.84 313.038C470.754 313.069 470.662 313.083 470.57 313.077V313.077Z" fill="#D1D3D4"/>
<path d="M437.67 339.105H192.132L228.839 52.7026H474.39L437.67 339.105Z" fill="white"/>
<path d="M437.683 339.848H192.132C192.035 339.848 191.939 339.828 191.85 339.789C191.762 339.749 191.683 339.691 191.619 339.618C191.557 339.546 191.511 339.462 191.483 339.372C191.455 339.281 191.446 339.186 191.457 339.092L228.15 52.6215C228.17 52.4592 228.247 52.3095 228.369 52.2002C228.491 52.091 228.648 52.0296 228.811 52.0275H474.39C474.487 52.0265 474.583 52.0466 474.672 52.0863C474.761 52.1259 474.84 52.1843 474.904 52.2573C474.968 52.3304 475.016 52.4165 475.043 52.5096C475.071 52.6027 475.079 52.7008 475.065 52.797L438.345 339.186C438.341 339.36 438.271 339.527 438.147 339.65C438.024 339.773 437.858 339.844 437.683 339.848V339.848ZM192.901 338.498H437.076L473.62 53.3775H229.5L192.901 338.498Z" fill="#231F20"/>
<path d="M438.75 87.5865H283.095C282.322 87.6067 281.554 87.4559 280.846 87.145C280.138 86.834 279.507 86.3704 278.999 85.7875C278.491 85.2046 278.118 84.5166 277.907 83.7728C277.695 83.029 277.651 82.2476 277.776 81.4845L278.181 78.312C278.428 76.6491 279.255 75.1268 280.514 74.013C281.773 72.8993 283.385 72.2656 285.066 72.2235H440.708C441.479 72.2037 442.246 72.3543 442.953 72.6645C443.66 72.9747 444.289 73.4369 444.797 74.0183C445.305 74.5996 445.679 75.2858 445.891 76.028C446.104 76.7701 446.15 77.55 446.027 78.312L445.608 81.4845C445.364 83.1455 444.543 84.6675 443.289 85.7834C442.035 86.8993 440.428 87.5377 438.75 87.5865Z" fill="#E6E7E8"/>
<path d="M261.265 74.7346H247.387C247.208 74.7346 247.037 74.6635 246.91 74.5369C246.784 74.4104 246.712 74.2387 246.712 74.0596C246.716 73.8817 246.788 73.712 246.914 73.5862C247.04 73.4603 247.209 73.3881 247.387 73.3846H261.265C261.443 73.3881 261.613 73.4603 261.739 73.5862C261.865 73.712 261.937 73.8817 261.94 74.0596C261.94 74.2387 261.869 74.4104 261.743 74.5369C261.616 74.6635 261.444 74.7346 261.265 74.7346Z" fill="#D1D3D4"/>
<path d="M260.55 80.8231H246.605C246.426 80.8231 246.254 80.752 246.127 80.6254C246.001 80.4989 245.93 80.3272 245.93 80.1481C245.93 79.9691 246.001 79.7974 246.127 79.6708C246.254 79.5443 246.426 79.4731 246.605 79.4731H260.55C260.729 79.4731 260.901 79.5443 261.027 79.6708C261.154 79.7974 261.225 79.9691 261.225 80.1481C261.225 80.3272 261.154 80.4989 261.027 80.6254C260.901 80.752 260.729 80.8231 260.55 80.8231Z" fill="#D1D3D4"/>
<path d="M259.699 86.8981H245.835C245.656 86.8981 245.484 86.827 245.358 86.7004C245.231 86.5738 245.16 86.4021 245.16 86.2231C245.16 86.0441 245.231 85.8724 245.358 85.7458C245.484 85.6192 245.656 85.5481 245.835 85.5481H259.699C259.878 85.5481 260.05 85.6192 260.177 85.7458C260.303 85.8724 260.374 86.0441 260.374 86.2231C260.374 86.4021 260.303 86.5738 260.177 86.7004C260.05 86.827 259.878 86.8981 259.699 86.8981Z" fill="#D1D3D4"/>
<path d="M261.265 74.7346H247.387C247.208 74.7346 247.037 74.6635 246.91 74.5369C246.784 74.4104 246.712 74.2387 246.712 74.0596C246.716 73.8817 246.788 73.712 246.914 73.5862C247.04 73.4603 247.209 73.3881 247.387 73.3846H261.265C261.443 73.3881 261.613 73.4603 261.739 73.5862C261.865 73.712 261.937 73.8817 261.94 74.0596C261.94 74.2387 261.869 74.4104 261.743 74.5369C261.616 74.6635 261.444 74.7346 261.265 74.7346Z" stroke="#231F20" stroke-width="1.35" stroke-linecap="round" stroke-linejoin="round"/>
<path d="M260.55 80.8231H246.605C246.426 80.8231 246.254 80.752 246.127 80.6254C246.001 80.4989 245.93 80.3272 245.93 80.1481C245.93 79.9691 246.001 79.7974 246.127 79.6708C246.254 79.5443 246.426 79.4731 246.605 79.4731H260.55C260.729 79.4731 260.901 79.5443 261.027 79.6708C261.154 79.7974 261.225 79.9691 261.225 80.1481C261.225 80.3272 261.154 80.4989 261.027 80.6254C260.901 80.752 260.729 80.8231 260.55 80.8231Z" stroke="#231F20" stroke-width="1.35" stroke-linecap="round" stroke-linejoin="round"/>
<path d="M259.699 86.8981H245.835C245.656 86.8981 245.484 86.827 245.358 86.7004C245.231 86.5738 245.16 86.4021 245.16 86.2231C245.16 86.0441 245.231 85.8724 245.358 85.7458C245.484 85.6192 245.656 85.5481 245.835 85.5481H259.699C259.878 85.5481 260.05 85.6192 260.177 85.7458C260.303 85.8724 260.374 86.0441 260.374 86.2231C260.374 86.4021 260.303 86.5738 260.177 86.7004C260.05 86.827 259.878 86.8981 259.699 86.8981Z" stroke="#231F20" stroke-width="1.35" stroke-linecap="round" stroke-linejoin="round"/>
<path d="M428.801 162.552H249.089C247.09 162.605 245.104 162.217 243.273 161.415C241.441 160.613 239.808 159.418 238.491 157.914C237.174 156.41 236.204 154.634 235.651 152.713C235.098 150.791 234.976 148.772 235.292 146.797L238.248 123.699C238.871 119.371 241.003 115.402 244.269 112.494C247.535 109.587 251.724 107.927 256.095 107.809H435.821C437.82 107.767 439.803 108.166 441.631 108.976C443.459 109.787 445.086 110.99 446.396 112.5C447.707 114.011 448.668 115.791 449.214 117.714C449.759 119.638 449.874 121.658 449.55 123.631L446.648 146.797C445.999 151.102 443.854 155.041 440.59 157.922C437.327 160.803 433.153 162.442 428.801 162.552V162.552Z" fill="white"/>
<path d="M428.8 163.227H249.088C247.005 163.269 244.937 162.86 243.026 162.028C241.116 161.196 239.407 159.961 238.018 158.408C236.638 156.809 235.619 154.93 235.032 152.9C234.444 150.871 234.303 148.738 234.616 146.649L237.6 123.551C238.261 119.077 240.478 114.979 243.86 111.977C247.243 108.975 251.574 107.261 256.095 107.135H435.82C437.897 107.1 439.956 107.513 441.859 108.345C443.762 109.176 445.464 110.407 446.85 111.954C448.23 113.556 449.249 115.437 449.836 117.469C450.423 119.5 450.565 121.635 450.252 123.726L447.322 146.798C446.66 151.277 444.441 155.38 441.053 158.385C437.665 161.39 433.327 163.104 428.8 163.227ZM256.095 108.485C251.902 108.608 247.887 110.202 244.752 112.989C241.617 115.776 239.563 119.577 238.95 123.726L235.953 146.798C235.67 148.696 235.798 150.634 236.329 152.478C236.86 154.323 237.782 156.032 239.031 157.49C240.294 158.898 241.847 160.017 243.583 160.769C245.319 161.522 247.197 161.891 249.088 161.85H428.8C432.997 161.737 437.018 160.148 440.159 157.363C443.3 154.578 445.358 150.775 445.972 146.622L448.942 123.524C449.226 121.623 449.098 119.683 448.567 117.836C448.036 115.989 447.114 114.278 445.864 112.818C444.602 111.412 443.051 110.295 441.318 109.543C439.585 108.79 437.71 108.42 435.82 108.458L256.095 108.485Z" fill="#231F20"/>
<path d="M284.614 148.171C292.776 140.515 293.934 128.489 287.201 121.311C280.468 114.133 268.392 114.522 260.23 122.178C252.068 129.835 250.91 141.861 257.643 149.038C264.377 156.216 276.452 155.828 284.614 148.171Z" fill="#0D9488"/>
<path d="M285.417 129.14C285.27 129.333 285.112 129.518 284.945 129.693L268.812 143.976C268.258 144.462 267.88 144.476 267.462 143.976L260.55 135.66C260.172 135.21 260.239 134.76 260.752 134.31L263.007 132.501C263.48 132.123 263.871 132.123 264.222 132.501L268.353 137.348C268.785 137.847 269.149 137.861 269.703 137.348L282.15 126.386C282.69 125.913 283.068 125.913 283.5 126.386C283.932 126.858 284.607 127.641 285.147 128.276C285.268 128.438 285.349 128.64 285.457 128.816L285.417 129.14Z" fill="white"/>
<path d="M424.845 126.885H309.299C308.761 126.885 308.246 126.672 307.867 126.292C307.487 125.912 307.274 125.397 307.274 124.86C307.274 124.323 307.487 123.808 307.867 123.428C308.246 123.048 308.761 122.835 309.299 122.835H424.845C425.382 122.835 425.897 123.048 426.277 123.428C426.657 123.808 426.87 124.323 426.87 124.86C426.87 125.397 426.657 125.912 426.277 126.292C425.897 126.672 425.382 126.885 424.845 126.885Z" fill="#E6E7E8"/>
<path d="M398.79 146.365H306.801C306.264 146.365 305.749 146.152 305.369 145.772C304.989 145.393 304.776 144.877 304.776 144.34C304.776 143.803 304.989 143.288 305.369 142.909C305.749 142.529 306.264 142.315 306.801 142.315H398.79C399.327 142.315 399.842 142.529 400.222 142.909C400.602 143.288 400.815 143.803 400.815 144.34C400.815 144.877 400.602 145.393 400.222 145.772C399.842 146.152 399.327 146.365 398.79 146.365V146.365Z" fill="#E6E7E8"/>
<path d="M420.673 225.881H240.961C238.957 225.933 236.965 225.542 235.129 224.736C233.293 223.929 231.658 222.727 230.34 221.216C229.022 219.705 228.054 217.921 227.505 215.992C226.956 214.064 226.84 212.037 227.164 210.059L230.134 186.96C230.763 182.637 232.898 178.674 236.163 175.772C239.429 172.87 243.614 171.214 247.981 171.098H427.693C429.699 171.05 431.69 171.446 433.524 172.258C435.359 173.069 436.991 174.275 438.305 175.791C439.62 177.306 440.583 179.093 441.126 181.024C441.67 182.955 441.78 184.982 441.45 186.96L438.493 210.059C437.86 214.371 435.725 218.322 432.466 221.216C429.206 224.11 425.031 225.762 420.673 225.881V225.881Z" fill="white"/>
<path d="M420.687 226.556H240.961C238.881 226.597 236.817 226.189 234.908 225.36C233 224.53 231.294 223.299 229.905 221.75C228.525 220.147 227.507 218.266 226.92 216.235C226.333 214.203 226.191 212.069 226.503 209.978L229.5 186.879C230.168 182.404 232.39 178.308 235.777 175.308C239.164 172.309 243.499 170.598 248.022 170.477H427.693C429.776 170.435 431.842 170.842 433.753 171.672C435.663 172.501 437.372 173.733 438.763 175.283C440.141 176.887 441.157 178.768 441.744 180.799C442.331 182.83 442.475 184.963 442.165 187.055L439.195 210.153C438.531 214.627 436.311 218.723 432.926 221.722C429.541 224.722 425.208 226.433 420.687 226.556ZM247.981 171.827C243.794 171.955 239.785 173.55 236.653 176.333C233.522 179.116 231.468 182.911 230.85 187.055L227.893 210.153C227.61 212.054 227.738 213.993 228.269 215.84C228.8 217.687 229.722 219.399 230.971 220.859C232.235 222.263 233.786 223.378 235.519 224.128C237.252 224.878 239.127 225.246 241.015 225.206H420.687C424.882 225.089 428.903 223.499 432.043 220.715C435.183 217.93 437.242 214.129 437.859 209.978L440.815 186.879C441.105 184.978 440.98 183.037 440.449 181.189C439.917 179.341 438.993 177.63 437.737 176.174C436.475 174.769 434.924 173.653 433.19 172.903C431.457 172.153 429.582 171.786 427.693 171.827H247.981Z" fill="#231F20"/>
<path d="M261.9 218.199C259.419 218.248 256.957 217.759 254.682 216.766C252.408 215.774 250.375 214.301 248.724 212.448C247.084 210.539 245.873 208.3 245.174 205.882C244.476 203.464 244.305 200.925 244.674 198.435C245.461 193.087 248.111 188.188 252.156 184.602C256.201 181.016 261.383 178.973 266.787 178.833C269.269 178.783 271.732 179.27 274.009 180.261C276.285 181.251 278.321 182.721 279.977 184.571C281.619 186.481 282.831 188.722 283.529 191.143C284.228 193.563 284.398 196.105 284.027 198.597V198.597C283.239 203.948 280.588 208.849 276.54 212.435C272.491 216.021 267.307 218.063 261.9 218.199V218.199ZM266.774 180.183C261.701 180.325 256.84 182.247 253.044 185.614C249.247 188.982 246.757 193.578 246.011 198.597C245.66 200.906 245.813 203.262 246.458 205.506C247.104 207.75 248.227 209.828 249.75 211.598C251.275 213.303 253.149 214.659 255.246 215.572C257.344 216.485 259.613 216.935 261.9 216.89C266.975 216.751 271.839 214.83 275.638 211.463C279.438 208.095 281.93 203.497 282.677 198.476V198.476C283.025 196.172 282.872 193.821 282.229 191.582C281.586 189.343 280.468 187.27 278.951 185.502C277.421 183.787 275.538 182.424 273.431 181.505C271.325 180.587 269.044 180.136 266.747 180.183H266.774Z" fill="#D1D3D4"/>
<path d="M277.304 192.468C277.157 192.661 276.999 192.846 276.831 193.022L260.699 207.305C260.132 207.791 259.754 207.804 259.349 207.305L252.369 199.002C251.991 198.557 252.072 198.125 252.585 197.652L254.84 195.843C255.312 195.465 255.704 195.465 256.041 195.843L260.186 200.69C260.618 201.203 260.982 201.203 261.536 200.69L274.077 189.633C274.617 189.161 274.982 189.161 275.427 189.633C275.873 190.106 276.521 190.889 277.061 191.537C277.184 191.702 277.293 191.878 277.385 192.063L277.304 192.468Z" fill="white"/>
<path d="M416.732 190.214H301.185C300.648 190.214 300.133 190 299.753 189.62C299.373 189.241 299.16 188.726 299.16 188.189C299.16 187.652 299.373 187.136 299.753 186.757C300.133 186.377 300.648 186.164 301.185 186.164H416.732C417.269 186.164 417.784 186.377 418.164 186.757C418.543 187.136 418.757 187.652 418.757 188.189C418.757 188.726 418.543 189.241 418.164 189.62C417.784 190 417.269 190.214 416.732 190.214Z" fill="#E6E7E8"/>
<path d="M390.663 209.694H298.687C298.15 209.694 297.635 209.481 297.256 209.101C296.876 208.721 296.662 208.206 296.662 207.669C296.662 207.132 296.876 206.617 297.256 206.237C297.635 205.857 298.15 205.644 298.687 205.644H390.663C391.2 205.644 391.715 205.857 392.095 206.237C392.475 206.617 392.688 207.132 392.688 207.669C392.688 208.206 392.475 208.721 392.095 209.101C391.715 209.481 391.2 209.694 390.663 209.694Z" fill="#E6E7E8"/>
<path d="M412.56 289.209H232.848C230.843 289.261 228.852 288.87 227.016 288.064C225.18 287.258 223.544 286.056 222.226 284.545C220.908 283.033 219.94 281.249 219.392 279.321C218.843 277.392 218.726 275.366 219.051 273.387L222.008 250.302C222.657 245.995 224.804 242.055 228.07 239.174C231.336 236.292 235.514 234.654 239.868 234.548H419.58C421.576 234.501 423.557 234.894 425.384 235.698C427.212 236.502 428.84 237.698 430.153 239.201C431.467 240.704 432.434 242.478 432.987 244.396C433.539 246.314 433.663 248.33 433.35 250.302L430.38 273.387C429.746 277.7 427.612 281.65 424.352 284.544C421.093 287.438 416.917 289.09 412.56 289.209V289.209Z" fill="white"/>
<path d="M412.56 289.898H232.848C230.768 289.941 228.702 289.534 226.794 288.704C224.886 287.875 223.179 286.642 221.792 285.092C220.41 283.49 219.389 281.61 218.8 279.578C218.21 277.547 218.066 275.412 218.376 273.32L221.4 250.208C222.065 245.732 224.287 241.634 227.675 238.634C231.062 235.634 235.399 233.924 239.922 233.805H419.58C421.662 233.758 423.729 234.162 425.64 234.989C427.551 235.816 429.26 237.047 430.65 238.598C432.03 240.2 433.048 242.081 433.635 244.113C434.222 246.144 434.364 248.278 434.052 250.37L431.096 273.468C430.436 277.951 428.215 282.057 424.824 285.063C421.433 288.068 417.09 289.78 412.56 289.898V289.898ZM239.868 235.155C235.683 235.286 231.677 236.883 228.548 239.666C225.42 242.449 223.368 246.242 222.75 250.383L219.794 273.482C219.504 275.382 219.629 277.323 220.16 279.171C220.692 281.019 221.616 282.73 222.872 284.187C224.134 285.592 225.685 286.707 227.419 287.458C229.152 288.208 231.027 288.575 232.916 288.534H412.56C416.757 288.418 420.779 286.829 423.921 284.045C427.064 281.26 429.126 277.458 429.746 273.306L432.702 250.208C432.992 248.307 432.867 246.366 432.335 244.518C431.804 242.67 430.879 240.959 429.624 239.502C428.361 238.097 426.81 236.982 425.077 236.231C423.343 235.481 421.468 235.114 419.58 235.155H239.868Z" fill="#231F20"/>
<path d="M253.8 281.527C251.319 281.576 248.857 281.087 246.582 280.095C244.308 279.102 242.275 277.629 240.624 275.776C238.984 273.868 237.773 271.628 237.074 269.211C236.376 266.793 236.205 264.253 236.574 261.763C237.361 256.415 240.011 251.516 244.056 247.93C248.101 244.344 253.283 242.301 258.687 242.161C261.17 242.113 263.635 242.601 265.911 243.594C268.188 244.587 270.223 246.06 271.877 247.912C273.517 249.821 274.728 252.06 275.426 254.478C276.125 256.896 276.296 259.436 275.927 261.925C275.139 267.276 272.488 272.177 268.44 275.763C264.391 279.35 259.207 281.391 253.8 281.527V281.527ZM258.674 243.511C253.599 243.65 248.735 245.571 244.935 248.939C241.136 252.306 238.644 256.904 237.897 261.925C237.553 264.228 237.709 266.577 238.354 268.813C238.999 271.05 240.119 273.121 241.637 274.885C243.161 276.591 245.036 277.946 247.133 278.86C249.23 279.773 251.5 280.223 253.787 280.177C258.862 280.039 263.726 278.118 267.525 274.75C271.324 271.383 273.816 266.785 274.563 261.763V261.763C274.909 259.462 274.756 257.114 274.113 254.877C273.47 252.641 272.353 250.569 270.837 248.803C269.306 247.093 267.422 245.734 265.315 244.82C263.208 243.907 260.929 243.46 258.633 243.511H258.674Z" fill="#D1D3D4"/>
<path d="M269.176 255.81C269.038 256.006 268.879 256.186 268.704 256.35C263.304 261.111 257.926 265.872 252.571 270.633C252.018 271.133 251.64 271.133 251.221 270.633L244.242 262.331C243.864 261.885 243.945 261.453 244.458 261.048L246.712 259.226C247.185 258.848 247.563 258.848 247.914 259.226C249.291 260.846 250.672 262.461 252.058 264.072C252.477 264.585 252.855 264.585 253.408 264.072L265.936 253.002C266.476 252.53 266.854 252.53 267.286 253.002C267.718 253.475 268.38 254.258 268.92 254.906C269.044 255.068 269.148 255.245 269.23 255.432L269.176 255.81Z" fill="white"/>
<path d="M408.618 253.542H293.058C292.521 253.542 292.006 253.329 291.626 252.949C291.246 252.569 291.033 252.054 291.033 251.517C291.033 250.98 291.246 250.465 291.626 250.085C292.006 249.705 292.521 249.492 293.058 249.492H408.618C409.155 249.492 409.67 249.705 410.05 250.085C410.43 250.465 410.643 250.98 410.643 251.517C410.643 252.054 410.43 252.569 410.05 252.949C409.67 253.329 409.155 253.542 408.618 253.542Z" fill="#E6E7E8"/>
<path d="M382.55 273.022H290.561C290.024 273.022 289.509 272.809 289.129 272.429C288.749 272.05 288.536 271.535 288.536 270.997C288.536 270.46 288.749 269.945 289.129 269.566C289.509 269.186 290.024 268.972 290.561 268.972H382.55C383.087 268.972 383.602 269.186 383.982 269.566C384.361 269.945 384.575 270.46 384.575 270.997C384.575 271.535 384.361 272.05 383.982 272.429C383.602 272.809 383.087 273.022 382.55 273.022V273.022Z" fill="#E6E7E8"/>
<path d="M401.936 324.782C401.796 324.781 401.66 324.739 401.544 324.66L391.014 317.33C390.921 317.265 390.846 317.178 390.797 317.076C390.747 316.975 390.724 316.862 390.731 316.749C390.737 316.638 390.769 316.529 390.826 316.433C390.882 316.337 390.961 316.255 391.055 316.196L403.475 308.865C403.551 308.81 403.638 308.771 403.731 308.751C403.823 308.731 403.918 308.731 404.011 308.75C404.103 308.77 404.191 308.809 404.267 308.864C404.344 308.919 404.408 308.99 404.455 309.072C404.503 309.153 404.532 309.244 404.543 309.338C404.553 309.432 404.543 309.527 404.515 309.617C404.486 309.707 404.438 309.79 404.376 309.86C404.313 309.931 404.236 309.987 404.15 310.026L392.648 316.776L402.314 323.526C402.431 323.608 402.519 323.725 402.566 323.86C402.612 323.995 402.615 324.142 402.573 324.278C402.53 324.415 402.446 324.534 402.332 324.62C402.217 324.706 402.079 324.753 401.936 324.755V324.782Z" fill="#D1D3D4"/>
<path d="M410.994 324.782C410.846 324.783 410.701 324.735 410.582 324.646C410.463 324.557 410.377 324.431 410.337 324.288C410.297 324.145 410.306 323.993 410.361 323.855C410.416 323.718 410.515 323.602 410.643 323.526L422.145 316.776L412.479 310.026C412.332 309.922 412.233 309.764 412.202 309.587C412.172 309.41 412.213 309.228 412.317 309.081C412.421 308.934 412.579 308.835 412.756 308.804C412.933 308.774 413.115 308.815 413.262 308.919L423.778 316.25C423.87 316.316 423.945 316.403 423.997 316.504C424.049 316.605 424.076 316.717 424.075 316.83C424.069 316.943 424.035 317.052 423.976 317.149C423.917 317.246 423.835 317.326 423.738 317.384L411.331 324.714C411.227 324.767 411.111 324.791 410.994 324.782V324.782Z" fill="#D1D3D4"/>
<path d="M148.23 204.578C148.23 204.578 159.624 224.638 170.667 226.447C184.288 228.688 204.255 216.673 204.255 216.673L193.05 205.671L170.1 205.59L157.545 179.94L148.23 204.578Z" fill="#0D9488"/>
<path d="M166.874 335.393L167.711 344.033L179.766 343.101L178.632 332.72L166.874 335.393Z" fill="white"/>
<path d="M167.71 344.708C167.544 344.708 167.383 344.646 167.261 344.533C167.138 344.421 167.063 344.266 167.049 344.1L166.198 335.46C166.184 335.296 166.23 335.132 166.326 334.998C166.423 334.864 166.564 334.769 166.725 334.731L178.483 332.031C178.576 332.011 178.672 332.01 178.765 332.029C178.858 332.047 178.946 332.085 179.023 332.139C179.102 332.196 179.167 332.269 179.216 332.352C179.265 332.436 179.296 332.529 179.307 332.625L180.441 342.993C180.454 343.084 180.448 343.177 180.422 343.266C180.396 343.354 180.352 343.436 180.292 343.506C180.173 343.646 180.003 343.733 179.82 343.749L167.764 344.681L167.71 344.708ZM167.602 335.919L168.318 343.317L179.023 342.48L178.051 333.543L167.602 335.919Z" fill="#231F20"/>
<path d="M82.4175 316.249L74.682 322.405L79.056 330.694L86.778 327.279L82.4175 316.249Z" fill="white"/>
<path d="M79.056 331.37C78.9343 331.371 78.8144 331.34 78.7096 331.278C78.6048 331.216 78.5191 331.126 78.462 331.019L74.088 322.716C74.0106 322.579 73.9858 322.418 74.0181 322.264C74.0504 322.11 74.1376 321.973 74.2635 321.879L81.9855 315.723C82.0689 315.659 82.1652 315.614 82.2677 315.591C82.3703 315.567 82.4766 315.566 82.5795 315.588C82.6821 315.616 82.7769 315.666 82.8565 315.737C82.9361 315.807 82.9984 315.895 83.0385 315.993L87.4125 327.036C87.4755 327.199 87.4728 327.38 87.4048 327.542C87.3368 327.703 87.2089 327.831 87.048 327.9L79.3395 331.316C79.2498 331.353 79.1532 331.371 79.056 331.37V331.37ZM75.6 322.581L79.434 329.831L85.9815 326.928L82.188 317.343L75.6 322.581Z" fill="#231F20"/>
<path d="M105.678 237.599L106.488 292.827L79.488 316.209L85.05 329.966C85.05 329.966 124.308 311.066 130.424 302.561C136.539 294.056 137.457 273.455 137.457 273.455L157.586 293.705L165.308 337.553L180.671 336.716C180.671 336.716 178.713 304.545 178.713 292.598C178.713 280.65 148.284 239.556 148.284 239.556L105.678 237.599Z" fill="#231F20"/>
<path d="M165.348 338.187C165.19 338.189 165.036 338.135 164.915 338.033C164.793 337.931 164.712 337.79 164.686 337.634L156.992 293.948L138.092 274.967C137.754 279.921 136.282 295.568 131.031 302.912C124.875 311.498 87.0075 329.763 85.401 330.533C85.3156 330.569 85.2238 330.588 85.131 330.588C85.0382 330.588 84.9464 330.569 84.861 330.533C84.7747 330.5 84.6964 330.45 84.6312 330.384C84.566 330.319 84.5155 330.241 84.483 330.155L78.9345 316.385C78.8824 316.256 78.8713 316.114 78.9027 315.979C78.9341 315.844 79.0065 315.721 79.11 315.629L105.8 292.598L105.003 237.666C105.002 237.576 105.019 237.486 105.054 237.402C105.089 237.319 105.14 237.243 105.206 237.18C105.269 237.113 105.347 237.061 105.433 237.028C105.52 236.995 105.613 236.982 105.705 236.991L148.351 238.908C148.452 238.91 148.551 238.936 148.64 238.983C148.729 239.029 148.806 239.096 148.864 239.178C150.12 240.866 179.429 280.583 179.429 292.625C179.429 304.41 181.359 336.378 181.386 336.702C181.394 336.88 181.332 337.055 181.213 337.188C181.095 337.321 180.929 337.404 180.751 337.418L165.389 338.255L165.348 338.187ZM137.497 272.793C137.673 272.795 137.842 272.862 137.97 272.982L158.099 293.232C158.195 293.328 158.26 293.45 158.287 293.583L165.915 336.851L179.996 336.081C179.712 331.37 178.079 303.465 178.079 292.598C178.079 281.487 150.552 243.714 147.974 240.218L106.367 238.341L107.163 292.868C107.162 292.964 107.141 293.06 107.102 293.148C107.062 293.236 107.005 293.316 106.934 293.381L80.352 316.398L85.4415 329.048C90.5715 326.55 124.389 309.878 129.911 302.169C135.851 293.894 136.809 273.63 136.822 273.428C136.824 273.296 136.866 273.168 136.944 273.062C137.021 272.955 137.13 272.876 137.254 272.834C137.332 272.806 137.415 272.792 137.497 272.793V272.793Z" fill="#231F20"/>
<path d="M102.911 243.066L103.95 215.972C103.95 215.972 103.491 182.546 115.763 176.579C128.034 170.612 152.618 173.177 157.383 179.94C162.149 186.704 150.849 243.066 150.849 243.066H102.911Z" fill="#0D9488"/>
<path d="M154.548 151.306C154.401 148.454 153.181 145.763 151.133 143.773C146.799 139.872 137.106 138.373 133.488 144.138C132.321 144.235 131.217 144.709 130.343 145.488C129.239 146.573 128.439 147.927 128.021 149.416C126.023 155.14 127.67 161.215 129.884 166.75C130.556 168.633 131.624 170.35 133.016 171.786C136.404 175.012 141.116 173.244 144.909 171.624C147.459 170.612 149.728 169.001 151.524 166.926C153.63 164.347 154.697 159.528 154.724 156.247C154.763 154.598 154.704 152.949 154.548 151.306V151.306Z" fill="white"/>
<path d="M137.7 174.189C136.754 174.215 135.812 174.053 134.929 173.712C134.047 173.371 133.24 172.859 132.556 172.205C131.077 170.712 129.947 168.909 129.249 166.926C127.251 161.904 125.199 155.33 127.386 149.12C127.846 147.527 128.711 146.08 129.897 144.921C130.806 144.163 131.919 143.693 133.096 143.571C133.841 142.52 134.802 141.641 135.915 140.993C137.028 140.346 138.268 139.945 139.549 139.818C141.689 139.557 143.859 139.734 145.927 140.34C147.995 140.946 149.918 141.967 151.578 143.342C153.767 145.427 155.072 148.273 155.223 151.293V151.293C155.375 152.94 155.433 154.594 155.398 156.248C155.398 159.758 154.21 164.699 152.05 167.358C150.19 169.525 147.826 171.203 145.165 172.245C142.828 173.375 140.292 174.036 137.7 174.189V174.189ZM141.399 140.979C140.844 140.974 140.289 141.01 139.738 141.087C138.597 141.198 137.495 141.563 136.511 142.154C135.528 142.744 134.689 143.547 134.055 144.503C133.998 144.592 133.92 144.667 133.829 144.721C133.737 144.775 133.634 144.806 133.528 144.813C132.531 144.886 131.584 145.279 130.828 145.934C129.823 146.945 129.089 148.194 128.695 149.565C126.684 155.343 128.695 161.621 130.545 166.427C131.173 168.229 132.192 169.87 133.528 171.233C136.498 174.068 140.67 172.583 144.679 170.936C147.136 169.975 149.323 168.433 151.051 166.44C152.982 164.051 154.062 159.366 154.089 156.167C154.124 154.567 154.066 152.967 153.913 151.374V151.374C153.794 148.685 152.649 146.144 150.714 144.273C148.085 142.127 144.792 140.963 141.399 140.979V140.979Z" fill="#231F20"/>
<path d="M145.53 172.92L144.693 181.101C144.693 181.101 142.776 185.462 137.714 183.288C136.264 182.657 135.017 181.637 134.111 180.341C133.206 179.044 132.677 177.523 132.584 175.944L134.19 161.283C134.19 161.283 138.456 159.933 138.767 151.185C138.767 151.185 143.843 151.185 151.848 151.563C151.848 151.563 152.955 165.063 151.619 169.032C150.282 173.001 145.53 172.92 145.53 172.92Z" fill="white"/>
<path d="M140.4 184.598C139.385 184.577 138.384 184.352 137.457 183.936C135.884 183.26 134.531 182.157 133.553 180.751C132.575 179.346 132.01 177.695 131.922 175.985L133.529 161.243C133.544 161.114 133.596 160.993 133.677 160.893C133.758 160.793 133.866 160.718 133.987 160.676C133.987 160.676 137.821 159.218 138.105 151.226C138.112 151.051 138.186 150.886 138.312 150.766C138.438 150.645 138.606 150.577 138.78 150.578V150.578C138.78 150.578 143.964 150.578 151.888 150.956C152.053 150.958 152.21 151.022 152.33 151.134C152.449 151.247 152.523 151.399 152.536 151.563C152.536 152.13 153.63 165.252 152.266 169.316C151.788 170.557 150.954 171.629 149.868 172.397C148.783 173.166 147.494 173.597 146.164 173.636L145.381 181.236C145.395 181.307 145.395 181.381 145.381 181.452C144.92 182.383 144.211 183.17 143.333 183.725C142.454 184.279 141.439 184.581 140.4 184.598V184.598ZM134.838 161.769L133.245 176.012C133.349 177.449 133.845 178.83 134.681 180.004C135.517 181.177 136.659 182.099 137.983 182.667C142.033 184.422 143.748 181.493 144.045 180.926L144.868 172.826C144.888 172.66 144.967 172.506 145.092 172.395C145.216 172.283 145.376 172.22 145.543 172.218C145.719 172.218 149.823 172.218 150.943 168.789C152.064 165.36 151.389 154.817 151.2 152.184C145.219 151.928 140.94 151.86 139.387 151.833C139.05 158.948 135.958 161.135 134.824 161.742L134.838 161.769Z" fill="#231F20"/>
<path d="M137.322 161.553C137.267 160.799 136.969 160.084 136.471 159.514C135.987 159.004 135.416 158.583 134.784 158.272C134.46 158.058 134.09 157.923 133.704 157.881C133.433 157.879 133.163 157.924 132.907 158.016C132.294 158.205 131.764 158.601 131.409 159.136C131.18 159.602 131.068 160.116 131.085 160.635C131.056 161.196 131.101 161.759 131.22 162.309C131.35 162.852 131.586 163.364 131.914 163.815C132.243 164.266 132.658 164.648 133.135 164.938C133.612 165.228 134.142 165.42 134.693 165.504C135.245 165.588 135.808 165.562 136.35 165.427" fill="white"/>
<path d="M135.338 166.238C134.437 166.239 133.554 165.991 132.786 165.522C131.667 164.836 130.866 163.734 130.559 162.458C130.426 161.85 130.376 161.228 130.41 160.608C130.396 159.98 130.54 159.358 130.829 158.799C131.271 158.144 131.931 157.666 132.692 157.449C133.026 157.317 133.385 157.257 133.745 157.274C134.226 157.322 134.688 157.484 135.095 157.746C135.795 158.081 136.43 158.539 136.971 159.096C137.573 159.774 137.929 160.635 137.984 161.54C137.995 161.716 137.936 161.891 137.82 162.025C137.704 162.158 137.539 162.241 137.363 162.255C137.185 162.263 137.011 162.203 136.876 162.088C136.74 161.973 136.654 161.811 136.634 161.634C136.59 161.027 136.354 160.45 135.959 159.987C135.516 159.541 135.006 159.167 134.447 158.88C134.21 158.726 133.943 158.624 133.664 158.583C133.479 158.587 133.296 158.624 133.124 158.691C132.662 158.819 132.261 159.106 131.99 159.501C131.819 159.868 131.736 160.27 131.747 160.676C131.713 161.178 131.75 161.682 131.855 162.174C132.085 163.099 132.666 163.897 133.475 164.402C134.287 164.885 135.256 165.031 136.175 164.807C136.354 164.762 136.543 164.79 136.701 164.885C136.86 164.98 136.974 165.134 137.018 165.313C137.063 165.492 137.035 165.681 136.94 165.839C136.845 165.998 136.691 166.112 136.512 166.157C136.125 166.229 135.731 166.256 135.338 166.238V166.238Z" fill="#231F20"/>
<path d="M145.139 176.848C143.39 176.369 141.827 175.371 140.657 173.986C140.171 173.47 139.83 172.836 139.666 172.147C139.503 171.457 139.523 170.737 139.725 170.058C140.425 170.93 141.307 171.638 142.31 172.133C143.313 172.627 144.412 172.896 145.53 172.92L145.139 176.848Z" fill="#231F20"/>
<path d="M145.138 177.524H145.003C143.116 177.015 141.426 175.947 140.157 174.459C139.582 173.853 139.181 173.103 138.993 172.289C138.806 171.475 138.839 170.625 139.09 169.829C139.13 169.717 139.201 169.618 139.294 169.544C139.387 169.47 139.499 169.424 139.617 169.41C139.736 169.389 139.859 169.402 139.971 169.448C140.083 169.493 140.18 169.569 140.251 169.667C140.895 170.447 141.698 171.082 142.605 171.528C143.513 171.975 144.505 172.224 145.516 172.259C145.708 172.264 145.891 172.341 146.029 172.475C146.093 172.546 146.141 172.629 146.171 172.72C146.202 172.81 146.213 172.906 146.205 173.001L145.8 176.93C145.793 177.022 145.766 177.112 145.722 177.193C145.678 177.274 145.617 177.346 145.543 177.402C145.422 177.48 145.282 177.522 145.138 177.524V177.524ZM140.238 171.557C140.326 172.299 140.647 172.994 141.156 173.541C142.082 174.596 143.243 175.419 144.544 175.944L144.787 173.568C143.095 173.4 141.501 172.695 140.238 171.557V171.557Z" fill="#231F20"/>
<path d="M147.285 165.765C146.636 165.745 145.996 165.608 145.395 165.36C145.229 165.292 145.096 165.161 145.026 164.995C144.957 164.829 144.956 164.642 145.024 164.476C145.092 164.309 145.223 164.177 145.389 164.107C145.555 164.037 145.742 164.037 145.908 164.105C146.461 164.356 147.075 164.445 147.677 164.361C147.399 162.825 146.874 161.343 146.124 159.974C146.045 159.812 146.034 159.627 146.092 159.457C146.15 159.287 146.273 159.148 146.435 159.069C146.596 158.99 146.781 158.979 146.951 159.037C147.121 159.095 147.26 159.218 147.339 159.38C149.796 164.375 148.919 165.104 148.689 165.347C148.29 165.656 147.789 165.806 147.285 165.765V165.765Z" fill="#231F20"/>
<path d="M145.247 168.506C144.407 168.527 143.581 168.286 142.884 167.817C142.501 167.524 142.182 167.154 141.95 166.731C141.717 166.308 141.576 165.841 141.534 165.36C141.521 165.272 141.525 165.182 141.548 165.096C141.57 165.01 141.609 164.929 141.664 164.859C141.718 164.788 141.786 164.729 141.863 164.685C141.941 164.642 142.026 164.614 142.115 164.604C142.29 164.581 142.467 164.627 142.608 164.733C142.75 164.839 142.844 164.996 142.871 165.171C142.889 165.474 142.972 165.769 143.114 166.037C143.256 166.304 143.454 166.539 143.694 166.724C144.31 167.094 145.036 167.237 145.746 167.129C145.921 167.1 146.1 167.141 146.246 167.242C146.392 167.342 146.493 167.495 146.529 167.669C146.561 167.844 146.522 168.025 146.42 168.171C146.319 168.318 146.164 168.419 145.989 168.452C145.744 168.496 145.495 168.514 145.247 168.506Z" fill="#231F20"/>
<path d="M144.288 158.124C144.193 158.123 144.1 158.102 144.014 158.062C143.928 158.023 143.851 157.966 143.789 157.895C143.675 157.753 143.534 157.636 143.374 157.55C143.214 157.464 143.038 157.411 142.857 157.395C142.36 157.431 141.886 157.625 141.507 157.949C141.443 158.014 141.365 158.066 141.28 158.101C141.195 158.136 141.104 158.153 141.012 158.151C140.92 158.149 140.829 158.128 140.745 158.09C140.662 158.052 140.587 157.997 140.525 157.929C140.463 157.861 140.416 157.781 140.386 157.693C140.357 157.606 140.345 157.514 140.352 157.422C140.36 157.331 140.386 157.241 140.429 157.16C140.472 157.079 140.531 157.007 140.603 156.95C141.256 156.365 142.102 156.043 142.979 156.045C143.34 156.071 143.692 156.169 144.014 156.334C144.337 156.498 144.623 156.726 144.855 157.004C144.971 157.141 145.029 157.317 145.016 157.497C145.004 157.676 144.922 157.843 144.788 157.962C144.719 158.021 144.64 158.066 144.554 158.094C144.468 158.121 144.378 158.132 144.288 158.124V158.124Z" fill="#231F20"/>
<path d="M148.352 158.948C148.253 158.966 148.153 158.966 148.055 158.948C147.975 158.909 147.903 158.854 147.844 158.788C147.785 158.721 147.74 158.644 147.711 158.56C147.683 158.476 147.671 158.387 147.676 158.298C147.682 158.209 147.705 158.123 147.744 158.043C147.889 157.747 148.099 157.488 148.359 157.284C148.618 157.081 148.92 156.939 149.243 156.869C149.658 156.845 150.073 156.925 150.45 157.102C150.828 157.279 151.155 157.546 151.403 157.881C151.466 157.944 151.516 158.018 151.55 158.101C151.585 158.183 151.602 158.271 151.602 158.36C151.602 158.449 151.585 158.538 151.55 158.62C151.516 158.702 151.466 158.777 151.403 158.84C151.276 158.963 151.107 159.032 150.93 159.032C150.753 159.032 150.584 158.963 150.458 158.84C150.066 158.421 149.729 158.205 149.486 158.246C149.243 158.286 149.027 158.61 149 158.678C148.925 158.775 148.825 158.852 148.712 158.899C148.598 158.947 148.474 158.963 148.352 158.948V158.948Z" fill="#231F20"/>
<path d="M140.063 184.247L135.554 186.474L138.186 190.065L130.37 223.437L137.781 231.875L144.288 220.427L140.535 190.106L143.519 186.866L140.063 184.247Z" fill="white"/>
<path d="M74.682 322.406L65.61 328.562C65.61 328.562 81 354.698 85.2795 347.948C86.4405 346.085 79.056 330.681 79.056 330.681L74.682 322.406Z" fill="#231F20"/>
<path d="M83.4164 349.756C77.4899 349.675 66.3254 331.032 65.0699 328.912C64.9819 328.764 64.9538 328.588 64.9914 328.42C65.0291 328.252 65.1296 328.104 65.2724 328.008L74.2499 321.852C74.3277 321.798 74.4158 321.76 74.5087 321.742C74.6016 321.723 74.6974 321.724 74.7899 321.744C74.8821 321.77 74.9679 321.814 75.0422 321.875C75.1165 321.935 75.1777 322.01 75.2219 322.095L79.6499 330.397C81.9179 335.149 87.0614 346.354 85.8329 348.325C85.5934 348.757 85.2433 349.117 84.8186 349.368C84.3939 349.62 83.91 349.754 83.4164 349.756ZM66.5144 328.764C70.0784 334.704 79.1504 348.352 83.3894 348.406C83.6657 348.401 83.9357 348.324 84.1726 348.182C84.4094 348.04 84.6049 347.838 84.7394 347.596C85.2254 346.435 81.8774 338.065 78.4754 330.991L74.4254 323.391L66.5144 328.764Z" fill="#231F20"/>
<path d="M167.602 344.033C167.602 344.033 167.319 354.117 168.237 354.279C169.155 354.441 197.788 350.58 195.615 348.393C193.441 346.206 179.766 343.101 179.766 343.101L167.602 344.033Z" fill="#231F20"/>
<path d="M168.129 354.954C167.576 354.846 166.644 354.684 166.941 344.019C166.947 343.854 167.014 343.696 167.128 343.577C167.243 343.457 167.397 343.384 167.562 343.371L179.712 342.426H179.915C181.332 342.75 193.847 345.639 196.115 347.894C196.272 348.046 196.376 348.246 196.41 348.463C196.444 348.679 196.407 348.901 196.304 349.095C194.765 351.998 168.75 354.954 168.129 354.954ZM168.264 344.667C168.115 347.654 168.223 350.649 168.588 353.618C171.761 353.537 192.24 350.337 194.886 348.65C192.861 347.151 184.896 344.964 179.726 343.776L168.264 344.667Z" fill="#231F20"/>
<path d="M151.673 239.826H151.578C151.488 239.816 151.401 239.788 151.321 239.744C151.242 239.699 151.173 239.639 151.117 239.568C151.062 239.496 151.022 239.413 150.999 239.326C150.976 239.238 150.971 239.146 150.984 239.057C152.037 230.822 157.167 199.178 157.221 198.867C157.225 198.77 157.249 198.674 157.293 198.587C157.336 198.5 157.397 198.423 157.473 198.361C157.548 198.3 157.635 198.255 157.729 198.229C157.823 198.204 157.922 198.199 158.018 198.214C158.114 198.229 158.206 198.265 158.287 198.319C158.368 198.372 158.438 198.442 158.49 198.524C158.542 198.606 158.576 198.699 158.59 198.795C158.604 198.891 158.598 198.989 158.571 199.083C158.571 199.407 153.401 231.024 152.348 239.232C152.325 239.396 152.244 239.545 152.12 239.654C151.996 239.763 151.838 239.824 151.673 239.826Z" fill="#231F20"/>
<path d="M207.32 229.472C229.299 229.472 247.118 211.653 247.118 189.674C247.118 167.694 229.299 149.876 207.32 149.876C185.34 149.876 167.522 167.694 167.522 189.674C167.522 211.653 185.34 229.472 207.32 229.472Z" fill="#231F20"/>
<path d="M207.293 230.16C199.383 230.16 191.647 227.843 185.039 223.497C178.43 219.151 173.239 212.965 170.107 205.702C166.974 198.439 166.036 190.419 167.409 182.629C168.782 174.84 172.406 167.623 177.833 161.869C183.261 156.116 190.254 152.078 197.95 150.253C205.646 148.428 213.708 148.896 221.141 151.601C228.574 154.305 235.052 159.126 239.776 165.47C244.5 171.813 247.264 179.402 247.725 187.298V187.298C248.345 198.012 244.686 208.534 237.553 216.553C230.42 224.573 220.396 229.432 209.682 230.066C208.89 230.129 208.094 230.16 207.293 230.16ZM207.374 150.51C206.604 150.51 205.821 150.51 205.038 150.51C197.305 150.956 189.879 153.686 183.698 158.354C177.517 163.022 172.86 169.419 170.316 176.735C167.771 184.05 167.454 191.956 169.405 199.452C171.355 206.948 175.485 213.697 181.272 218.846C187.059 223.994 194.243 227.31 201.915 228.374C209.587 229.438 217.402 228.202 224.372 224.824C231.341 221.445 237.152 216.074 241.069 209.392C244.986 202.71 246.832 195.016 246.375 187.284V187.284C245.787 177.332 241.425 167.978 234.177 161.132C226.93 154.286 217.343 150.463 207.374 150.443V150.51Z" fill="#231F20"/>
<path d="M201.177 229.836C223.157 229.836 240.975 212.018 240.975 190.038C240.975 168.058 223.157 150.24 201.177 150.24C179.197 150.24 161.379 168.058 161.379 190.038C161.379 212.018 179.197 229.836 201.177 229.836Z" fill="#0D9488"/>
<path d="M201.15 230.497C190.536 230.18 180.473 225.7 173.135 218.025C165.796 210.35 161.772 200.096 161.93 189.479C162.089 178.861 166.418 168.732 173.983 161.28C181.547 153.828 191.74 149.651 202.358 149.651C212.977 149.651 223.17 153.828 230.734 161.28C238.299 168.732 242.628 178.861 242.786 189.479C242.945 200.096 238.92 210.35 231.582 218.025C224.244 225.7 214.181 230.18 203.567 230.497C202.73 230.497 201.92 230.497 201.15 230.497ZM201.231 150.847C200.462 150.847 199.692 150.847 198.923 150.847C188.644 151.151 178.897 155.486 171.788 162.916C164.679 170.347 160.78 180.275 160.931 190.558C161.083 200.84 165.274 210.649 172.598 217.867C179.923 225.085 189.794 229.13 200.077 229.13C210.36 229.13 220.231 225.085 227.555 217.867C234.88 210.649 239.071 200.84 239.223 190.558C239.374 180.275 235.474 170.347 228.366 162.916C221.257 155.486 211.51 151.151 201.231 150.847V150.847Z" fill="#231F20"/>
<path d="M226.26 176.632C226.002 177.053 225.708 177.45 225.382 177.82L194.495 208.668C194.339 208.916 194.123 209.121 193.867 209.263C193.611 209.405 193.323 209.479 193.03 209.479C192.737 209.479 192.449 209.405 192.193 209.263C191.936 209.121 191.72 208.916 191.565 208.668C185.76 202.683 179.968 196.702 174.19 190.726C173.971 190.563 173.794 190.348 173.676 190.101C173.558 189.854 173.502 189.581 173.512 189.307C173.523 189.034 173.6 188.767 173.737 188.529C173.874 188.292 174.067 188.092 174.298 187.945L178.659 184.017C178.816 183.82 179.015 183.661 179.242 183.552C179.468 183.443 179.717 183.386 179.968 183.386C180.22 183.386 180.469 183.443 180.695 183.552C180.922 183.661 181.121 183.82 181.278 184.017C184.689 187.518 188.113 191.01 191.551 194.493C192.618 195.573 193.414 195.586 194.481 194.493L218.498 170.598C218.654 170.361 218.866 170.167 219.116 170.033C219.366 169.898 219.645 169.828 219.928 169.828C220.212 169.828 220.491 169.898 220.741 170.033C220.991 170.167 221.203 170.361 221.359 170.598C222.709 171.948 224.059 173.298 225.409 174.648C225.714 175.011 225.994 175.394 226.246 175.795L226.26 176.632Z" fill="white"/>
<path d="M162.743 212.556C162.743 212.556 170.843 211.53 172.085 210.693C173.327 209.856 176.742 204.375 178.511 203.943C180.279 203.511 179.955 207.575 178.511 209.235C177.066 210.896 185.355 204.848 186.705 206.198C187.604 207.374 188.091 208.814 188.091 210.295C188.091 211.776 187.604 213.215 186.705 214.392C184.424 217.187 170.735 222.6 163.58 222.951" fill="white"/>
<path d="M163.58 223.559C163.406 223.562 163.239 223.498 163.112 223.379C162.986 223.261 162.912 223.097 162.905 222.924C162.899 222.835 162.911 222.746 162.94 222.662C162.969 222.578 163.014 222.501 163.073 222.435C163.132 222.368 163.204 222.314 163.284 222.275C163.364 222.236 163.45 222.214 163.539 222.209C170.289 221.871 184.019 216.552 186.179 213.893C186.966 212.843 187.392 211.566 187.392 210.254C187.392 208.942 186.966 207.665 186.179 206.616C185.45 206.306 181.724 208.452 180.495 209.168C178.605 210.248 178.214 210.518 177.795 209.951C177.377 209.384 177.593 209.235 177.971 208.803C178.419 208.228 178.73 207.558 178.88 206.844C179.03 206.131 179.014 205.392 178.835 204.686C178.835 204.605 178.754 204.578 178.632 204.686C177.795 204.875 175.932 207.156 174.798 208.655C174.125 209.652 173.326 210.56 172.422 211.355C171.072 212.219 164.187 213.15 162.81 213.326C162.633 213.349 162.454 213.3 162.312 213.192C162.17 213.083 162.078 212.922 162.054 212.745C162.041 212.657 162.045 212.567 162.068 212.481C162.09 212.395 162.129 212.314 162.183 212.244C162.238 212.173 162.306 212.114 162.383 212.07C162.461 212.027 162.546 211.999 162.635 211.989C165.929 211.571 170.91 210.734 171.68 210.234C172.436 209.499 173.128 208.7 173.745 207.845C175.662 205.415 177.12 203.673 178.322 203.39C178.639 203.303 178.976 203.324 179.28 203.452C179.583 203.579 179.835 203.804 179.996 204.092C180.504 205.347 180.504 206.751 179.996 208.007C183.398 206.049 186.084 204.659 187.178 205.752C188.181 207.054 188.726 208.651 188.726 210.295C188.726 211.939 188.181 213.536 187.178 214.838C184.775 217.794 170.978 223.289 163.566 223.653L163.58 223.559Z" fill="#231F20"/>
<path d="M118.571 176.376C118.571 176.376 122.013 210.99 132.071 211.152C144.315 211.368 165.24 210.909 165.24 210.909L169.29 223.964C169.29 223.964 136.89 231.74 123.255 225.84C109.62 219.941 108.635 196.599 108.635 196.599L118.571 176.376Z" fill="#0D9488"/>
<path d="M141.993 212.232C136.458 212.232 131.787 212.043 130.478 211.476C126.9 209.897 120.326 187.176 119.043 182.681C119.019 182.593 119.012 182.501 119.023 182.411C119.034 182.32 119.063 182.233 119.108 182.154C119.154 182.075 119.214 182.005 119.286 181.95C119.358 181.894 119.441 181.853 119.529 181.83C119.616 181.803 119.707 181.795 119.798 181.804C119.888 181.814 119.975 181.841 120.055 181.885C120.134 181.929 120.204 181.989 120.26 182.061C120.316 182.133 120.356 182.215 120.38 182.303C123.282 192.549 128.736 209.181 131.045 210.194C133.353 211.206 152.807 210.788 165.2 210.194C165.292 210.186 165.384 210.198 165.471 210.227C165.559 210.257 165.639 210.304 165.707 210.366C165.776 210.428 165.83 210.504 165.869 210.588C165.907 210.672 165.927 210.763 165.929 210.855C165.934 210.947 165.921 211.038 165.891 211.125C165.86 211.211 165.813 211.291 165.751 211.359C165.69 211.427 165.615 211.482 165.532 211.52C165.449 211.559 165.359 211.581 165.267 211.584C163.256 211.692 151.389 212.232 141.993 212.232Z" fill="#231F20"/>
<path d="M137.781 228.486C132.754 228.665 127.732 227.989 122.931 226.488C110.093 221.614 108 203.417 108 202.634C107.981 202.453 108.034 202.272 108.148 202.13C108.262 201.989 108.427 201.898 108.608 201.878C108.79 201.858 108.972 201.911 109.116 202.025C109.26 202.138 109.353 202.303 109.377 202.485C109.377 202.674 111.456 220.615 123.552 225.178C135.878 229.822 163.755 224.436 164.052 224.382C164.214 224.382 164.372 224.438 164.497 224.541C164.623 224.644 164.709 224.787 164.74 224.946C164.772 225.105 164.748 225.271 164.672 225.414C164.595 225.557 164.472 225.67 164.322 225.732C155.568 227.392 146.69 228.313 137.781 228.486V228.486Z" fill="#231F20"/>
</svg>
